<mxfile host="app.diagrams.net" agent="Mozilla/5.0 (Windows NT 10.0; Win64; x64) AppleWebKit/537.36 (KHTML, like Gecko) Chrome/135.0.0.0 Safari/537.36" version="26.2.14">
  <diagram name="ページ1" id="Og_wJc_1fv9vox4Q4WgF">
    <mxGraphModel dx="2253" dy="789" grid="1" gridSize="10" guides="1" tooltips="1" connect="1" arrows="1" fold="1" page="1" pageScale="1" pageWidth="827" pageHeight="1169" math="0" shadow="0">
      <root>
        <mxCell id="0" />
        <mxCell id="1" parent="0" />
        <mxCell id="go8BSAw1Lf1Zyd6wWskr-20" value="" style="rounded=0;whiteSpace=wrap;html=1;fillColor=#f5f5f5;fontColor=#333333;strokeColor=#666666;movable=0;resizable=0;rotatable=0;deletable=0;editable=0;locked=1;connectable=0;strokeWidth=3;" vertex="1" parent="1">
          <mxGeometry x="40" y="20" width="520" height="360" as="geometry" />
        </mxCell>
        <mxCell id="go8BSAw1Lf1Zyd6wWskr-29" value="" style="rounded=1;whiteSpace=wrap;html=1;fillColor=#f8cecc;strokeColor=#b85450;opacity=80;" vertex="1" parent="1">
          <mxGeometry x="70" y="158" width="460" height="72" as="geometry" />
        </mxCell>
        <mxCell id="go8BSAw1Lf1Zyd6wWskr-1" value="" style="shape=image;verticalLabelPosition=bottom;labelBackgroundColor=default;verticalAlign=top;aspect=fixed;imageAspect=0;image=data:image/png,iVBORw0KGgoAAAANSUhEUgAAADAAAAAwCAMAAABg3Am1AAADAFBMVEUDAAAaDgEIAwAeEQMhEwMQCQEkFgUvGwcoFwYAGhsqGQYLBgAUDQEWCgFBKAw2IAk5IwqDYSgxHwk+JQpVNxNxUSJhSh9pTB5lRRoZFAYKAwB4tQV8wARCLRBqSRk2HQYAFhpeowZ1VSKIXyMGHxhJLAyacSYwXg2QZiVYOxVROxg0SQkSNxU7Kg46OApONxZPNBBNMA6UbiypiUusj05kpgZLMxT387FZNA5aPxlcQxp6WyRYnAcbPhI+QA4uLgiedSeWczeU0wBqrAcdIANQkAh+WSASMReEvQQLJBdTmAcwIws1MQeJaClXSRojJgU/RwqPayxrVi3BlUEsPgNGMhKPVhRmugFIgQlRkweGxAN3ugRgQhkgRBGXZiNvswSpfDFlbQ4+MxKFWiBGUQwzKBCwgTAoNAOgfjSjg0dyywBhrwM5cQiKzQJgnwd6Sxaf1wBwrwZHhwiSXR5jPxZWXQ1UYghQRBOHog6mdyhyhw8lTRGXayVCdwo/XQbGq19CZwNtwgHl25DXz4pKjAex5QB9kg1DQwwnHggRLBcnVQ2gdzOdeS1wThxbfQSkgyqorhW4mlU4Ugx1Zj5mUiXTx4dqXjru6qrIu32tnWKTzgKLyQGDmgqX2wA/ewhKSwuCUBZSZxCt4ACWtglQVgtzeBB9hRLI0xiwiDM/TAqIZS2BazdLdAe8jzt2XzB2WCeHc0CilV/g15bu557p4JozZguFVRmf0QFoeQ2UrA281hCogj2zlE+xuBhBNiHLs2b9+rSxjECUxwGf1AGLThCZ2ACn3ABZlQhgORBspQh8oAAnORNvfg5ZhAVsngVYiwi4zhBvPQ2ouxC6wRmyxxG/o1vW4h6uoi/WqE7JtXKZhU+3rW3e1Imai1GTdkBmlwO37QATJhV0RA+fohWjww9gqAaWoBJfVRx8cR3N3BfhzoCMfSTRwXmLe0vGnU+/tHC8qm3HvYHf7RPz/hibjR6QlA9vWxqJng9wYxzCyR7QunCJsgt4cUm74BC2qTTp1313y/IaAAAJAElEQVR42iXUZVgbaReA4XcmI8lM3EggQoQACYHg7u7u7lq0FCgORYq0eKHUqFAvbam7u7ttd7vu7rufXOz+P/f1nPPnANrcmCmNRqOpQ0PVNJqpKY2mVqtDQ1c3h32i043pEhJak5N1VDkrvMOj1twzeDUYe7LyXxAcrFavvn37HU2tDg228hxI7VQkUAKiAwISdNFjHd5srndbYK15M2g89YXVPyK4eS43d/vtUHVosGezecemsOSy5I4AcUCAWJzQWaYIYPLYEW2BKeCvUz8tJUw9V/aeqI95p1avzjRvvX7zZk12cmdZmaItoVjXVt6ZXDZGWBrM8OJV4OMHP+1cTTMda7xTsHn79s3eAcUp994/MVcQExNT0LFP0ZlentyZ7BGW3IHYMnEWNQD859SPP+pMb2+Y8/LaHNNn7V3ccbcgIpFvxuSxCALrLzCRlJcnl5dnx2BmLnIcp4KPT53amUmrr/fysvYODR5Iub9b71K13BanUiAIoTCMo/4qKysrXxNDELY3WDhOAF3jo5Hg0L6+vgZr78yjgWus9UwWFYLoDAbKYFAKp75pWLNmdwROxXnLXXCEEg1Md2/oXa22boiKysuLTtB523BJGIUg1BhGC+Pee33IJlxqY+Bb8l1uuLCQ4rthgGbquSLUNKIhSpiYFyFGpVKUJEkSBuKpQ6+/+25cq7UUyTIs+QZbNoZRt0vKAc3U9PY7tXeDm1CbKIzS7x0HMACA/vcPh7snX8cJF0TKYQOTyWPJqRQqm0hIBbq5thiv6Ki4Awcmogr7DxzqFgMAzn3XNT0zMzMhjBVxOFLXSI5AxJfjuJxNiQaPfpuLsW4wEh58VRoOzgmnfhADMPXmyJE3M+8d0L51F5x2E/lGKodFGa7LXQ1mPASs3O7VF6WN04vP5Ylt4mwmXtPB34vdh6ad102+mhga5pRYxtoJjIxkRjJRRgafjQO112duRnsLAQBwopHQZmIGjC9+H6dlTi92T2l9h2NPK5XuSqXASCYysOTMDAF497tQuLcfjai/s3lCsDBxYOZc98s9pfZvp7tfEVI7ZeQZB1/3pUKGgWALzjy1BwW/u0XmwXO/nfx4/rO9e9++Gp/qevm2tNTe3k7pKjda4JS0j46Onnnq4Moy45wvlTHB51HCKJThnbvh5Mk7B18dem9i/PDitL2vnW/p9z/EUZ32xJa8fPPll+17zHic9hIZDoNftRhKZ3jf6e1deSLms8+/+mNk+siRycnD69Y5X1h3TjQYu2WPw5cOAr5c2V6qZMMwaAg3pjMitm072ZibO//p/MjOL55PO1+44Hz46yMXnL/RDKoe5j89rxSxRe32QTYAhkGemM7ob9x2snH+00cPnvSe/eLZs68cZg4e6v76iPO6gxqf/If5X5fypZZP24OM6DCJgkIIQk5saGzcMfLoyYP5j0YeP3v23MHB/uDhbmfnw24lGs3DLX86yBbaz0cKMJiEMEBA0OaVJ3Lr53958mDHjrNnP/9j538dvrX/vmvRed04sbbJp+VDh8mXf56PVRbCqJhKBQiEbO7z6svdMb8jr/7xzse/fnX2+egZhy5n58kpplnkWh+fljr70Yu+nHBAYuG75wACUSDr3dtX1Pdx9b883vl8bUnJxXj7LufJcb6IH2Sn0vj4aDQaOxkGYEza65cOCApUWFBgbZ2b5+b+6dmRtbvi4+Mduha/4YssVGZDJUNDsXY+TSo9ADDEbji+PhvgVMSrwDp6xQ4ni8iPRn5eu2t//MWuxTjXnPj9QwJ3u10azZBQjwIYJjFWbnVaNiDwcOux6OJ66Za6lo9+Lmnyib94/sJB0bcv4ouaVEwek80WAwCTJIli3A1X0x2BGMG8ryd4hxuS6rLs7NZqWnaV/K9r+bcv9hcV5aiWu9xYTgUwiaIoSadYX5I4pgKPjrbUTh3GupFUd6wuK8enRWPR/ubii6KiopysY1VVVTIeTKIMBoOkM1ZcqgxcBSo/Ke8s2wexXLbUbakbzs9XWVhYZPnsKsqxyz92LGlLVZUM+Reg9FtpqbW1oNm81UNi0s92eZhUVUUgcltZS1ZWUVOLKj8/KSnpypUrWZylD0XCxjHX1t8M3ASCPZtb/a+uoJq5fPghwWDKmOzhlqYmjYUq/1jSlaS6rCwLIxRFjWFKxLatl0MCK0CwZ+bA/dm0CK6tiwuC28afFvGYsqacQV/VoIWvvX2OAKdQGBQ2T9/bc+24SYo5sDLfZ95qsvFWBIvPx3i8wRf7h3k8Zsbp06WjvqNnfDMICoJgZmZQ9PGe6pDrrUeB571r9zY5Ltt4l4IbpLZMy/3xRSozApIKD+yNi9OyMAShIAgDkBt6LocoAlMqQOa9rTdrFZKN7zMoFNzJlr9rf46PypaLUREEo2JUguhHUBIGK3vWpzt6hK2qAJnmd1NWKSQbTcQUhMo0WA7mLB0sYuMEFce5erY+HEJJsGLr5RB/ReUSaDavqPXIXrZxNhrCeFw+nzNoYaEKsnPC2FqbRCcnfWI/nQTRl67Nmvg7VobVVoCjrfcrTWb9rl7VoQSPsDHILDicIBWnUOsusDRImVIbhE4CXc/lkGwTE8fUlKMgJXBp3s9v4xoU58mZlhlByiDVHqk0luPGT9RL3bgQnQRrPjhuUhNSXRO4yRyketRcqvZLS5fcE1NZLDzDUqkMinXFLIc4rk5SJ6GeDqEweeuDahPHmjTFqooBcL3SZH21n8TfX5IAyeVUZsZwUKyAions9rg6uQr0dAr9n8LWdIVHWGrK0WbgofgH1PhL2owJXE44CSIFOMZaiOQECd0T6RhlaaXirT0hirDU2ooBT+Ch8Jes95uVmKQXw3RMziWc3HCEpXXnuEdquXSCClEgkgS3ekIqw1a1mmdaAQ+FY0162uzssvdRY5IuZ3ExBGNphe4LWj0EhbMRCIFQmP5XdUh24CbzTCsr4Ojv7/hJtmTZsn3GJEzibBaX4BncjBZcMQhhS3EKsgQKtobUpLUOZFpZWYH0NEmNo3+a37I2YxSFcRaXZca3cTMSFGIE05ZJUDAKxAjYdvz+vn0DnlZWVlb/B3Gd7k147UzKAAAAAElFTkSuQmCC;" vertex="1" parent="1">
          <mxGeometry x="360" y="170" width="48" height="48" as="geometry" />
        </mxCell>
        <mxCell id="go8BSAw1Lf1Zyd6wWskr-2" value="" style="shape=image;verticalLabelPosition=bottom;labelBackgroundColor=default;verticalAlign=top;aspect=fixed;imageAspect=0;image=data:image/png,iVBORw0KGgoAAAANSUhEUgAAADAAAAAwCAMAAABg3Am1AAADAFBMVEUtAABAAAA2AAAyAABDAABGAQA5AABiCwBoDwAmAAA9AQBYCAAeAAA7AAAkAAByFgAvAABYBQBMBQFUAwCCJQFcBgAqAABdCACWOQJrEQBuFgFhCABLAQBoDQBRAwBIAQCfQQFeCwB0GADRZwdlLiVaCwBgLCV7HwFpEwBkDgCaPAGPMgBaJyGtTwH7qwXvmwOGKQF3HAHXfQJuFADZgQBmCwCHLQNUIyHiiALHXghPAQC0WAT/tQL/sgJ4GgHhhASMSyySNQGbQAK0SgjgiwN0OylNISP3pQGpSAPrkQLEWAfXcgXKZwbFPxNRCANDBAGpTAKhXjHBaAUwCxKjRQJIGRpBFRjSeAP9rgKMLwCOTy/KYgbqlwvWZQ+sVATFWwbVbAjTcARxGQByHQEoChD0oAKzUwLsmgCaOAQ9DRH/ySnYXg9QFxFtNCfSWxJ/IgC5TgdPHRvojAPbdAbSbgWvMBQXAAA2BAGdPQH/twbMSBLOdAOSUjD/uw2TOwJfDwCYVjHIcAZHEBDdgwBZHxHogwihTQj8ui/wpRnCVwfMWQvpqUQxAwHSSxTcURRDCAq4XgHahgDUewDlkQXRUBLTVhGBQiy/YgHuog+HRyy7VwefWi7XeQHhgRv8vyR7QCvKbAG9VAf/1krkjh71qgzVbRaLPRK2MBbOXQn/4XbzyHP7pBJiGAlrKBDQYgfgnB25WgDllAP8swP5sA14PCnGYQSdRgeERCqVQw+/WwPmfAfznSD/zjjAOhW1PA9wEAD6zlvqu3HFUA7HeAG1Zgb/wBI5EBb/xh5rLyLldgzvlR3eegnVdAHxrizungX/6ovpnSH4wUawYCL/8a7ZjBvnoFnxngC2byH/4GHokDu6eTj81WHQlUnurHL12qHyzZLGRw/vwF1zLQC2WwXrtDf8qSGqUQHkfRimYjiGOArYrnL/657614HadiDFeCHu1ovuyoXARwuCNBjimTn+4o/646bOhCX6w3WqQgidUiT/siqVVQDx0Xbhm0fWe0n//Mr8o/26AAAIt0lEQVR42j3TZVgbyx4G8N1kN7vskoR4AhHiCQlBAsHd3d2DuxeXQoEW2iItUIXSlpa6u7u7e3t6To+7Xb/3CT2975eZL7/n/c8zM0DguvjsbH8ut3/MaUXxZ3SCGUAkEgFTPq1sM7aZ+f8DFPeum8z+YMPt9HB0shvdKSICFhYWHwGBQDRtLdhmZmYUCuUvcLvYKWUkO5bL7RxxCiy8IKcDn0IkkMgEU4imlnlkAv+8vc+x7b1HbAnXZmHvipCLcvivAgAgkDESgYRhZDKZALAplPkeIOZiSKBj24hHaHNzkePoY10/K4ZItJgPkUQmkzAQw0AQJBEAs/kWAO5yKhx1XOjhERoaMBlYuH/qKIOOkUjzs5BBaMsunA5DEASBGMF0egpAhz/LfOw0Fr+m5m81MymFB8rO+lrhIEYikUhkEIKf3IvXOKhwGIIhkASYUSgATIf7Q4qdUo7VBASEHwsMmdr4ry1WODwvQFi0ZePJWw/jrb1xGIIwoglgMF9+IbXYsW2mJqDGLTJMd3Lbj784I3QQI5NAWGj8/GTZATu7FK4Y+lgBEDGRe/4+r+LevDVLAo5FNoRtPvvgzRZnVCwCMVCE8/aUXTowWdTmZKuGIJDANgMAIiikpXl5hvlEzrgVNTTctNPde/DjWskZXhcdgmhWF690dBTbWtvG+zMgkERkA2yAxGdZXbx0oM4nIyMysj4vzy51atu336xVOqvlIgbrcEdLi6djonWoh1EEYgTTzZsqjHvKNtetc8t1y7vREOFjpyvb9u1PX6msEDGNuTm1xUsXW83kNtMgMoEIWBCJJBHN6ujUSTtXqTRDk3cjIu+mj93A2TsPzv3CQlj5iwt36FIvIByEaYRB4vyjJIBCRPDDxqmwPmm9TX7KjYiIiHqfE/d+e/Dal0GzzOzr69tRaGBxcCMOmkYiEgkkmCNQfr5xVWZDXga9a7IvoiEvt77vxHf//X2Luyrz+DVp3454Do3RZYzGiPOADOJq5ydPBwrXSeuZsDy2XiqV5h6//tvrnx6KLe8evzabcSIsn8EQqngMEGCbABaNCvK3v9AFSutj3Rksv91zu7Ou/fnNFksjx3Di+PHZ8PU7DjOEQjkVwQG2hQnAKp7z8zsdmdLcQ100XBxQVVX+7BHTisXhfH3L9fpseO6ONrmQL9SrOR8BiHVRrf5+58qqBqmUScPxkqqV5c/6BWKOGFG/vDsUmeN24nq+O1+kRj8BcrQ3YviubFXD7t0BKhxnlreuXG9QoQgiZj0fGspwC9/0hb87H4rmIYAFQCCRQRCWoMrtJ29Hzg3unilx8B5fHpXF1Ov1PETw8tz6DLec9f/wYLhDkFgAkInzAFRRHc5tXOw2ODiXVTV+unX5sqwSKlWvpx59/SgrIyd8/UAKzodBEQLQsfmfBXYp9S+f3sqYG5wrrxpfvnz5svIIf4M99/6bV4NLZnKkmwY2qUUiCOIDHDpIIoEQKLc/83zbvdzc+i+vZY0vX7asdVn5l88evXr1n59/nlt//YuBgbtGER+GQADhRPNBEIJwg+T+theZtwaGft00W76ytXXZyvHy2aq3UW+zvl9jbR2/anE+/yMQcxhCvgiW+zH9Xmzb+M5Dk5a48Mvx1qioU6dORUVFRZW7MVGx2rJzhYHPh2EIQBCNv9LoYFntb68cunP2sLeR6s28/33rqa2NjY2NW0+fn1WabkOlj010F5mA3MpgF/i+uaSEa+/95OkfPIHRkqps/vf41sbTg+E1AQE5oVYcBEEQniRRBZtGikYQxytle0ZKDExvw55+gVpPNSoT31VtbTx/oy6szsdxg62BJ+ZwxGi+PcME6GJO5/4rZVOrFnLtve2rBShKlTB/2L5ya6N0LMXVNbAuLKxXw2LRaDQOj4fDEBCDI8bAjo5LlzoW72vziGWeQfXK0O2Poraezlt37KbrqKurU1vnzmgGgyFkcJxpdCAmGlHFt7S0eIbY3V61+cDQfXtD9rk/z59qDLiZV7T3sV3x6IjH0V21PdFCobu7kN4DYHQx+r5wf4tnakhmYGDg4rPvtv/+Jutt1OmZvElbmzad3V7bwz1XFcFJPcPDw6VJCgCjywW2Y22eniFOYSt8XH3qFm8/N3v+/OCxDRs8rP2ax/aGfvi6VDbtG+QSHBysmG4Hmug4khipyfTU+WREOG66e/dhxFyN26+bIp0W2nL9uImJtocrkivXxn0V157eHRfXDjTF4IjNJLUzxEvnk3HI7dChnPCaNUN/2KSlpBRZx4Ym2vYvunwwLq77YND0RHdc92pgaYxcrBmhov2pnl6uGTk54Utm1mQ+LKlOcxrdMFlkWxS7KEG7Nn11pUyrSI9b237EBOT2RVQeaqvz9AqThi9ZMuO4OdS+Om0srHfD++yjFQUJ2krFVRetrD1ubbrvBABguNgh1gFFUf9iT6+Q3sjwJSEr0hwkDszOzl2LKkoLkrUKrUtwULfvkSOVQb4TgFkTXW5pzUR5PGfNqJeXrrDO1Wu0WiLxttxZkZCQkFDgUqlNkgWtPnhVFlzZ7RsEUJpicJWfn4qHogLqh0xPr9TU/fuYEonEcpf2ckJBQcHlZJcjvjKZi4ssyPegLAigLMXoXdXWSh6K8lBBdfbDzftTddneVInlzl21wcmXS0srZJXa2mBZenuQTDExAZizSRCu4qZR9SiKogIBNS07fmwD00jVq3ZW1GovJyxddLU2STbhO61wUaxOPwgsoDRhMG60sVc6SKhUBwcJD+UZlRJLPQ9Vy6NdXJKbhntqfbuPKLSK1elBCgWwwBwgkWLollyuRqPR+PlpDNVUAYKo1Qgi5tCGa7UVw4QerSLYRZa+WpGUZAYsMKcsbSJgfLE9t9nfxsbGxt/fj4lyWBwOB6cx3IdrE8yWVtQmB0+ny7RJyRRzYMECc3YTgYDBQrVDGrfZ2hQbg1LForEYDIZ7TGlyAbunNHm6vdIlaRHb3Px/Fdu9A8DvkGYAAAAASUVORK5CYII=;" vertex="1" parent="1">
          <mxGeometry x="108" y="170" width="48" height="48" as="geometry" />
        </mxCell>
        <mxCell id="go8BSAw1Lf1Zyd6wWskr-3" value="" style="shape=image;verticalLabelPosition=bottom;labelBackgroundColor=default;verticalAlign=top;aspect=fixed;imageAspect=0;image=data:image/png,iVBORw0KGgoAAAANSUhEUgAAADAAAAAwCAMAAABg3Am1AAADAFBMVEVfDxEgEx5YDBBtEhNlERJSDBAeAgODGBc6CAohEyQxBgicGxs5G1OUGhsrBAYwGEMmAwRMCw19GRdECQx4FRc0GU4tE1IZGC5nCxpgChR/Exg0GmGFERYlFjolFSyJFxkVAAEvIlSfJh8hGSz+//8UHzhzERWOGxpuFBwoEUhDKHOpHB8kHUC2KCEcDSAdChCHJyCqMiRJBRRSBxA5IWglETLQcTyhMCQ6AAJwDBFBH3NTJJNtPbswIFqIHxu/XDduDR+jHx09IlI3I11DJV9JJoCPFRe9Zze5QivCUTBfPT4fHDW1NCQxP1URGDMhJTwqFzsyH0gpGkuWIh4sGllaMKJpQ6HSfUjdj0mzOirRhEdMD5YqJE5xGxzPTS/jcUBbE6zMXTgoK0JCLT41EGA/HGFMLYROLnZZM4KoPymSKR/ogEWmYljfZz88L2Z5IyTkoVYxHT17DhFHJmkdFjzPaj17RcdILo3HeEWSVuQ8UnPDQiyXMySrXTiSTTNOGY75pFjVZDYUKkFAAgpWCBg/CoDsiEvDKCBcIZ+FNCUxGiCkZerchEa7cEHEPCe0UjPdWzmvSS0wLFk7QGZAFHjxmlDeeEsuMkw8EWx0QitBGmtlKLGYYECESNdIJHgqJTjztVzGgEvpkk6sKR+FVDrOklNeHqcgIEgTFCYaN1L3k1EyX3VjHBtWNEhsRUuuIx9qMCbPMCNnOqlcOIxeLZa9cFWhUzfue0dgJ9BzLsiHVMigcUU+JSb2/P7e9Per9v9li558ZFlKb4Xp/P4qUmxKQk5hcXSR4Peh4/V4Dh5OBq1FIhpUOaV+Sz3QcVhwHM+waly4SiuNPy2UvcpITl/N9f9uts1FepcqGDOENZhVNm+HTG+gY9NPNCxoXF+KXFCzdev0zv6BOc+FmqTdUTVLYXj91meSemyx6vihUXaSY7mFSspuQm5kQZDDmtJxTZrU5+vuxV/D0tZ/zutfpcXam2RVlqyyimS9xMtuSMyRE/9fQnvKjPnkr/+ex9Rxn7J7UTu6AAAItUlEQVR42jXQdVyaax8G8Bse8BEQEEQaGR0CigLODmxsZ3d3d8embrN7bczNuXLd3d1x1h2n+5y3z/tBd66/r+/v+tw3MDExMcGSsObmBAIBa2qBRpWsolDYeL5avdna2hovBmi0hampKdbcxMRkyZIlS8ACsDD2sVhTCxKQriLDEn6ce1tbWoNyHi8GSDSaZGFhSiCYLwgjMDcnmBOwFiQSiYRGldhK1AFtuqbAQylFyUo8BQUAQAK0hSmWYL4AzBdCMEWjpFIIoCiR6rSemA0ZCtaBr8dSkvlsMQoFQRAgWWAXJ4A5AYslEAgkiCyBYVjiEFAQf7NMwas5euTIk4MpDTg2k8lkiv+eMFkCsKamxkchyRK+A1/tXzV9fLWqMjHbpaZm/ZGowpQgHA6P51KgRWFiYgJMLUhoNImEkuA2u98am249jlBxEotdoqi8miNHnAurlMa/8mVCf28AEhoJABpQcJ7zcWOlk6UnVBxXfXRdjUymiVrvrO9N6+tr8I9T55MBaUEANEBBEAqSeM7PK4OKWo+rtDJLeXe3D1VGles1y25OFxT0xOiq3AdtUUaBBUgAkWEY7zmv7JrHN4wGqsLMcqJ/lGvk+oghV1fWrtGpmRfXr+9p9vNbZRSmAKAgMhcfyVd2dcHcgNgTWksf5/VHW1i8oaFh3jJXr8DVKhtjVjcviOsAQBAEUeBI5V5PsUTXi9HqV6be/ldqwrrE+notz9XSCoOwsbFBIGxs1vauQu1ca1xAAQDB8114sUPPjEpbsTL19u2EhAR9fbAqnBch4GBsVm+o9Wtai5hpWnVvLQAABQASBePm8XB/bKBWW3Hg6NsEqmzEqT7YRsGL4IRZIW4WBPgH6Jqv9zYdWguQSCQSjUZCXBw+X7fFTKYl+ny7MUFGpToN19tYJSoUAtqE34DSerO/u99UbdMegEYbARokcfmDsQczM83Ced90p1I71qwrfjlhIxAYBOmvivqscbhIh7zBvHz04huQSADBebrS3Zlr1nk/jX5+dGTNyIjm7NSJbYbQB4VFDUpra5wvV4L3FZMARIFhGAIMcb5f7IZwSzPLcK/c6Or1a0ZGXMenR4+fPXtnoE9pjcPNe+J9mWKGHaDAEjxOIkaR8+JnVFZWNBrNwMuJrqve5DobevHP1u1jyXu7rH3ZbM+uvZ5SYG8HmFwJ3tMTFtu6x59AILaNB9NEisSh4v37eKHjIeO/j6a839uFY5eXc5V7+UlGQIG5XDyOS873iz9hhaE9uFg/FyIaHt4WKkoPDQ351Lo95X0f382NyeQqHWyBvT0QUyhiigQmN/qtxYSGCtLHfz23zRDcvuMPkejDb3Ptl37fXtB2d7C/0Q2OzDuEsrcHKBQKoMgw7HCP1n4hWGCov/xoLkS04/Tn4JC/Pj8WhV7cMBUbExNfe6gxcrC3hIEEaCQSCcgwzN+T/uDCxVDa49On77eL7guF79rvX7kgEExMpL/cMhofG++XN1jbnAQAGrlzz04yzIxsHHx10TaDdub0qfO/nPtJKDx/Zsc5kYBGo9HSd78QvCyNrXKPib+XBNBIsBMiw2xf/t2mRreSwEenz58UnjxpBLPpopBKDm0iXYBBpH+aLI0tnWwqAUgkg+Hoxmb78vvd1W62zVeuPBQKhafO/PK/C0PFehZVSzOUhYeXfTVxtvTnjx+n7gEkg+7IjPT1xQVVjTWoz3268vDhSaHwH+3B44m5Pi0tsm2WrCxvb2+vMk7G2Z8/lroDBt3RkcvHewalTW9JS3786PJ5ofCk8J2ouPj7Y1tTUzO1VCrHzNu7wtuLyMk4vqUHMBwdyyXqzX1ptaOXHhQ+/u3yqXf3fzr1IYK16VhdampqakJLi7OPXJ6dm5vjbRmWMQPojuVs/t2GNt2lPy/Nzf3x6PKp4PbgYMWykRaX12+Pvq3r7n79PDpHr5fn7N+fW+FFBI7lbF+1rq1gpv7SjnbDh18vf74gGk6MYLWsdHn9n/++efPDN/u9ysrCw728KnJyc3MqQHk5GxcQ2zP9QnRuh0hk+HDl4fBsoqumZeXW9be73/zwIxGDQCAwGAzGimiWVZGTC8rZuDjd5GRpBs2QHlI5Hhp8Zm4Zy8l55datqRuf/1urQiC+AMxXREuzrE2AjQtKi53cEsipVNAqK4eGZ0MW+s7OK6ursxbrXxbCiGZmZlnAMyhZ17olg0PkcCorI/TFxXofH2dnH/mmfdFlX04vxMo4YARBySmdt54krKHKZDLZMnl29oGoqGy5XJ6dE4ZAIFQYq8Vowxb6Zl4gOe3r9deuXeugUqlUlpNz1D6XfTdqsrPlFRyVavWJwIwyIjEsLCyMuNi39AZPUq8ldHR0rGG56jVOTs4uG6tdbtyIyuZpV+9pGivo7Kx9tcsrnEi0NIZIDPcCCR0dmZmZmayIxCxXvbzmRvXGf7q4ROnDb8ZsP1w0UJRyuLOzdsPuXbsydgUGBgbObABUGUdgiGAtU7BY4Zrsmhsb6zZWu1TsnhrtLEoOcnBwyMsb7K+qqqqN6Ymv7dW5NwOOgCMwsFwVEVlZTj4+UdV1dd/ue1o42np4IM4NYiAZEIVCdovkq+P8A/yDghySgEwWZlA4aWZneXrNpgMudd3Hcp/Ft24//D6OjLS331kCOYrF4qtcNpMt4QcplW6AKiMaFBqndevWOW064HLsWPR3dwo6pw8PNKhtk6QlzaukdMerTGaJB93jKjOy338zKPSOqFTwNBqNXL4/Ovr7Z4U6d/+0sZSBZP84h3zbErq9vT3DgwszGHQPj6uNfu5AF1O4OyORxxsqfvrds8KDvf2NtvlxAQEB/nFqvkS6wm758qXL7eh4+goGne7hYXsINPanFPRMHbxz5+CtW23ueflu5CSyW35+vhtF7LHC3mL50qVLly5fAdPtFoRUCpJsHfwD0tqKigaS+zbzJTCFIpVSpFIpQNvZGc8vxG6Fnd2CoNP/D+CG55rNAgrpAAAAAElFTkSuQmCC;" vertex="1" parent="1">
          <mxGeometry x="282" y="170" width="48" height="48" as="geometry" />
        </mxCell>
        <mxCell id="go8BSAw1Lf1Zyd6wWskr-4" value="" style="shape=image;verticalLabelPosition=bottom;labelBackgroundColor=default;verticalAlign=top;aspect=fixed;imageAspect=0;image=data:image/png,iVBORw0KGgoAAAANSUhEUgAAADAAAAAwCAMAAABg3Am1AAADAFBMVEUMEBcVHy45IEEcHzcUFikPFyIYGjI0KDMQESAMGxwgJUBDIks+IEcuGzASGig4Lj5ALUg7Jkk1IDMLFBkbJjUxGzlDKTwQHyIrJSk3UmIXIjAlGypZa1s1HUIhHUJdNG0uLjUnISc1P3BDNEQ9WHpGcJwgMTsgK0AlMUovOE8pJlQiWkYwQ1lqTG9AZnszKD8lK0oqMFRecWAYQDEiOy5CJ042SGsxHykiGCE9XoIfHiIxPk40JSxJJVBTMGJVLFw1M0hMMVVtI1hoXXVBXncxNWotO1xLaJMnMSw4P0BebXcSJSUYNihNKVYWSzdVOVdWUGUmPlAmJi5ieV9aZHdFTE8kFCo3VnMwIzg7SXpEbmtOncJOk8FU1uNTKVFSSFtqe4ReQGNNRFJkU25RhqAuHCE7aY4WMSRWo7RTYFYkRjNKwOAYLDAqOEYqR1ckGS84TV8dFCFNV2ZxZXQqM2FgX2NTeqdJYpFUhbVEaplJpstDgbBb6+tMsM0zNTkkQD9UyeM+h4lt+/pT2/JGmpddMlNNNkx3JGdkLEd4LV9bS2iJRINGO1FnQHJEWYxKychNfI9BYIklUDhNoNkeKx5CdIlidZUmYkhD8flJsbIgUUYhOD4vS1hgJklfPmxeX21ScoiFPHN4VXRhRWlbj61EjKw3SkJSPmBizPlHWko6T4BiyNlq8OhkuN5NuPE/YWRQsOMrhGZElaw+knAqbGIhdFZnOVI8RE99K3Zdi4lehI9BP0dilZ9vhmx+Mm6OdYtvN2piaopzk3NQUW5OVVNDe6RloJlE5vtYjcZNq7xr19dWtqg/fmwkbE9ldHpZR3BcmrRlXI+PV4mHO36UY5FgSld55Oo7usNKmMxYuM9y0r+E9u1m0ulhqNs1qKUtdG834PAqX1xKkZdNu7+MRXGCpntZf3dO4+E76OJgmdKIo41B0tZcdbtbpMdWWVpXV4Nh5tp9jIw6YEphgslXZl1GoH1IpqiQNHdsrNaAt5xjaKxQlrFJeLA3//2EZXRvmY9FBvbgAAAI3klEQVR42k3RdVCb6RYG8C9fDOIJ8YS4kpCEkBAkOCG4U9zdneJepFC8WGmpUHd3d3f3dn3b7rbrdvdO6Myde/5+fs8577wAjRYcTKNZW1vjmBIZCkWGQqEIBIfD4diN5C+Pi5QUk5k4y0AsGWtra4AWHFxcHEyj0ZhMqVwqRUGhUJT/+aTkpMu/tjeL45QlEjITgUBApGTaQi8QHFwskVh6yGSpXKbRoFAalz1FnZ1vX86E7UkWx81GWkoQUHkJZOESoLhYsmJF6wqJVCKTKf0dHBwcnC5/P/Riv2Lm9ei+sUYRo1Tm4O8AlZYrIRCatY0NsKK1tXSWMVuqVDo5xSX4O5Wr3nS9DAt7rQgZDwvb80gsYojM5sUMhp8SCsHBbWyA1tJShsjPz0UkchkZGVFl53eNOuaFjOsUYY4Kx327GnOHb9WJV6/2U2pQzAUgdzKbzeZ6sVhcmz1/K78rsSVAoXAMaVXMhOlCHC831G3/vXaxSuXkYIeC4uBwG0A0rMq+Nb98+NaxI8OrK/GGnJwceuHOlztnCh3H8/Jep7Rt+tbs4ufnVG1nx0Hg4HAg242Pj91QuCG2m3q0UkgyGAwkoxEZKzTydZOTo7q3HZvqBl3MZoHJAmA4ODDMQrI/FY5uFoJqRiWBQLWMUJiZSSXRAwLGXbs6UhpHzLW1AlO1yQ4Bg8GARFfd3l8SC45iSUJVzMbwJamp4RGZmWndIAhisVjjhh+bkhpr6+qcBKZBEwcBgwEXAkYVG4TdJCxFfzYmYt26VavmgtLSBggYELSlYPHGxG0pDclJyYMCwWCCHQeKADbrCuk5VO9QWyza4+bZyqysrKC5iHBvbz0GBEEKFo+81pTS/P69OEEgEJjsOAggQBdgIFG8PTxAjCf3Zoyvb9CNiIjw8LRQNAaDAUlYPHJn09ePH2eLBCaTSaBBADqdkUSiED24HrahnjdjqoKO+GZFZGRFeIe6u6PRGJCEp1amNKXki7eYTAlmOygQEoBUk0BbvQfXHe25NOb2X+n29r6+N2o8PT0sBkMi4amB001b580JW+pqHThASBQSrwaJoAeXq/deenv+ctU6+5jTR2o8PcPTvFPRaJBEIlCNiUNtj99vf16XUA3k8fFeXmoiiPZYldF9+9ui9LXL7H1PH1vqseS+tpu6cBSJSs3ZsK9r67PtyfVbLEDu5mWLsdWvss+61JlfZb/M3jf7WAY3/P5X4amfn4FFImfCwhS7X0xPdwHjfLX8IBFjq9ff9P1z09b0tcuW2QcNTZziZtQcPuCZ+nkFtmWfIiRs/+T+3bsBV3q8l5xIRBO9l/654+Jhy4K5h0P2XG7GjcNLPgMKBWucLCy8rhi/vnu/BeC9iEQ9Me322MWtc/Zr7auyvzm2jMtdejh9iWeqOxpj+XHD6PVCxeT+3fvDAD4r3ktOIBIJG7/tfHDMNyOrauLxVPopbsbc1fQlqaHuGFtbWwqWPqnQXd+7V6ELARIZfC83LwJR+MOOjgsxWevS0i89e+LL5S6NGbIAtCVPoWBHd+/95XpISOs+wP/WcrWXnEAQvtt0JXbjzXVzE8+3fbTnrvJd/XV6uDsaQ1lkq9cTQddP13R5rS1uXQBK9ewwHo/HD7zrbMd7b8ya+KnzSdWyVesi9nxzgwqC4CIQ1BPUWGfXcV1gIGN6D4CKK3p6GInHD/z0fTmRsDHop6KOP+5v9CacLfrmA5UYGkrRg2WsCrhrwIbNBefepLgAKNHYg6dfIZEDjx4KCcS0iV1TT88IKeoB86vvMwmhnhQiyKqARQVuZkdrfw4Kyq8GOE6NY88eBBmFY+upBELlpVdTD9iEeC/G36+GIro93MvKKlxbNkcfP/PlGfbPH2reKgFEdb1L/fanXwkf5SIJhLNjUx1PCjZ/2ul36WJzWri+rCIq8OdorTY6OprN1rI/dKkAiGaLIKF267YLj8uNavzZXVMdV69du7Z88djUo4H4Mt656OPR7AI2mx2tPXcUycLuBILJTgLBYN2zjhQ3Qzzy7I5/mq7uTSz3E++4eB7ZUnD8zHEtW6vVagsCoxYtYrGcGUBwsNzBlLA4advXJdh45A87/pn+ZW/gQdW7TbtEBWe+/PJ4jVarZcfyWAtxltt6gCZZIXOwsxO3TbUbSMgfdrzaNxmAZORe2lR75LvvTt49caqAfY5XtsjAd1ap/NYnLwdwZLLU358jaLj4IxtrPL3rxYyCjyzNff584uPJNYf679z50MIqY7Gco+KSGpLPiyIBOBwilfnLHdZ3Nl1pMZze1e7YauDN5m6fP732RP+9k/f61WUs5wrJ8qSk8/Uj5bMLAIWSKuXitpSOq8aJ7S8dA4w8xvnfYzLX3Dl58k7/oXjnCkl2c7I4N6581s1NAsDhODKEHClzaW5L2Za4uu21Iw/JY6yfn4vNuHevv/9un3PUcPP63BFR3KySoSwhWwAEUpKodGosath6Zb5oxjEKyZvNXl0Te7T/7t01fb2B0/m5Li5+cYzSErkMAVsATFmkDLWlKLnxyo8PHVuj6LxSVeW52MBDh06cOJD5JN9F5KfaWRmR6YWCImCAFRyHI0dGSjl2Rcn1fzU9zHPk03mRjNiDsbyenr6+72ouDIuCYtZ+8cUXB7rVCJgVAABwHA7CZEI5zY8W17dN5+n4dGlk+dFA3qJDPX19fxwIunCkas1vv60ZkEKhnwGOCbEMVPz34pHmF3kBfDo58mAgsiL+hI9P7wGfU2vX9PT19fbyoAgEbAEUS5hMJhOCShgcHGwYanXl06PcDiJZLNIpH5+VK316enxSCXi15X64lZUFWDOZEAiTSfYXJGxJ6rzawqdHlSANrIrE/6zs7e316VkpLJHJ/VEwSx4OAwAbGg0Hh0OYZJnGzpTU8Lbdmc+kG3Ny2rd9vM9e4uOTqkZpHDSyz/1WMAAAbGxsbAAbHISJQyDEjXG/rnB1pRvoby6/+TdTI1yJhqI0SicNzOrzOf83FmZVnVutand1zeH9ukek9NdwUPFQGIIJhcD+F/4vJqwM4zMEsS8AAAAASUVORK5CYII=;" vertex="1" parent="1">
          <mxGeometry x="322" y="218" width="48" height="48" as="geometry" />
        </mxCell>
        <mxCell id="go8BSAw1Lf1Zyd6wWskr-5" value="" style="shape=image;verticalLabelPosition=bottom;labelBackgroundColor=default;verticalAlign=top;aspect=fixed;imageAspect=0;image=data:image/png,iVBORw0KGgoAAAANSUhEUgAAADAAAAAwCAMAAABg3Am1AAADAFBMVEUjARk4EQdDFwdUIgs+FAY/EAQpAxloMA04IAUtDQZOGgVEEgQ1DQRXHQgpFgFoKghiJQZ3KAsPHwosGQkWLgtfIQZeGgVhKgs8DQRJFQRYJgpwLQicTgudOAtSFAZxNApOIAs0HAP5xS+oWRafRgq0ZBr96EyKLQr77F01BhhvGw+vfCTYcBI9CBd8OxAPJgn83DluJQdICxY9JwgiRxRKKge+bSNBIQeURxGdVBW1TArqtC/+8l3DXg3BRwr410H4syKPPxOYYBqDNAV8LwpZNQp6Hw2rSAiEPxKJTCB9NQ37gxUpCQNUDROTQAeqbiD/9XSSMgqDJAzBbA+YIQb80TnQOQaYKwrwlB71zi+kLguDGAt0OQuKOA7+8WwdQBIWNw2wVRu2WAvDZQ7//UqtYgvqxjq9q0DxSQjdRgy8NwbRTw5cKxX9/On5piV6SBFlEw9RPRLSgCmgPhK6hCTlaRHgjhrMdgv54k/bhhS8lyqLQw6aWyNqPw9DMg7mnSFbaigKXiZAVxdyIArTjDTqhxfcYBDnfRH3cRDipjDjlRutQAvtPAXkoxDaVQ1EgiT7mx/9riHRfRCQUzEvOxaGRReinDrPdiSPijHAuUeQOQO2sUF6WyDbfB+cbCEMjzcjURZ2gyridhbGUgy5jyaqqkBlSBPjpEr31xKnJwj5jBXOmCX+4zH/+WD++nnEehzLix3uwBf8UAn+kxTVoiPmxHJSkC/8aBJlWB+YmDiOVhrNYRgJfCyygjrXlCgwYBerkTbZrTOSdi0Rqkb/9kr/8T7prR6/pDTkUg33fQ2uNg/buDnZunn9+r/imQ305sAwsW+qTR9sczV8aSMIbygXmUYmJBU5z24kazfBl07yvT7qXQ7RaAlrmzrdulnnsg/sy1v/+Iz0ohT59Nnt3az47q+ihiqIqUT77X4bhzno0EovdiDwyxbu0X/e14D//6D056Cr3I42KRn1y0XQhDGV9LayJAXy1Wf41Gzkyp3UmVvJx1GY0VjRkTpa6adgrzL8Sb0aAAAI60lEQVR42i3RVVxU2xfA8X3OnGG6u5limCCHhqG7uxvp7hBpkE6xE7sV7O7u1mt36+38x2f0rpf98vuu9bABAABYpKTYAgAY925fu9Y+8r89q06cmJhongiamJgIKlGrLSwsbG1tNRu/Rd/GIkwNALhz7e5/f72258d/1ubnH54o4ZuaolB8TCrG1JZEEtuGaSrU32sTk+8v49rdkyff7fnnx89/H1taYmrMv08JKmhOZQve9t8OqP8V9+6uOPRhZOTR3/nrTE1R/JKSEg6Hz+ejUKaO+260ddy503Zj3vcDJkZhwrh378NRu5Vti/L9pDAKI5FIJKmpEgyHwzGVLn3z5hE948df776jG4FabQJMLH5audLOLrNjyTF7KdaUgyk/4L3cO2j27MlASwx23do3j5jMFSdP3m6nAxMLWwsTE4uf7JiZGXYda7/11AP3DzvENG4+qxU6y+WT+pb5q0ZW0ttXrDjUbgcswmzVJmqYyWTa2bUtea3HYh0xhy81L3bRndl5/PF9bUxMrh924f6jI3aZtw4dunULhIWpTdRhjsb9bYtO2GOxjqmHXzbTFrt0bzi97f3ni7vqt8/B3lzSsWcPPbP90Ip3IMzCRB1GmpfBzLyx6CYWi9VjlC8vqaKqDUMbtmw1+/zqY119EHbdkrY9Ixl05q2Tt4Gt2rZC08K0mrcwf59UirXHOHW9uC9aHPDwys4NWzY8feHx5GGuvmX+wkcfRjKtVq64DSzCUlIwVvSOtccqsfrKdd7OuX2lfxVFucytqx/a8PFpqcfOnFx7/c21q44ezchktreDipTYwDvzVq1dimVIK19fvLhru2vpn+4Dipx6ee6OzZ9Kk54YlH6OlfmrOo5mZNCt7EBKlFNl2/yFLQwyA+u3PG/bs807X5V2uSgUQqGTUHv1sudQdky5Xn9ifsfKzEwrOh1UN3vv379PTyYbQXmT+ZfHuzxKX/ylzN212Tniz9I/nucE5B7ww65bdCODyWRa0YGz/NhSPUPq6IclS+3XaRu25QmvPH1R+vLS7t2XXpZ+fTLXpaYmYqm9fuEiO6aVEVzPuk6BGI5BDuVkhqNfhEfelXHheNnuq1evXn319elQ4+rd6e+X+2GlLfn759G/gevRFSwYwjhb8snSOTVH6hvHnYUBD3VVXX0Xn1wxuOx+1rBmjiODTK5ctJBpZWUFqjsrfJ0nYQiFocBzIpqdY+oVQ0k75EqhKEAZIMquexZ5vNxeSiaTyZVL9s+j04Gmwrc5whsFQXhOUHNqqjAmPMZTdmb95UsONTEDjR/P/G48kGppFC3zl+yzAhU05witloImcpwtORiJMFzRnfh8/NPlx64bksYbPfuPHI+Y44jhh5IZDIb+5vxVQJPmra3RUnhiSiCVSpEESxxycgxVry7vct2ZNGTIyZZ7l/vx+ZTwbKG9lEHW7wMaL+HyNctZPH+0IJjKEaBmCxUKl/WXv+7wvDLUH64Id5ptKfEV+ATodIH2WCmDATS+tMk1QWIul8uzxHBIlGCv8IDsT192j4/V58T4hPv4BOPxNjSbxdlCDN8eK9UDTaf/gdd8AprAI6AsUSgKReC72OHtl/vZ49kKhaWvr0DCpwbQSHgYgvmm9uUHgEYTfHgpj0WjsdFoFIqKZ7FsfLrevo1QOKX5pC2mCigcDIWEIBCEcPh+3sJg0ElbrpWIBlRsLpfICyTx8CSW1/o/Hof7+PiI3NNQFCqfj0EgCIL4FM4JebQ/8IrQZvWspvLQXG4oKRDm8fAk+foH/xHYqAy1aRQqRYCRlJsiEA4Opng3Ofn7g+3bH/YeJMEwDCNcziTMxvMoDuvXy2nKxE0isUBCDcZgSiyz8Dh+eGDNWa1XNFg2FVJLRfBUGxaeiwlCYBjGOPxSpby4pV/EFjhheCQYJlK9WIgg3Flbs2aNFmya6U1GUCoVCUFCLQPRBAS2VDocdP3Zm8Wz8REQQ4lEtE1ObRRC8RGJqgOUZ8HMpoIEaoIKxiFE3KQEQhB8oLO8+KAvgUeisbihRC6B1jPlBOHw1KiEhGTlWRByfjA+Pp6Fw0FEJJDvz0Oos52cRGwCAc9mo4niaIhNs0FwOAiPqk5OzmrKB5vODxYMFsI4IiQUBPN4CCzwmu3FQhMIbA2PSOQSITwehnA4HGxafSGrKb8JjM0UFAwOwzgcxCcJ0GgEH+zllUZCo8X+nWguGk0gkfCIESD46oO/nG2SA2vPHwYL6lAQhAu1YaHRCDUtLc2XRVMlqNhiNrvTBo9ARgAheIfEzU1ZCeCUrHe6YNSJgA4l2uAhApvmpFDGGAKiVCKX1e6iKJbxk2EoFKLId2xekyVKBm5JIQWDhcXRYhyvkx2dHFBz3LVPqZDXJ86c73ERsYkEHlEiZ4sDlZPeO7IuXHABkQ07z0/Hx26MTYndGH9u7u/meUe278iz3vLc4CsmoNEEDTe11bOqbjsHTpUPuBscwLNtbnFltUUJ1Ya53WU/b0s/vivPfNbpMoOqIozLFfvHiimJsjjPCBgHU10O6hYsAJGRkZFuHmWesjjrU1sjt5m/N99qJtNFpSQUxRe5r46P5RnOz03MJeIQ3+ypZQuqqkCDh+uDB66J/f0eZh4NbpFuW93iut2jE4oTn4+NzdRGi9nJyUVzc2HaQG33smVVXUrQ2l/bMzxcXOQui5OZuW11M/McTuiMvuA+JbMeq40Vo8X+sUUhU8WF5+rqqo50Kb2A+1T3lE6nq3sQF2fu5ubWkDjg30lTxcYWJ1lvKtzIFmuifzs32nuucLjPta/L4Xoa+C2+trv1jKsszsM83dzMY/RccvKFomJ3ncxsy+j04MaN8UWFISE/FBYuy8s7skCpUAH31Tpdv8za2rrhGyjbuzdkzFNmffrUqdNbyvYWFExPh4z2DhfrXPP6FjhkiVSg74zMw9rMzNw8PT3d3KwhbjSkTCazPjVr1qxZp63L9k7vHR3b1NOzrNXVtcrgIlLRQFKScXdkZGS6uZmZLLGnOL5wuDHJ2MfNhPTuDfFM8uztaWxtbW00DET50mz+DzoX/Y8xrn8oAAAAAElFTkSuQmCC;" vertex="1" parent="1">
          <mxGeometry x="408" y="218" width="48" height="48" as="geometry" />
        </mxCell>
        <mxCell id="go8BSAw1Lf1Zyd6wWskr-6" value="" style="shape=image;verticalLabelPosition=bottom;labelBackgroundColor=default;verticalAlign=top;aspect=fixed;imageAspect=0;image=data:image/png,iVBORw0KGgoAAAANSUhEUgAAADAAAAAwCAMAAABg3Am1AAADAFBMVEUPLCkGDUD//9L//8f//8wxSEb//bMMFEseKTpCVVIKF1T//8D//9kVPsD/+7kJEUX//+IOJSkXMC3//7r/+q44TEv+8qwPECUaNTMoPj3/8Zw8UE07Sz8VGi0yPksaNqUvRD0sMo0gOjj95IkkMUAWIDVSVUAQHF//+KP0s0a/dzVxKij66az/97bopycVObOFdUvtnyv52nBoLjTcjTz93lryvT+mRhfCYB387XEXKXs7HTv//MMfG04ZMZf/+MB+NSj/9pb+6pqwWSCWNRT502xVMFRGSjFKX1olNE4IHSVYJjLCazQfN0KKOiL73Hvuwn/yuVOkUhv7z135xjr2wlWoVC//+s3xriuZSTDfjhz96Y2GQDh5j5MqPzBDU0P//tEzGDTVZyhMW06PQSP+53+EJA3/9YTu0Zbts2R4QVi0ZBjtqUR3WGv0tSz74XPJcRnegxhMJUJdKkw9Jk374pj60Ej83ohteneZiFZcHSPhdCTmhTEmIllPGidjPWzKqGj/8I7v4KlsFxW0XTadRx24VRIzUK//87vslx/IaBEzRFlUZWT///D/88knFz73w26aJgYdJGndl0I3LXBeam305MX45aBBVWX1zGDLfBnsvGvQfyj5yEvzznqya1MRKolnZEL//6z94rRFSZDQhkPjyYT+7bxgXkYuP5axm2zwyX2dcDTPtXaxbS7LpYfjt3Pko1j304hBMSTZn0N6Jh+wSwnQjjZIM24sPKmcWUOdPRTemCzdojHCinCQMTFxWjOxgUrAZiMsQ56JS0f62lHVlCTFgT6TUT06ODzz2ZewPAqUXy/muT3AklbCn1zThyhTOjFuNklDM3bPvYmuNQljSXHu1KZVP4wzVFjdfC7csWstDiDIVRVKV6fLmE+5Qj25yMb316vuyqpQaIAzS2UwIB14hnv/+d9QYGbMVTVzVTaUQVqarqtwPjlVTkzaWxXSeRDqqWTdtIyDn6vb8ezfzqLcl1dmcmmMWlSguLrM5uG3cyNmfIuVoZM3LT3098OOAAAI9ElEQVR42jXWY3Sc6xoG4DffN1YmGWY8GWYU27Zt225st7FZm6nTJrVtG3vvdts856xp93n+vWtd9/2s9fx6gY1Nhj1aVze19mDH6YCooKw2e2WH++mAgN27wzyCRu22PXz49ePI6srQOovQ8OCJynlgY5Ngj0aj0Y72/hn5CkWHR+2AvTIjTHFh0+ES6yNOX39IqzOdmuj2HKxWd4/verEIbGxcHHE4HE7WUOaSP5Ibosgqkzn6u7hv+m3fyIe8pg/1RpFTIucUdXd/znYT6fZuYHM6qAEnkzWYd+RPH1gUzbtn+dvZOQmjLPbl5qa9fFlnxKLT1VB0666adenSrQ9eg9OKoAacvdK6ZDlyyix46vCxrIa1fKLxRdPckMG6l2mm1QQyeUvODZOt6enp0hrVDGjfd7FMGTatiTSLjzc7XnLIw99urTGReLYgJGexPi0uspuwYW/NumRsuk9y8ta7/YPAZe9V6zijqeDqYpGbSHPIpcJurRORSMwz2rBBZBVjtOV1s4mUxsZifbA0qUkrWQVcml8cN/IMnrKKsYqnh58P8lrrZPwp0L/FLTNTteGUlIaksbE+bCRbWhPtXA0uHLAYKbDSxPXa9Myx3KzyXYRaT2wK7e93dnb4sjkZy0bSsD5IAZK99a5DsBWwsDhvGlfSaZ2RURKRqQ7WWDcRiUeFTbFG9GiIvGaXFMtGImlYgaEBEmvSGh9qAWZvTocl3PY6cscrVmNJV0f8cCwvweNemsUOZziF/KuUjaUhkUgDpqEBMn17tKfFAsjPMPcaHb0jdBLeno6Ih91iOq9Yt+9lUWEHhzXj69jaBQJDJtPQgL1uMxwaUAjMyxqGvRJi7/D5d6JiLNUI0c3ZmcodIhLFYc24iQCLxdIETH19pqEg3USlLlh4DhwdKxLcD/csCYlH8x7PiZypZvETe154klDkcRNvNhvrQ2PqawMc6Q1nUf0fXaDi2781ltmWPUtHiQ9tYsIrSRTW9uc3PSmEL69zkDTsVz5M8GlB8tbNCM+Swi7QMT3n6prt6mk6G9D+rC4mnEViXS/UxENrmr2RSPbq1UwAgD4ziZO8UwVHtt8/AzzyQ+P33ZxvCQ6fKzKN67HKpFKNFEXOa36SInm01asM9ADQ109KTpY+iSYVRN0/Axo9FIePHbTOZZFI8szwKssWPKnYNJL8YB1HQBv75IG+IYezbjOif7D04sZtwNHfw8P8SPnZF25UVottsa0riUKvpk+YcJD/9mu9wKQVT88t7U3YuA3IZGXKO03PomIVi662trbZchIedpio4SCRq7/41wu8a+gIqmdp+9n7G7eBioph4dGonqkDAQEhLbbZcgp9cLCyxpsjWJ1o4Kf1SQLvZhQezixyb3redcYOfHvWi//we6Ns6pYdocGucpRb6O6TOzkczu+Jn/uTBCfvUlAUlKVp7POuM6MVYCn3el5sXaY8hUCRy6lU1qmr3wUGYn2++I/hZ88xuUxBofDyc6V5XV1eLkGguZr1JC1yPUwg4FEo6vrNtyQYnmDVF98Y6mkPmuRdo6KgUCgSq6rkfte2hOs3wJOblbCbfD2BAOFJKNT6G5fEktVjY69ofp/9djUFhaLGi1rm3Dd2Hdk9sxcowmYgCEUhQHgUChVspODRuOmvVmG1npkk3UXCo6is4qriFqswr9snDhcowMXbC91kAgTBeAolOH//fvGqSczYVxI9wEzyPnkXglHyzHMREZktMdYdp2fnNg2B20e//hFBQLRub25VHfDmSsQ//zUp8eVhmEjvnb8SYHWLZcTxuAhRi9V5TWT4fKw/EDZ9H4qH6B/fv9+/f/8lHlfS92eihBGY7nPpYw4hhW5WtVxiM1vlRheZWR24sGQuA3nf98Tjoc37DfR4GK54FY/LxXz1yM9P/7tvT0VDzmZFF5byYqerRBPqEOustkZ7HKgz9aQSELtu8SS8STEm8Zs+LgNDQxoEKvd8SU5xK1IUnuGX50fE7ECEHGsb0NFBAyMz1xQIsfkk2xezKtG3L3ESw2DoGXJunRhfQ04xMy00JvLLw+JK4+bVue5Kho4uKG6hQgi4cuc/bzFjvyT6YniBYj8/TMLKGwKZ7BxxeCPRmO/V+UNHWOkgaUfAsVQdkO2KQMAI0kjiq7e+f/7yFsPFBIq5jSsQAiKTVUWnjhob849kZJgrg3oL6BMWh8xBtgMEw92Lx03+evXO9+fER8xAPf+EhdewNlCtKTQ2NuYLy8u9vMpdOkcud+/rBHII4YDIVXy8lPjLz74YH59HhnoJG2AYhiACufp4ofHGbXy+UCg8Uq480Wmhct4L8BACARWcDJRI/vlmzNcv8BFN7N9KocIOajpZtVxYWLqTz3cSmkdd+G1vyCKdPgFgKLpyx9VL78QMLu/3sUA/PYykNse12Cw8dIq8ZXl3XEHPH0780Sz3xW5Va86T66dACiHn76sYru8khsH979Z0Az0uY0FuqYn7odeI0K85Xqn2LG1yEo4ebP9RdXl3VlsbSCHM3JL0+TL6JjG1BxsxYi6DsSfbqrfD5VBBdPS8G4lEinQfXbvWrtxj0+WQJXtHsGVm0yWJ+K2YK05NeLBy1v/pU/N5y+kgOydrU2dyijxYTnKbNR8etrNrUC78uC92AITs5PWJGZhJydO2JZjQ/2bPnhxbzbEyJyePnuputdkBCxVpJqyiQSaTocvaLR53gF3fcbnvuAxGY/seFR5GQAi8a1XnwYoyO2XJ8rVry4eGAnIuz5o3OOJwaB37qPrHoPk9Q8Lr4z5t+wkBwzCMp1Bti3o7rwwNlw3du3LIemjoXkDISKy9Iw6N1tVJjaoHN95j+nheLhdXHiAQWo/KtjwXYdqbNTzsaN9Y25ZVYX5l04iN/wBaG9BJjQIrt97x/E+8cWBVedIRMAXlanvu2s2wg40yGQ6H09VF42Qez+rTPFLRaF1dHR2dAbBy4sTLhZ8oxVVFMUVTLLmt5bXzYcraVO33A62rq00or9TVd9Zq+7UDxt+8Hk+BbS2tnvVqYubOXTufH1SbOqCF/yep99Lq04YG/n39D8fhH433OJx1AAAAAElFTkSuQmCC;" vertex="1" parent="1">
          <mxGeometry x="196" y="218" width="48" height="48" as="geometry" />
        </mxCell>
        <mxCell id="go8BSAw1Lf1Zyd6wWskr-7" value="" style="shape=image;verticalLabelPosition=bottom;labelBackgroundColor=default;verticalAlign=top;aspect=fixed;imageAspect=0;image=data:image/png,iVBORw0KGgoAAAANSUhEUgAAADAAAAAwCAMAAABg3Am1AAADAFBMVEUnLyItQTAlKR4wOikZGxU2Pix3hGY/QSweIhpLVjsdJhviSB8aLyNcaUx2fF1FJxFkbVA1RjUuNCRoc1VBRi/ONBghNyhEUTqoJRFXZUflUyj6bzPtWSn5fTiMlXSyrIZXLhaIGgu3HxZASzNqel1DHg8wIBENGBBSWDz9Zy+ZGw93Gw8clpGKJRzsZzWTooE4JxYaT0+Ag2JXYEWwsYxfb1VPXD98iG9ITTXVKQ6anXr8jT+DkHC3KxjKxZ1oMBvANSNfOCTdQhwtTT6mFwrFHxKTLhvXTCyMhmNRUjsZQkCjo33xdUGfMR6wEhPob0CXJBGw6uchoJmOm3i5uI5tEgbEMDAoo561gWRFfXeLcV2eLjTvXziYX02rPik3Wk87Lx9cJxFxdFf6YDPcORyXmHVfEgWFjGnDLBLMu5H3aD7LRSVYv7zKVjagp4XZLjXTN0PP0aVAOCeD1tEROzZgx8TnTiDVPR39hD3+qDz/4k7fVjbDSy/7nEA+rKibJB/1iUPjRlpREAulronAuphLYEjIsoyDTzeb19SJQztnq6AvFgua4d5IoJiIzscwioVfZEdit670UCFaW0L8pUsdaGX9vE/ERDvaYDv6gU1CtK+nRkZYQzEYW1kxaFvuRSPkMRf/yE7/9F/sOTK3Nhz7Tzz4ek8yrqpza1CMUUurJSvKy6DbUFCPChBxy8dqm5ghDwuZknISIBL7sGHpelMdhH1mlId0vbtNj4UOi4b/tUD+5YL6r0vMJTPX3rP9um7oWGtjgXb5OU9mTzrTZFbxlE+QOyuvLjaiinB5kX4ccmVFZlLRcEpTOSi88e9/uK9mj4+yYEWDq6f//ZTFTFDePDHU2Kt6WkmDZ1GPemb4kFrxpGEqdW56Ix//0n+u4eB1PyOPuLLNjZb/z0SPi2/81Fj//9FuZEYxAwOykW//3Ii6VDvX2a+wonyDn5LUhG3zUFcata42x8NQb1qsdFLLeICvWl2dxMDyZmRxlnMr3+Hi6MX/8JGJqH5q7eme6enJ43qPAAAJBElEQVR42hWQU3gcaANGv7FtezLIKMlkYruxbdu20dgNaju1bdtYtLvbtfHzybl+z8V7QGRcpPUq22vWRvxv3Bt+9G7E2pEEKBamInNkAMEh/NB/7NivKJT5z+M3p6enp0Fca2trXGRk5Kow6I29EBFx72gCEwrD0Ih5SFsAMJwb/f0X6A4owmeDCQkJCSBuXXFx8brt29ftGzkOAcvHb2ECf2XCHGRki6FLSMPArTAY+Z837FWBdIcbn+2/fx9Yt+6rqtpXU1yzbhkgKEwoQPWkAQ4LI4+ysxOSZStoe+ILJIdAmFQ50M2fPbwPTsQV979bu7Zq2NsdwqT2uMjpHBZCjuFYDF1dRJaM7HLwx3g5hyUnj00G0lk/PAQnrNdVRdyNGKxGe6RSbhgMQgd7OcKWQ7AYhEiiS2lpTsnheCSSzJHTxiYxdNQFcGK1z91BJoBdrbv9zFOxSLBHIs1mMzLPxim66+D11LmX8QZhXiZBThtTYWQocOJEXHHVOJNJwO901d/edU373MUiNETl2UTZfZ9ydSHV49DLP3Z8GWVDJJtpBBXGAVhHxhXvS1sxc+g72/LbL14sT3omNHQZorq+TwnxaPLIb38b1nFtIDEKSSQQkDR7DGhtbd03vMKS0xb2tEnLLl78aU+bX8r1b+IfsF358/N6/aG3yec7ynf1rRoYM5IAaoprqryxfxMH/toTe6bs4hMPj1kPRrZ/c5G/WiAQOAuuXNFf3lNefq0vykK0RZiRoL9/7aBVz3/6zv9UXla2ebNHeLhkdmtwsn5e4Ozc0jA1c7r98OHbseUdSc+iiDQMrAe8i4hYtvo78dpPT8o2b968ga3V6sK2zYXNC5xbGk42Ns60tBy6UjIbe6ZD91UejQOjgqqIETz++reXDz/ZvHXrk/XsmJjZuW/DBLz6loaTGz98OPfp1On6ptjYMx2z7gFEWxYWjFeN30k5PP/qCmNr1nqPOk2utjk1jMfj1U+dPNkwc+rjx3/P1PO4ZWUd5988D7DFwEDcD5eTCwuT/Rkbtm7NdpXE5OaG6NVqNa9+asp546ZHHx+dOvXpUH1yWcf5pEultio6sB6/oZNqwl0ZvvnZrmxtZ26uXp2lVvPap6ZOb2p89GjTxtMbP306t63jfNJiNEElA0eKh1feSPfmxmhj2OHhMbnaq8lZWWpevWDm9IfGxk2bNrXUcsPaXx16+VfSooGskoHR8cEV/OKZ0JhOLVvDlsT4lXDVWergsPYr7TNfNDY2bhQ4Ojo6Mjya5txtiGP2DmD42Agez1SUhebuinXdosstKWkuLAwOm3+pb285ufGLL2amcBs2OEpdZwcS82hj9jBwbCQibUVm1J3ZKy3XFGk75+aag4PDgoOD+YL2loaGhoZzekdpaOzjlBwhkWyLQID+iP5bWIptp2+oNJZdotPqC0vCmvR6PZ/LEzg7O9cLnAV17JCriWsOBhAzyUgheBdxj4kHPemaUOmeJ/4husJt/v7JfD6fy+UJBAKeWq3O4vt5qgIOfvllTqnBxQxG3j20AnhIoE4jLc9m+Plt21bUxK+t5eO4PB6P51zPn5jw/y3TPmCNyK7UhcbBgOF996ywMPxkUsm1Xa6u4br5uSI+DlfLr8Wp+VzeubfJ64viRTnk0m47pzwi2X416wjTisl0L3nlsautLdwvuJmLw+FwE9zsrLp8bvvbw0Xxou97u7tFa5zyMllUKjgyfg9rhfUsCmZIH+va/Pyam3FeXl64CX42zlWTzz/06navqNut207ktAMFparMYPTYPat0sf8EW6JL0oWE+4X4e9UxGF61ExOObInEVX+uN9rNrTtaFOD5tZHsguwBw8csxoFmDz93z507/ULCQ5q4Xox8hhdu/fpaX1c2m3271213d7copfPrSaFFfssb7A/sVLwXw/EQpmzHQptO0pSMq2N44eqyN6znZm95k5r6Y4Wbm2ggpjOx9KtLtre8wZ0hsJTuqTgAY7ECUtokkqLC1dNeDEdHR69kRsqOgIKKClHS3ozrdjTPPlIlAijAuhq85/sDQxAKOTFpr2ZLYVYtLpuR7+vr6+g7WyASfXe2N2mv9qCdZVHsaTSSwNDyf9d6G9MPfG2ksBIX9oZKC7Nw2Y6+UqlU6hsa71ZQcXb3QuibF11C2qInmhkEBYrjNSNHlUMHDnRWUsZSdoX68rl1jHypj49PaGhqb4Hb04oFzcBzg9BieyedkmZigoxffxk+KibBoZXpCNazhdjYJu7qXqPR+IR+41aw++k3VxNtDjq5IDFKJSQoiAn6+sy37mSQ4HCAolMCBx4/3uO/ha3RSCQSn9SCgt1nn/ZGB9iUuljkFKO40mSqBJXv3d1JJHclGg2F0R0u/fH7Zf8t4RKtVuLjE1/x3b+e7o4O+MpJaEH24KliMWqxD1QbSUYoELsbEQAgEMSdv39+eYtOq5Ww2Q8qzp5163IKUBFzkEgzhOouNordPcE0IKFNR9LEYigLwBCT13d+/mNzampIyG8FTyvc7NY45ewguyCRcgrMXQwAlEQCN6lDIDIh4VJfNSUQikBNvkj8/MG3D+ILKtyio6NFa5xsxoRIudweEvgeYjLhlUZwM10BaT1+f5G+hCagAIoe+OL5QHyvW7RIZGcnEjllqlxcaDQCxPu1J8S0FKQ0AhRJgfplv0UBeQ1nkakIOiow8bmTXemaVXJ2oNItBhqBwIJ4HzFWmpZMJCNQKMXi4/svHbg5jAUygEWgEA42TkKhUJiTR3ZIhyMMRA7HHkKBnAgiUZYQGSSAhpMyMjIUQ9ZVFDQcDsfCYFQHm1VoDnQ6igrFcOztKRAKmD4ylCHOECuBUqkcSqfcTBsdvIBGr0CxUBiUmpmZmamiUOgoGBWKssWwIBAYcynSe3l0tFIJlCSFKW67ddzPy4MUNBqLRwMoIJDHZAgEDAAqFQvDsCD7L2Dx1UeGf/nnH28FUCqMka/TvE2moISjaCwWboXGAltbGQIBhcPhUICmyiA9D9OY+OXR19OjP1uvCqifTUHV1fjqoP1pWCjcCo4GKpUDFb4KFopmUmBHE6ywQWnV1UGmpbjK/wMdUxSAMEQc1QAAAABJRU5ErkJggg==;" vertex="1" parent="1">
          <mxGeometry x="456" y="218" width="48" height="48" as="geometry" />
        </mxCell>
        <mxCell id="go8BSAw1Lf1Zyd6wWskr-8" value="" style="shape=image;verticalLabelPosition=bottom;labelBackgroundColor=default;verticalAlign=top;aspect=fixed;imageAspect=0;image=data:image/png,iVBORw0KGgoAAAANSUhEUgAAADAAAAAwCAMAAABg3Am1AAADAFBMVEUhCAgiBwcmCAgbBwcXCAgoCggzBwceCAg1CggwCAcpBwcsBwcsCghDCAdICwdPCwcjCQclBQc8CAdUDAc/CwgtBAZWBwMdBwheCAQ5CAc6DAdZAwAzBAQpBAZmDgdZDAc1CAcTBwdSAgBqCAIvCwcgBAZGBQJkCANMBQM6BAJgAwBIDgdiFAhxEwdrEwd1AwBQCARTDwhwBwJBAwFBDQhNEAdeDAd/AwBYEwiIJAxzDQZuAgA3EAf82VVbJQtfGAd4MBBsDQdRFQdbEQigGAjPPhBnAwBAEgh7EQZ6FgfzxEjWgiXCQBTzwD+7HwjvmCH2kShdHwmXFwZ2CQR/DQTFYhp8Iwx0Ggz0y0f7xjqKFAhHFgjgdBpPHgmUDgXMSRSNGwmVKAvVWxf8zz3heSV9HQnYaxz7002hCQP+tjHGMRC5NQz2hCCvJwv+42bjVA9nJgyONRGIBwH+86GfYh2mSRT96YOfNA2WMA2CFwXFIgixYx/0ukSMKgv4x1C/fiiKEAefKg7vpzj8qSzLNwv501zkpja2EwdcLA5+OhahQRLFcx5oHAi5ThP64XWjPA73vDKpHwrOaxzVUBLy0FtzIAnuszj951DpbB6eJAuZHw3fZBvSLQr3rzv/zUzRmEW1HwmnFwi9VhrEGwbuxFr5sy3TjDOTBQCvCwO6KAvjlTH+wjVsMxBwQhD//7ORWxqzVBmUPxCtdCOCLQpyKgygYDX/8IvknSf/+5XbjiinLg7zni3w1IDpjSbhbyXjhh/vtkP8mirvoi79oSizPhbKKA6LQxvNloWuaFqhaSH54Y2oQxKKTzGWShTevlPhtoipURnNdiiycTn91jm+SR3IVRnURwzcOgrfRQ3vZhbOTDWbQTnHiXm/emyDTxr35LLjy4bYmSXmnT2wah3/72HltHayf0LjvDzVOQ363j7bqnjqehTUYx3pgi7HEAL3z2zonGLz12GsYlblxK3Bgx388tD//8z//+H//9bksWbrpiS9li7662uiVB7hdE/bimLcasQwAAAIf0lEQVR42j2WZVQb3RaGTyY2kplMlBhJiHsIhOAUd3coxR0KbYEWaSktlLorbWmpu7u7u8vnrv3kut+7Ju26749Z8+N95px5z57ZGzD8/EjAZjCYbIafnx+Dkg8bAB863YfNZrMBiUphBGHxc2JhSE+nMwAFkGwfBpukCAadMlFif7ihoVKhlC81H/00EIH0ejpgMPxIJqAIah0KAIAkIQgCbEBCJI2HIkKCwAV7H4bgCMqjAQaDwdRBJGDT2YBkct77ICaTyQEAwlAeDxOxBCpuXVbkHZMUQyFApzPYOh3TK44sSQbrmBCEoigGwzQMYYl8RQqFf55n6YXih5NMUgQDdOpFODqdTsehHozqYFgHoRiCqIUYpuYrRAqF2ZSf/OJC6qpvNThfTQF0BoPuQ/cGRGczdbCMA2Eslho3K8wGs8JsDpRPGdnwZWrx+SINgXvTeG9+nyipg2EYxdRSPoErzCaDwmw2BEx5fnH65VUdt+X+/l7gvQBJMjlMJgbDMIZJcVxgMAeaVIZAgzw4vr7+zPRVHY+0YjEgKXmvTCZHB8vcMKJWYwgf95cYAg2aE9GBpvBdL94d7ipeMvWzQssHgHIzmRyODnYHCRGWmiXFCaPEYDDJN2/WWIKvD+8sPLt96pI/f2SRUKdEfghVB8tk7iArgqn5uEGsFZs0GseX54ucs4Yz/h02cfvUJX+9bZH8389BYBiRWa0uF0uEc8USiVyjkVuqBk9e3zOcujl0/cRfl3T87ZNwI3WskHc3CAJBsNUVp1LgnpgYo0Yul1vCnzed/u3ynO0znj4fS51z8C8fO7WAhFCU8nNIGg2CCZvSg6uUYRKTPCDRkphfu2lqZNucm6G/vs1c099x8FawFlAVRq1C0ng8VE04HB5PTJjRZCpvdIYHTxxta2v7/UT4zPNvb2RsOnnwVnCAt5RpNMqPwajaZVeqlGFhco18ypQpuxovRj5c9ftNTdeFH98OFTe0Hfw4OA8AGknSeBDE44XYfKUOu0elDIuRyy3JA7sa00dX3fz2pjF0b8ujGwkNDZGnPwnOBzyvUNTXV60QCexKrsCo1Vrk9p0jjRV7+zuTKwfWp11P/+2XhE1zIk/eduYBlKplX69EfIfdrhJTQN2TyOb0y9Nn2kf2bKl/sfu///nlYkPq1KkfOQOADsMwTCTyFfmKWC67fXmyWKt1Tj6V8fWGy9N3ri6traivntv8TfON0U39HZ+td2qByyqEWWqWQiQS8ZX2sFytRKsNXrGs4evi2ZdWJ1fvyNqQOfdd7dwNJf2RHX/MDzCCkBCbSyjk4wqROaQuTGISawPCZ50rWRs5Whud8vO6n8p6t73KGttztb+/+O4tp9EIkqwhtjgrIcAVgUf6nBJNYoAz+MyOmoaZacdW11/cuLE3s/enxY0Fo6mpkXf/4DRKQEREkssWxxVwzeInO4PDUyaHO9NLlhUfOl4YuqJirLc3c1v1pdxZa85Nn952PjRAIqaAoDhbnFIVGLo3bVdw1/ZZu2trSg4RqgUF3bnLx8YyN2a1lD9pyJ6dseRHJ/UBRSRRgMOuVB2u2bmr/NTa/nXLSjoJR/rinLiUyuVj2y6tiD+bEZl9bs7dE+FGsT9IShofa3PYU2KKru6bvbtl8NnajGVHuZUVC9zWEFtK6dz2rD3r69dur57d9nldgNHfH4wfTwEpPWGP913bkVB2peafXxyNO1tR6LYGBSXHN7dntcSvaJ2zNX745InEGImJABMmTBi3yN5T2rO35kp2U/a1744vcjSnx8qsLlvVy3Vv2jeWF8y+stmZ//dHMcYYFY6DCRNyFhVNO1xaWZaV1jrYeiZaWVoxLUjmto0kVCdkzp3b2FecsTXUUvTNfLlHycVxEBU1aXVoWlpVZW1Bd3b2z5OUs1bO4LrjqhISJpZvGUtof5P6r815iZbo+xqVx0PgOJg36Xjh+hVpW6dlLU2u3WpTtqws5AZVDiXED8QPrWxt2jdYcvqpRiJxCVQCFZfP54P9+6OP9RQe+celrPiBkZTkhPQUrmNPc2XK2ep12YP7Bpue1XTcN6kEJoFAQPmlYH705O4eo/HMsurdA+XLv58YJq78fkQZWp19ZTRjeOGsaQsjP48zcbkEV8AlWHypFMyfPK27R6uZWdO8e0vvjdw85fLXoYLusqaSNQtn5IXL5Zr7T8UmLk4QKoKFqaUwOLJg6eQZRse0H8q2bcwsn7in5eWiuHvrSp7NrEsMD7AE+vuLlQIuLnS7CbUeRWAYdN27d++6trAubcerbUOvX6ZXFHH73jWtWZootxiNGrNBoFIJCJZQKIR5eh6GIKCra3HB4pRjthkX2l8Nxed7/F1fXd13KneKRSOWSAIVuEBA4CyML4NRvV4PoRh4fLigLNp2LEi+tHWocUt8VdGDjJrh0uA8sUGSG6NQcLkEweJhMhkHAjQaICFwuKDsAeEaFxtk3tpe8fpNa9nwD6lVAWFaf4MnVyDCuYRbiOlRGcyBqM5Ko4GC+gcRggEH36qP2JB9bsfVa9fW9uUplR6P0p9gsQihTChD9TwEwVAUgkhAA/XRmCd/QGn2VftFta9M73685ju7Iy7OZeXiLEQolMIymMXT01AUhUiS+k1Gc1ylybjIHKiwikKrqlbbOjttNpfL6hZKRWqhDIZhWVGInk5772azAccdoxLpD/QdEXOPx45bNCknZ9y42KAgt5DPQqR8GEYQWZ0N+NB92D7e6QMQLkKv6zz1xZ8WlOe2rJwcFZWTkxM7PsgtgzFEKoVhRMeRcahBgs2mOjQduBEsqi9t5tE7h+ZHhx7bPy8qKmdC7PikCBimehKMIBwmBDGp/bPZ1DACSPr8hQu/utN56NMDBw7snzdv3qQoLxCho2YCHcJhMqlAvYAPg8H4H01Raq3HSMIpAAAAAElFTkSuQmCC;" vertex="1" parent="1">
          <mxGeometry x="244" y="218" width="48" height="48" as="geometry" />
        </mxCell>
        <mxCell id="go8BSAw1Lf1Zyd6wWskr-9" value="" style="shape=image;verticalLabelPosition=bottom;labelBackgroundColor=default;verticalAlign=top;aspect=fixed;imageAspect=0;image=data:image/png,iVBORw0KGgoAAAANSUhEUgAAADAAAAAwCAMAAABg3Am1AAADAFBMVEUAAAAAJyAAPC8AMygAKyEAOC4AIRkAMCYANioAPzEASDkAHhcASzsALSQAGBIARTYACAcAIxsAJR0Ba1MBWkUAQjYADQoBZEwAUkIAGxYAQjEAfWAEV0AAYUsApYkBEQwAtYgAuo4AXkgAsIMAFBAFbykIj2hKNA+MaB4AqpBBJwgAZlA7mBoATz0Db1MFqHwAtJcM6soCpHoAn3k3uCMABAMAy68Q5Kp6XBsBrINE/+JTOg8AeFkDxZQ8yiJCthgGzTQ4wiIBb11QqBwqmx4K2qFdQBCkeyKTcyFCohwGlW44jhgAiGpZwR8D48JVziuBzjU3IQiD/7Y0/eBQ4JtnTRcAUzwAnYQ1viECkHYvsRpJxCGs0VADup9szyXO4WUCxKoH2btLLgopGwpGQxkAmHo10iEBgmIArpA1gBhJ4ilHmhxvviQE050ib0iG2y+P5DQJ3sAE/d1mRhNXVR8AeWUAnHIAg24Ac1o8sSUB1bU0hxs9rCPD1lgLiWJl7qItbx1C0yRc5XQHhiidzkl3xi4spiMO8dOc/roU99ZS6KYu9tsqSxgD7K8uxIx1UBZqXxxpVRgK970w3SAdYBkAvqIH4VdcxzYAyZgVDgV31jwQfS9x+bJmrCYGkyO14mEIdyo62ZxO0ZJXoHYvMRY39LIjEwc54qNCqxgpiR8SpTZh/+FZnV5EYh8DwS8/s38XsnUviUU6eBcWUTBQjh5o4JkspGwa4cgkuYRyunaMeyRimCBoZyCi7zYW0azHmyss8cNaiEgx+c5A/LxZ/8Cn+TxOkmAAmXFa3ktZtCEpOCxW2HUG2ExjzkQZwnyKxEYOsilwujgiKh42Vi8kZTWS21REbjda2ylDhE1ApWVvzIFncC0gIhFWbxy1iygs0JqAliaQgSJkfR8Qv4cQHAwxzUcUvCogqzIROQ+V6nmHq0smlDXG62agrUDh9IFQe0xCwIO+/EaK1oMqJxEls5cTfVzUqS4m2Eap44u524lDtVcLQRG02F3m73+O75qcynocs0gXAAAH6ElEQVR42l2WZVgb2xaGd9wJYRLiIUKcEG0Sgh1ci0ux4u5WrEWKS2mh7pS6u7u7u9uxe9yvyzOBtpz7/X7fWWv22nvPAKUuK3vQFt+csXixTilITlZ6l3sLteGR+TpdCkRnkclkIpHKYDAISCQGg0ehgD5LZ84etB3OyjI3mzMEyckCkbe3JJwLNeYL8yGWBuapn3gcsMUfzjJn99oOZ5mbo6KadQKDh0RrMMq4jY2RHkVcHvkTj8GjcDigt9nOVJvN+vjq6ursKH3UMpHQIPPiphgMxlmXjR6RdOIEj8Tg4QIUkFEdf/7MoD6qd7B/UB+l1zcvE4Z7uTd6yQxCoYdhloxLJzIIHxuiUIC/ufrc+ku/Ha6x2WzxvfqoIG8PmTsEuXsVygzaWbJCdyadOIVHg00p1Xr9o5y83du3x/f3986zBHlEQmomk89UqyEvLkTXkFnETzwabHih7K05Jc+Rr99u6685deTMxvcyJp/PF4vFYjqPzmTyiAQGAwnzOAoajQAvNvz6W01NhUruuX57fM3rnZaNmw18upgOh8cik1l0FpEwsUAUNCwsf/FrXnZNRmxO8Pzn63c/SUwY3fj6dw2LB4dFJlIZBCqZSLA3BPMIsHx5bs59ffWGHLm1Nrg2OPjoecvmYXeiBh4xlcGBFxSJJCDxk7wT2L88V6W6XxGrknvOt1qtiXXjo+Wbf/p9YkNM8hgUCo+i2HkaWLZ/U26OKjZWPr9WrggJDbWOPDtv2ZzQytKQORzOxIThN6BQ7DwNBL2/tyk2Nza41qqQyxPfhoZarc8ubF6XMCzjqpPsE8DDI8aj7DwWCyzztJs2xarktbWhIfK6N1aFQvFN3Kp1rwfWGVohDWNyR+BwKAwKQcNiSeDM6PsNubm5uargkD9Oh75ZABu/xMUlDCckhEMaDnJiQSloNA6PQmBJJDA+sNGyJ1cVq/JMDK4dsYa8UigUx36Ji1t3ZCCcT+Z8GAACgUCg0TQSG6yvO3jh/AOVp6dqQ967d29HQk6/CgkJ+f4/q4aHD/GIBAx+knei0Wg0LIkNTsnzLp3Nkyd6Hji+urKqu+7lidOvFH+c/m9cwpFxKImKQX3ksVgsXKE/XKXK8Uy05gVUXbx48WLVyeOKtwtOHO2LazuS8BOT85HHYkkkLInkAOLPXZLnzJ9vDW3fV/nzzydPVh0/9uZl+3hf36rh8bbd5Ml52QU228HBAQzGXzi4I88zMST0ZWnMycrKmNXdlVUBi4729Q0MtB2E8B94kp13dQUZ2WdsF8brakdCQ58fL4tZMRNO5YF/7uiLW9XWJiOg0X/iXUGRUneq/9zTYJVcEbLzQOXM6fbErP76wcG4VW276egp/bi6uroAgUApyNKfXZDo6Tly7MD0srQ0X1/fLQFld9uHng5sXCdjIBAI2gTv4uDk4gIylMkCpTnIYnlaF7xg39bvp6f6+vr6hpUGlK1uf3AoyFvG5NORTiT4+Q5ui5xdQIY5Q5lhHh0dnXerLvHEonelgRFubmFbSksDrpaFFW/dtufWrT2FYiTFif11WMkiZ2cgUJqzs6vnzbOUlx8aURwb+tbUUhxRHFFaGgDnaln3iqqlUinE29+S5tfR7ugIUpS6rOYoS3mQSLvnyYjn0FigqXhfcURE2BY3uJJvWnR0tE9Y6eqZ0X5+He1gGoAaihYXKXUp/l5arexR3pBUGthUXBwRtiXNrcVttsnPp6OkpOTx45mVM3yiH7cDACD/SJ2yod6fRfTXGStODEml0p6miJZAtyY/t8DUGT4FBQsXdvhEdz9csXbtd/cBAGr/BoGyAeKziIxGUeGPC86OSceafCNaWrbOnmEy+RUsLCjw6YiO6cr87t8//DAEV2jkpiSn+NM1RAYh0qP1+dlLUumYqcktYmtg6gw/n4KFC33SomPSM//Vlb527ecAgPr6ei63kKtmwXeuUcil8vZKpStNswMD7YKPT8fSmK45mZmze3rufgMAAA0N9f4QpFbz6VQMniiSuBMq9kqlnSZTT09q6gw/v7TumPQ5mZm3OzvXrNgJC0X5/vA9ylcz1Xwqhe6tdSdUrBzr7ExN60k1pZqmd3fBfHrgmjWmpS6wIFhcVM8is1hiNY/uz8eLJRIvcsW3K8c6v1pqSp199e7t9Dlz5sR8eWfbnZJFMA+SBTqdoJHF4kN8MoHF5yDJTHdxxd6VKzu/unlz6d3bXenpXdGf7dr1ZYnbtElBacxXCiK5kYVMDYFA5aAQKCqVt3fbmm27vni49uGKK3/9DE5Jk70hAIyCIlE+N8VDKJRchlhIHAqJQSMQaNSTf9zZdWPuX+YuWXID5q+4OYOJCkYPoUjkYdBKRN7eRjERhUYjCTj4BOzfcf26XVhy44srN3eCDzFKRHCEEomoPEjLhM8wnoNH07AO7Gs/Hv373+bOvf5sx6PlH3mQLxEKRUKJdtZlo9BiKZeR0TQsBYnE0UgkBxcX7L1r1+597gimJF+rNRjDW70gyKtVGGQJWhZOJrGd0DgEls12cHF2tGfaFIEb2VrIdWfSkzQaHpN7WeIdtCycSCJhsVi2g6uLi7Ozs/OfBT7k7q4WJ8F/CERNUhKRqA6XSLgYEonGdnWd5B2nTTF4YiafrqFyCAQCh0rkIHEIClntxSdgnWgTBRz/T9Ak8ZLIVI79W8bhIPE4BAmLQDs50dhs9gd+qvA/Ol51mf6L9bEAAAAASUVORK5CYII=;" vertex="1" parent="1">
          <mxGeometry x="121" y="218" width="48" height="48" as="geometry" />
        </mxCell>
        <mxCell id="go8BSAw1Lf1Zyd6wWskr-12" style="edgeStyle=orthogonalEdgeStyle;rounded=0;orthogonalLoop=1;jettySize=auto;html=1;entryX=0.5;entryY=0;entryDx=0;entryDy=0;" edge="1" parent="1" source="go8BSAw1Lf1Zyd6wWskr-10" target="go8BSAw1Lf1Zyd6wWskr-2">
          <mxGeometry relative="1" as="geometry" />
        </mxCell>
        <mxCell id="go8BSAw1Lf1Zyd6wWskr-10" value="" style="shape=image;verticalLabelPosition=bottom;labelBackgroundColor=default;verticalAlign=top;aspect=fixed;imageAspect=0;image=data:image/png,iVBORw0KGgoAAAANSUhEUgAAADAAAAAwCAMAAABg3Am1AAADAFBMVEUBAAEFAgcSCCEKBRINBhUPBxgXCSUVCSEDAQUIAw8HAwoQBxsRCB4IBA0hDy8ZDCQlETIZCykoETUdDigfDSwsFDgsNT4QCBpiUyBAMxERK0clES4pFDZJE4axp0VveoowFjwvClpTRRUNLk4/Rk9CS1U5LBRRRCBIOhVrWSQQJj2LeDZseIM6P0hxXyGGdDRVW188Lw87FWhdUCkJHzMRID58cThzfoiJkp4sIxBHUFkzJwhTQRNONjmgjzg/EnMMN1hCNyObjDZ0aERaShqLhECXgj8uN0MrMTeFj5VMVGA7Q00xKBJja3ZMPhsRQGNjWC1CG2R+bC0kF1Z0ZC8XY4woMzuAipNDNxM3PEQ5EVw4KgxMVFdWSyRbZnGpnT8oCEk8C3UcHCuSgjJYHZqUiEgWNFhrYjFqXirk4m+djEcUSXA9LSt1f44zIx99h5ElGhIwEUUjI1M2FkyDbzE9GlYoEECYiDVeThsQO1u2q0fU0Ui7r0XOyUmNfjyUn6z0/f8TCxJ5hI1YYW1pc36RmaFLPBEiH0OiqrRWV1Cbpa8OMlM0MiXP09hQGI6tokHAx85HPCJiJaZgIaVJTUV8Zive3k2tlDvx7nWlllEXaZeBaSd4dExaVz4ZdaSrnlWDekNvdoYhCDlFR1ssGC4+OlI5C2c7JUIbLlIkLTFkYUhOWWMTEy1XQDZFQzd+gXNUUTWIgVejkzpUIocZlcu9tkvCvEoUXIbKwUQYRmXEvlzW1EtDV21/gJcXEhpEL0tyb4c3HzA3ID9oZV9BJzQWFjlSFJNOHX1pKalkc4vGpjzPzmnS3OWJi4LX3+O8t2SYei3RtT6KcSaUl5EXb5uktcoWUXi90+QkseVcUW53e2+7v8NdXUVxWDKfkVMUOmOyt7+Pl7OOiWulsLNsLLEzRk8eWH1zbl+lgy+pplexrYzY1mEajcZ7jqAbfLPo9/7V6Pcnw/deVG+FeF5WLnjW1YtOWnPOy4ccqu1KenYdot9glYqAnHkyQ01Nf5Ml1v40ceCiAAAHoklEQVR42lXWBVAbWxsG4E2yEcgmm41tnAhJiOEEd3cvUlyKU7S4tBQKhUKhReru7u7uLtddem+v/u7/nITeoe/sTGY255nv23N25xyIH2kfazLF2quHDo9kmUwme7V9Ec3WGgbD1pZAIBBo0Jzw+Vk+9vZqnxjn0NyRrNjYWHu1Ogq2ZTBsbMBlJTTaXDAvJ8cnxrkvL9SgFR60B4nZdtGGZA0ghPdIJH+eKc+5Ly9+6XdOpWEu2tVqtVod43MRJpNhGIYtxtb2fRDVFx+/1Oj5oVPEp2EOysNqtY/PvpgiOhXHcaBAlTklIudF7XE2Gj2XLHzgZFgTLnBQCjbkxOzr69tFpSIIHcfJMMnGZo6I5Eft8cnwXJIR/azUUGkuLVcqW8s/ztmXZ7eDSKEAYy1iC+aKNttSjtfCjOj+5WuKj3aHyMytYUpB0sfOeZd3YBhKpRIRMtkqrEUi+fwo536v/p7BzzcdHQt36mxPaQ0bGFC67b0Wv207hlmq4DDJBkwWNAviB7/6aOWKFY9Od7wJP9HZFR6mHHCZL1Qm7R2q3s7FMAoRQRbX1S22rmAWn8/3XD4IwN8qZu6FV1TMPAotDxuY7+s7XziQmzteXV1dXVvrHRensZJtkfzYfi+vnuWfr/zLzEzF+oqKmTfjm80CpdDX19fXRTjglytwSxDGeXt7x2nqbGnQDhPfOXpJRrRXz+C9qakpc8e5KZl3btrmsgSHTBdQxiVTK8h1cLGI4IsQVLTN5LnEc2F0tFf/2Y6Oc2knus6djNOUbXoTPBQ8nikUumhcMt3KkpTaBBeN0KGWAS3eEe9ltFuSkREdfaKrqyNNdvpc13hwZcXZkbxY00EHjVCj0QgdHDKFQo3mSmP2Yoh69YuMpWChFx5qP9112m2sY+ps+Gbzo3vjzmrTXp2gNTNzAIyulWfv3KnYSoBQ5gdeW7YYPWtqDsk6T3Rq238MEQjM3Zt+LFsdk7Xe0THMT+knrN1eoCgsVFBIBAKEisWXLxi32NnZHZHJOmUHzQZBqy4lzTF8c7Czaa+jo9JP6C1epCjcWc/BwepBHCbr0gXjUqOdsXJM1rlmafyGtBSnCCddmFkwZDro6OjnW7e9PtC1nolScdgKJOwPaoxGuw8D8sfa15+363kQOlkZMSlwNGxYnaUTxNXVNgc2SsRcC2DYQihTwttl6SjgaH6+81/v9Ky4/yy0OyIlzWAeik3SFukbkuUSFhcDgAQAlyXn/V5j5xkeEjBdGnPnp8H7vb0PH4RGRBgqy3wOjriLGuQSNpODUZFZwGHxeJdq7A61hAQEXDt/Z/mLh729v/yy8pC5dDpitUjvrmrgsVlMDLUAGwaEcsQ83tULnqUhAUe7c/bFe72439v766tXK5+tr9y0QaV3X7CMx2ZxMSoRwckkEgOiACC//GVAS0hIeXdLRMSRL394+OurF1/09Hy3OXyBCgAW6IiI4KAEABIe79qnLS0haUKBbt3j6U1r1vzw1U9958//12fDf0TuIgAwCvj0LAAFQP6nSkNxsTalOGT67pMnT+7ePZKTnr7xf6+r1ofyRbvZfwAyiWR5aPalUienFoHg6eS6dU8ff//943VpSWeqfv7tt/R/ny3Xf9YgtgIinQyTwLTy5KGGFINB4zDgF+Y4+Yn/9atFRUV60cu3r9f+66kuajhxGRd82kRLTxCHyWb7G1KairUufmE6QbC8oKAgUKFQpN7wqNr4/PU/yg6L2nYzMQqFAgAZBu+SPNSpqbtsvlLndp2tKJRKR1dN3JTelCo8VKf++fdvv2kLEu3moijF2hPEZbIONDU5NWUKdP71O6VSqWtjY3Ny8rFjt0alqQvWHt+48UyQKHE3BZ2dJ4jLvPJJ2mSxW5LbrmypNFsukbAkEgmPJ5cnT0ykqk6lvz31mT4o0YMCngIApuSATtdkdjuQLb3pyuZwmUymmMVis3k8XuOx0cCGxONvq/TDQYk33gGWv7ZVl5Lknz0qXUTBQDgcDpfJYoMyt1a5pq49/lw1rBoW7QeCTobY/gkJAjd/19FsMBMgKIpigLDYPHnJROCC9I0v20T64SAMlCBDBVe0CVp/V+kiOhWESCSCHwrG4TCZbEnj7ZLABWfS01XuokQReGPJ0NZ6bUJ1ciAXIYLB70KlUlEMVGkOLHH1OPVzlYeHKtGDglJxiFJwPbg5EENmRyJ0Oo7jCAIMyuGyWPW3S1Lbnq9V6T1EqhsA4AX1u1wxhIiA0Ok4GQTH6YCgHK6Ylfx1SWpbemKbu7s+aD8Vh8gURSCXbtmcrINhGLYQBCGCtsSsYyWFDW1BL1Xu7kHD+6kQCVZshXEQsnXTtASGASESKShHvMh1VeEy0doq/X59kAcK2ZBgEmyNZV+2ZJbQESIV44rlE6sKPV5++035yJ498yCw5c/u4TZg52cwbBkMhoWQyThCpHDE4ubbq1JFZ1YHtAj8EiDw97uA8wWBQLCcMqwER6goh8W+9bU0VXR4WiZzVEKE90OzXAQCwUJgmEynYkw2r1EhXeTWfuLkyWKIRpszGgSiWW7NVoFxBOUw2azkkuTydplMJoNof2TOEWfWWAUV5YrFzX/2TxnLz8/P/z8ftT4fsgaGlQAAAABJRU5ErkJggg==;" vertex="1" parent="1">
          <mxGeometry x="108" y="80" width="48" height="48" as="geometry" />
        </mxCell>
        <mxCell id="go8BSAw1Lf1Zyd6wWskr-13" style="edgeStyle=orthogonalEdgeStyle;rounded=0;orthogonalLoop=1;jettySize=auto;html=1;entryX=0.5;entryY=0;entryDx=0;entryDy=0;" edge="1" parent="1" source="go8BSAw1Lf1Zyd6wWskr-11" target="go8BSAw1Lf1Zyd6wWskr-3">
          <mxGeometry relative="1" as="geometry" />
        </mxCell>
        <mxCell id="go8BSAw1Lf1Zyd6wWskr-11" value="" style="shape=image;verticalLabelPosition=bottom;labelBackgroundColor=default;verticalAlign=top;aspect=fixed;imageAspect=0;image=data:image/png,iVBORw0KGgoAAAANSUhEUgAAADAAAAAwCAMAAABg3Am1AAADAFBMVEUVAxAYAxIqCzElCSIpCSQjCB4tCicYBBQaBRgxDCswDDIvDDY2Dy8hCBseBhgtDDkpCykuDSlDEjoeBh42DzYiCChJE0VNGkwhCCNUE0sgESU2CzBOFEZxG2Y8DTNaE1BFDztGFUA/DzZhHl2vqNhiGFh9GnA8DzyFG3dLD0VSDkppFlxDD0IlCSw6EDNsKG1XHFY4CjhXGVFtFmJBCzd8ZYlqImigHo6mn8w9EzZKO1dIET9bFlNpG2CQg61iJWJ4KHVcIViEeZ99apCRGoKgmL1gEVbJv+1qEFx4FGgjFie+uO6YiLJOI1FRQl4XDxx9LYCYN5I4KEDnRMthQGiJfqjHpORUGEltT3nT0O3Gw/Ososj+/P8oHDFCGkOYea+WgKqynNHBsOJ8cZSOdJ11WIO5p8vBs9D28v5kNTgrITRjP0qWGoaPVVmRI4P4TOg7MEjGs+eWjruwrt/MuPGnksO7q99XMFzVyeiMGnx7SEw/ICYQCBJoH2JuMz2aT16LMJCuIpn2W+GDJX9lW4OsMW+GN4dSLFS4sNy5pN3OktyHZJOFTpBiNWV+cJzaO83b1O3EvNqwl8m9uOafmszc1vlaJDl3HG1VHk1SKzKFOU+rLZ9DM0t2IG6ZPllrOnDZPaPuUdRGKkh0JWipdrONL4fEcni2LaTJwORsY4iaPKWgirx6UH+7ttxpWXiik7WTeqWwo8/l4PViU3TUz/pRTGU8IT1bJVnKOripYGbrOde5QaqUQI/9Yu9dTHGHbZu8GaHVwPPHfMy1jcuLWZX0ceugXqXJsNl+RYCzq9Hi2u/w6/7t5/rNwty4tOY4FiVIIC+3W6f0VObeM8bCM69xRHaSW3XMKrbneeJwJTTXWMx2NXX/WPK1h75ANlDUM73wZ+R7PYWWbKOFdZuxob2rotayRn/CSo1lUGOdJkqlUqiFK1OXcaeGS0zzQuLebduSYqChSZT5jvn0qPX0zvj3mO7NT6N3JVVtLUvRgdeiW1+eY6jWhIjDZb6UJWqygLpjiEjJAAAH8ElEQVR42m3VdVAb3RoG8KS7CSwNNAlpQjzEQ9IQCBFIkAQJ7u4uxd2KF3epUxdKW6hRd3d3989drtvswtzy3bnP7J/7m+fdc86cRVlaYqzv3CUQQBCYDQg/IAhgMBhLSytzMzMzNGp+MBiAsLIur/4OhJ0LhIUIdDoRQhBM0H8QAAiubKwrzKsnslh0HBwWi8viMD1WQwQsCCDiDx0gqPtibd2xwry7MRIdh0gkEnVkMrVoPY2QTMJBBBDAWJnDJXMGjQKwzNY/bWhq+lveSgGbSmVQqWyBoGh90HjI4SNcLg7CghhrKyu4BCZoNAqAdEdPfblh7Y5ja1YqpQKp0o8pbBHgtpz2D3F3lBC5OAIWnsvsvyUA5OS7ufXLtcf+0bRmtVAolEpIED3ExaXEPySZ6cNmcJxx8+ZCGrh2Rfc3b2jcsaPprqEBu2wZLdzfP9zzdVK4f0PbKqmdjiiH55pb4VngO9G66Vnhjh35WyJdxsPDowaCg729M1xoNBplPVNPJsqRkrkVBiEuQyp+s7l9w7HHKlXmGU/VYWPXwMCBOOPrJBotxJnH1DNsnXEQ/CXwWAgQCDURmzas3bMvNTayM+jwQc8MbVyCdtIlPMmfRnNl6mNsneUQHhZmaBQWR2QImLUtEe0/Vw4nTDsn27p8cBszjU3F8zMOHSrxD7EVuzoiAgtYWpmhUQS5bYyAKS44+vZ8VWBkEIVCMe7XBuTmaEf5U54ZqqQQUq0QETgCiABIbhvDWy+e2Pz7bznVIgqFEpQQr13xMTOOz9dGBQ640GirvFYJHBlEOYTHwADnzHBsWF8U8WviAZWI0hkUFDQ9MJpdHXtzJv62NsPz4FJ/mrKWKYArZgGLGCNYJQ77PTHxWrJt5q2P2amxkZ9U/SM1nlGfxtzKooKTQhZ4CV0dGUQcFoCBXKdXujKu/pZ444MoOSExMffm9RyTKT09VmXkx2v5GePhSbRaL6YghignIIAroSYn0Txzc2siyb2mAzduJt68MZOdWj15YG/cCr4pI3i8hKbUCOGZIMDaDI3iZE0fOlQSnDM8nEVOM1VWDtV87L1ob99v0l6L874+VBbl4rKUqBG7OiLAHI3i9F3Yn+B98Hpibqwsdn/2oxfvd17t2PUupSKhJsrNe+/OrsnX4TSlF1PPcIZApGFrxz6tyTs3MYdiMOzZ+S409KeLu3b1daeZEqY/eAYeGDW6lCSRxUwBAszRKCefddurD7rN5KbKDPb2gX0dzW1tzbv6qtJMWZQgz67hKe/J0y7+yzAEIhEHYszRKJaddOJE2+Xoc5kOCnf3je9Cm5ubtzf3VaWlb+TxqrVTcfyoyeCkpUkhywAC3tLcDIXjsP00g897avaKFAa12j40LCxsu4d7ZXfpHp7aUDY65O1WNl1iNJ7J6kyGdw6FnO6zx3vOTSUr3N3tQzvCTm67cqVXNVKVecSdl5WQ48a/Hdj5/u/fnDzhiMWYm6EguU7vpzneU9oVSTG423t0hF2O/veVG7eyR6oyDbz+wFt87Yr9BgVVvZ3qRIcBHkekSsUPfozeN1yNiNCTHR72r4ZyaipSj6gvRleUD+XuVgucnJycuBAMQKSiJaIndYUnkWLgqT1CQ/su7slUVfFjDW2Xo6v4MzPLRUJXPXyYYAAQcESGtPbB0+/SuyJtFbwGtYfH1SvXcwIrswwebduqRvnx/HH6KldHMhdeVjMUBoTkRLbfROv5lDjvTrKCp7b3sO/fl53Zqdi61X5bKT81MGMpebYBWSVLAITkZB9xxNvL2XFlp22DKI48dYP7xtWODTz373an7S6POh2uEDMFVA4d2TgrSwAPcam+muLn24ZqrmUFnalmKHg8nuLIxo0p3QEBAQGTy5c2iJlSto6OHA1zKwxAoHOovg9fvh0Zjot3Gxnpp1AUCkXvuYCAgPLyAOPyAZqwVihlS1jIR5ubWwMAFt7voy8vXaicMVVWpKWkpKSmpKabyvnlt92Co5bjC7yESj0MrGBgbg2ABDnHzu/hy0vn91VU7j5Xml6a3p2eFrg75b0qsmznJLXFS6hkzwM2AN6CxPFRThSfunqm3M2tNKCiIj1tpKdn28l/vhqdWl7UUiBUsnUsLMbSCmVtbW2NsQHxkFzH9i0YHLQNdlMZvbu7L/z16aXWf534JXpszOiqp0qlVB0LvspgYGNjA+AJFiQO1ddvkBfctX98y4vn94t/ePImovWXaL5WdSdkGU1P5eAQYAO/bwPg8QQLuczO98nWQ1OmYNt1xx88OXv27JtTv66I31uYV+9/eLWEi4NvfZQNksWL8XiIJJLZabYH70zYUqTx8vIqKNAMXor+VPZV4fdr6r/ql3CR3wRq8VyW4BdYkEQSv12R1zxXa8RKJZPppyn+8ULgdP33hflrph9JuHT4r4pa8hkssHAQ2YU9yt5TVOur1+v1PuuKv/lJNV6fV1iXb4xlcOkQFgRQS2aDx+MR4eDx86swL7YdmUwmM5RH74e92Prts8bG3rF8ohMMQNSC+bFY6EA+cS9UIpOJRCKZTOKzrjjiYcTXz76915u/hsOCxf8Ai4UOarWDgwMJiUhmJx5sOb7p6/ZT5x/nr3SCBWrRokXzycLZWMAhkUgyGdu34IdN7ZufPq7Lj3FysEDAbBZ+jsVcSCSRSGbnoyne1H6vqS7/L7D4DP4fgaeS2PlMRLQ3ftHUuPbPHAf6fwCwYZRkQdAW1wAAAABJRU5ErkJggg==;" vertex="1" parent="1">
          <mxGeometry x="282" y="80" width="48" height="48" as="geometry" />
        </mxCell>
        <mxCell id="go8BSAw1Lf1Zyd6wWskr-15" style="edgeStyle=orthogonalEdgeStyle;rounded=0;orthogonalLoop=1;jettySize=auto;html=1;entryX=0.75;entryY=0;entryDx=0;entryDy=0;" edge="1" parent="1" source="go8BSAw1Lf1Zyd6wWskr-14" target="go8BSAw1Lf1Zyd6wWskr-6">
          <mxGeometry relative="1" as="geometry">
            <mxPoint x="226" y="280" as="targetPoint" />
          </mxGeometry>
        </mxCell>
        <mxCell id="go8BSAw1Lf1Zyd6wWskr-14" value="" style="shape=image;verticalLabelPosition=bottom;labelBackgroundColor=default;verticalAlign=top;aspect=fixed;imageAspect=0;image=data:image/png,iVBORw0KGgoAAAANSUhEUgAAADAAAAAwCAMAAABg3Am1AAADAFBMVEUIDAAIDQEICQAHCgAPFQQHCwAOEwUQFwUiLAgKDQEMEQMaIQcSGQUGCAAHCQEkLgcqNQoLEAMMEgMtNwwKDgEICgIpNAgVHAYXHggKDwIhKggnMwgFBgAeJwgYIAcxOw48RRQrNwolMAgdJQgoMQg0PRAtOgxHTxgvOQ1PVx5AShYUGgY+RxYnLggoMggrOQoxQBAfKQYoMAgaIwhvhI3Frn3ZwpPIsndvci0vPg0hJx3DrHJNVBw2QBI2QxQiKh6IpbG3nmMVGhIhKAc5Kyq4oGCUdia7o2mxlkxDTBhUWh47QxEdJAcYHRcyOzESFQgTEAdfb3eehidTYGeGaBvPuYq+qHDUvI3fx5VydSxKURweIhxsSQMvNByJoqxaanGDnKf1+/FWY2srMwlobitcYiUTFRArJhMrIQk1Mini6+RWRDkjGxHn7uRqfoWDSyN6kJlmd36rkkTFzsS2nlnOt4Rydy9VXSJkaScaIyQjLgsxKB9XZWxDMi1DOCrd5dw7NxJmeYP5//e9xL2LcDUdFQqmiyM2LA53VRSPeD+ljjnY4Na1nU6pkE2yl2anijnSu4I9ST5fZiYzOQ8lLiY8QBJYaF8YIBEbJgQHCwY5RSqduMKOrrptVEZjTUKot7c2MAp0enBQPQxlNxmegRzw9+45IQ6cgz+joptEKBNvWRZ2io+fiS5zi5hNQRV8laO6yseLUSOXex2afS6Rb1Zhb2BGQDOEjIZEVktMVjxUQDNxQxupu8RxemdoWUx3aE+LTCKUlYyAmKBhQgN8h4hRPTSQaAmRZAB9RSG/o2JrPx58XA5RSiFyUAjQ1subbwLJs4FeTSKZfU+yw8RZMRVJRkWVqK8vGQuMchuYgSrOtYE4QjlYZkRXTD4uOig8TCtOYDIoMhVfVESMYAJRYE00Ox9nUBHu9etmdHF6gnGWnpFJMgastKfw9ep2TSs+Ojq1oEV4ZDiYXS2plDO6pl17YSStr6piWSt7XFJ6XU7A09dYXF1WUEqXaD+tg0Xj0aGqi2fUAAAIbklEQVR42i1VdVwb6Rb9ZjKTkSSdiREjJBMnEwLEsOBuhVKKU6ApLV5oC7TU3W0r1N3d3dutu8vb3bfS7crr+nafv/cbtufvc75759wz9wIIgiAU5oASKr47xhKpwBAEwzChQhmSpzaf27npr/YgSptqnJwxP3m/AkAQBHiwCJbDqEwiNDBals8BwViFcqXh1KUTXzliqFSj0Wh/OT8ueaMS9PE5AQ+oEIHBjZCkWCUjuQIrE7797lgCrV7pViq0FTt+iouakyoAEMqD5RwAQbKReYiMIAiCxISsIPIvl86t1kQKlKwQqZ6zYHRmXPpmgRugPPiDQMVXuvkyCCIIMYKxIdWbTpzqcQsUGIYI7yxMzsxMTy8OyzMCuK8fuRwlSIRFIAgAjo/lnTqx4vMQJYthGL/3QvJob0n66IzNkWociGBY1MeXifkSAAAgVHxM+ebYimqlUIghCCKpfpSV3FmSnJzxtdQQkAIRLBLx5DAKESoxQAEAMhJRLlnxmkX4HJ2P3Zm+IK60JDnzyO5chpbaAAyLRP3kPBQQMghGAYAkSOKS15UyMSnhnlf+PH1Hpy8uMz3rtjXGFRQIAJEoOLifnKMCmIcClGQ/XZJIQjKSjyCIuPpRxgKfrzMz/eYOa0xYmNNkArAoWCSCYRTl7OUBSW///ikqCBKTfD4CvVmYkeXz+UrjvFHFEU6Kcrk4gagvGDyeXC6HxbH9E0kCgmRikpTImkuOLPKVLY6K+y0qarcGx3HK5QLBfXy5nCeHYbQgcVmKjHOKIAgZ1Oh9leUrTV6wYNHMmXP3c3wqzAU+FIBhlAelVKaQHB9AEAFB6B+LRv/PmxnlfbV40bXZGw0mk9MZCIAPdJgHxPn5KhSgKMoFkgCAN+vFy8UlZWXeQYuLr2x2hjNSqc22FMByObyKVEEqfgof4oLC42ZCyFSkpGD34ai4Mt+rxb9e+V5qiYlIyNU7HACG5TxZ/tixlZV8FJXLuZQASCUmEaEC2/8iKqpsUOdPxbNctCUmJl7vyK4AXDMQWTk2NjYR7df37QAiSIkEwVjh5OK4V2WlvxUt79HQTHi4zRyvdwAeCoA4ZdiwlpZx42YQnAU8uVwmk6nEYtWs2QsXlg769U4kZXIG0Qxj0cXHc5ag/LEpw1JiGxsnThxeCItEIhjlMgIKtz8ZMeI//33oNkbilCmIZiw6nRnIZASan58/dlnj8U+aJ5xu/nhcYXCwCOYBsIrYdfTooV9uzUCESrdWTWn+FCAkNKxSzE8ZhooKJp4/P2FC8/rTnAaFVE93zvMeuvG8kI9hrMKtxZ20RWcGQlIVmwJ4/USwKDi4sPGLT9LSmtetOz2uQNQ46uCoe0efpOWTfTskxIgHGJ0OYGRsIgl4cjnM5TZYfPzCF2lpH6/7+z/W/zht0qhR7y9N+3aVBOF2gltLBTEWgPS+7oW4VcCNDObBwYXHL6xPS5vQvD7tm7et8+bNm3fvaqxYhSmUeWrcSTMg5PVrjLME8Pr+CQKgvIKJ6yaMS/vx6fir01rftU6aNGnUzk29QncqbgiiGVB9ctmfeUPlaF9GAYSKWv79r4FDBg4cOMSzoelta1NrXd37agFOOWkmHHx1MkSmUnELE0BiUiJWQQQaXLmnY0ANpxg4pG1D09t377ZNHbV6pYGbN1jxKSYRi2WqPgGCIAgpK5yx6Vlt+752T82QIeOHjL86rWlb3bap91ZHamjGAk6qMb5EQvJVMghIMAUrLJjx/PTjg0ltUw6saR8wfnxNTU3NnoOtdXVTp8VTDGMBqwVCDJHwEb5YrCKFCmXL9i0/vP/ns459a5MGP/MMqBnAYUr72Ul1U/9m4WzFBSxSMLxBiUlIiRgT7Npy69CjnUfPP21LOvB4zeB9UzqmTOno6GjzXH7cNPU7A2MBWoGw9+Gc6fuVSAE76+HuM4dGXPzl4pZdz1s8GzasWZN0wOPZ5/F4PHva25MONp3TWECk4M3vvyeXLpz+8/QdI0dm3Lp48caNJ9tbZvT2T4ztv+Ly2qTapLVJg2sv19YOXnv27GfhgPljzt3Zgzqz0kdnpcd5vT+MuLhlVwN3VEgEk0jYJe21gznU7vG0tX1z7LNwED3ndnGxb/7hkqhS36AHN2efOTNZ7eauFoIIhayQ3xu7LDExMTbRHSLQRuIaC8iYfWRkRune0WW+Tq930deTl9KUATcquTvHKgVuBcsKWZZlFUqBNpIy0TZQlTFy7pEHe+OiSrwlxRuFPQY17tT0GJVCDGOVWjzVHdIHgVurxg0axgZezJ0792XmSG/mg5u3GzBFnrSHMkmZMK1SIVQojYYgGtfmufPytKk4ZdIwNh3Yu7eo6HD6/M5B86/NUiiUIbSNMgUSdAHcHRIiMFK0LsFm6sHVlMtJM9Kl5nhQVFQ0c2tWlm/k/c1GjqOOCLhMMY54qUmbZ9TiGmlCtj3CZpNKbTqzOT5XD4q2bp25tWhm1v2q4T3aPLc7j44waeiEbH28VB3Jda3T+0OtDofd4dA77PZscO3LL69fP3z/etVwl0GtNRq1eLwtEKSzW+12s8kV4F7W+7u7/aHd9d2h/ooKcKWqqqrq7t3vG5wBE6VWp6am0glS2qa3VliteimjM+t0ZkdofX39R2OGDh06ph7MamgYHrZx8ue28CCnicLVarXanKuzme3+0FC/XSc1683mXHtoHz26vLwLpFIBxhITERHB0CaTy0BROG7SO5ab9dbQ0Jwcq3npcrs+12HNGRMdHR3d1dUF6CA6PDwmIiLBQmtMLldYGEWF6bLtDofVH5rT3e3PjXdYrdnZ/pwx0eVdXeXlgNbQ4VwFfQQTZHJxijBXILvCarVWhOZ019fn2HMd/hx/hT/no+iu8ujo/wPsUEoGxwUiiQAAAABJRU5ErkJggg==;" vertex="1" parent="1">
          <mxGeometry x="196" y="80" width="48" height="48" as="geometry" />
        </mxCell>
        <mxCell id="go8BSAw1Lf1Zyd6wWskr-18" style="edgeStyle=orthogonalEdgeStyle;rounded=0;orthogonalLoop=1;jettySize=auto;html=1;entryX=0.5;entryY=0;entryDx=0;entryDy=0;" edge="1" parent="1" source="go8BSAw1Lf1Zyd6wWskr-16" target="go8BSAw1Lf1Zyd6wWskr-1">
          <mxGeometry relative="1" as="geometry" />
        </mxCell>
        <mxCell id="go8BSAw1Lf1Zyd6wWskr-16" value="" style="shape=image;verticalLabelPosition=bottom;labelBackgroundColor=default;verticalAlign=top;aspect=fixed;imageAspect=0;image=data:image/png,iVBORw0KGgoAAAANSUhEUgAAADAAAAAwCAMAAABg3Am1AAADAFBMVEUMBQAPBgEJBgcjEAAXCQAJBwIZCwAdDAAPCAkzFwEoEwIIAQAMBwEIBAMoFA0pDgU/MiwgDgAvGRJQMA49IBgcExA8JBsVBgIoGxZBHAUtFgMxHxcRDAo4MjEnISJdOxcQAwBUNhd0TRhlPxNvSRozFQpBJx7Fys1CLidjUkYwHRfAs6ZLPjYxKivDx8i+w8VAHwY/IhEaGR5FOzUrFw9dNhIxIRpfPxlgWVl7Vh5NJQ85GAFBPD1BKiIiEAwmEQsaCQdrRxlRPDBKLBHLycfKxsLKz9TEv7mCXSNHHwqtsrnY2t0TCAEjFRNFJQ5MOjI5LSd5c3IfDQlNQDqHZCyOaCe4srGanKKkpqyutL0tEwI3HRYrJidMNCs8NjY3Ly1aTUZTSko2KSR5XlE/KxuorLE4GQo2Ihs6IQ9GMSlBNjNpWVHCo1NGSldnQxtRRUK/wMKwoJWgoqmvsLS1r6tpQTSqhz+QeXGloqTR1tqyuL8wEggXDQ6lgDdxVkZVMxGYkpFdUk54cG/EuK0zJR9/bmJGNSl4Uhl7dnTGvLW0qJ/ArqGRjI2+urWFcWaOazGZoKu4wcVaT01rUC3m6+/d4OBLKRQZDQY3HQ0jCwNbVFWGe3YjGBQWFRkwHApNMxeEdWw/QEp+cWppRRe3q51xT0JoX11bQzKjqbGWeWvMwreYfnOkrbnN0taVcCqfejKLaVmMhoSLbmKYhHzh5ufr8fO7mk1VKw9LREFKMiMeHiFqZWPBtq27opByZl9MNyu5trevo5qLYiCpkoRcNSl+aFe3rKWFf4BROiBwTSN2WDHRzsqTdDuwjkNOLR8oKDFFMy5WRDqzm4s5OkhVWGO+vr2Kf3pgQSPHw8G7u7x+YTeLdWt7WkhyamqKiIxeX2elnpqJZVSpmY5wST3P0dKNkJWPeVS2vMTW1tFlSy2Zdi5YSUCwp6LItaJvRQ6/p5Z+eXldRh+CYVOhhnafi4F7VETPsV7u9viwq6qUcWF0eIJnOi6Rl6J8ZFJ2gI+mi07z8PavAAAIZ0lEQVR42l2TdVCb2RqHDyQkJE2QZAmBkCAJEiCCh4aQ4MHdKe7uWrS4U7SUIsWlQKFAu6WFeqHu7my9u9Xt2r175wvs/WOfmW/mnDO/5z3ve2Y+AAAQ22JrgcFgwL8Rw4g5AQAwGIn/p6EcxNb6X3kxDHQoISEhEjAAYIC4xBbQCQAAu20LLHbz24bFSmDFxYEY5GExGHFxcYyEhDgAWIBRUpIjlocYHA7rHjn6yL36Y3XZ0e4wMwZFTlIcC6Ci4ptgJLCgk1he6UlPOF6x93Z9SUnJ0998Vm9pWq/+9tv7kvpzR7vNggB2Ky2BxSoR3a7Rh4uKIv5zpqJ/7+3be/v79+/f7+5eXe1eVlbm7n6Uw+F0g804dpsSxSC0qKioKCIigX7N1dV1B4Sr7iYGBsFkMjmEcYUcLBKwEnLkUDqdnpBAf2cZxyOUE3g8rR074na4ulrqxht46gZDkEOCftTXFwlyBqGldHpCqEG4Mck4RoPH4/G0tOLijuxYWbG0dNX19NQ1iI+PJzO2hH3kw2GhpaUG5T1EbeOYmBiChoYG7/Lly0bK1GQLGk2tas3CYjDZxOR8ZThFXx8oBZmZHQ5LCemRcyYStUkxMQS9jo6OpaWlpWIjI2UIkzvKqqp9fcWqxfjIWG1ANjMzC6bs3Ckn10PU1g7U2759+5K9vb0C+wc9F4IGTyvu6lUZGRmZELfwcGNij2EvMBsI1leShARnXKCC/Xb76Gh19ejAHyA0eHFXr1ZWVl4VGYwgir7+PmAWpCQpKam0U05KXcFeIVq9wBAnShMIBA0NnpaWFlTfLUTGjSGaeR+Qk4RQMg9QV+cW8NVxgYGBgaK8hgbhH0HLzc0tPCiI8qP+vn1AlO/kFxRIm5tL4USIHIJGh1WxqrJJcjL0QibKqn1WkTHEHiVIEEgXSO8RdMo5Gxoa4nCGuK5YPZcOvJGRMpU6OGhBoyWbWAxCipULO1IXSEp6SEvvkXfaKefs7Cxl2Nul57JdhIuLHkQsiRRDIpFIxiRDqZjSP/4L4FAcmtrDXI6vHm0PPWl0tDp0mTbJ2JikjcMRyytXIsOdQ5781Nz8F5DeIxATzSHwQKsXFKirB0jz+XwpCD6OqG1MxJFa3xYWFv790ncsKv+nm0CgIi4G/UfQINJ7kAKkOV9Kim9ujiv33F1aujuFKLW+mJi4mHjp4m3//D8GbgCK5DYlEqGXLy29RyAv8PAw5/P5Hs4GRx83j0WNpee3Pwq3fNOU+OvbxMX7/U+SBjzBzSTddW/vi9l9Anl5gaBT4OEhMNd6HOUw5dDS0tJiu5BXcjDUxDRx+lLh2mj3u9ZP4ElF9szMpUUvVRUVeXl5eQ9tGbJrDqvlVb7moba2toWF7+0bfivUwmwhDa86+ulTH2BAFya+WeE84ZiFMHbX+2Ws5s7PnXVccLRmslJZtoe+57lX4oWLM95CWrFVJBnoR5p6/bpmWf2Xb7Nfs+9qlP8rTU2fnG9pjj6ZDTZ291KZjguau1WFiYVv3wqtyDduAP3zXmvZ1LB6Xwf/fL/cVE3bA3lt1k8/f7mwes9uaMLaeqP9UJvtS6/FS9PT66M3k24AIgFvUUiNSxmpzy15dNBhysHfX/P105w5u7MNQ1kRdq+tJybsXh+aN7o0M722fjNpAPTGWg3OJMe9GzlXf45zzn/KP/+V5uvnk7O1J2prxk+PTxw79ktd3YX2h2rZ3lUvOUkDQKoLT22itdITPtYf5Iw8TR+Lys08Nfvs2/PMTJ+04WcffoGEmtcNRt5eTRc5SWaA0oU38aaZCr2aLl5cv3MmJydnfn5+bu7hpM/7zLRvz459uH7s7HKNTfsZWva0kE5vBVdi8KpeNLzynbX19fONDXdtrDccDy18t5vLfF87mfX5y4dddTrLNXYXhmjZQlM1CxNwxRiv6mWh5Rk2Un08JT0/I8PhFYup2b4x//XEZNbp4bkvOruWd9ndYi5bzJiqUY0qwRWKlVcT7ci7bveDZZzmMb90v3wWq4W1cTbi84vTD0+l1S5v2DBZt5gTtOmqn410B0C5sZ5pNu1ICiTsPpebnj7mf2/VJ2M1bXx2+PTsqTqdXXl5tkxWng3Nu+pn6uEk0Nulh/dWs/IsdX9cFhaf0NjY3/+gsbHxwYO52azTv5/S0dFh2toeyHO0WfOuKjzpmgR6FHuthFV9lqGP6j+GMTg2djY21hdeO7a3Xfj64s/x6zo6Opq2tgccHW0sTqoJ1SIZgEIhuaiZmt6/f+Zl4zXX26kZGVEZqUzmRlvN78NZk9d1dBpsD9jerbG2Sz5Zhcd3IQElqNyCqqY8SDP1ahLeqfDz9fX1c3DIcHBsGH+RNX5dZzmV6XOits5mSPmkqRG+FwF6KOGqeLUOK8vR1vtvVEdLcn19/XJ9ozLupuW8yJo9NdTAPPv8RN2uidYlb9NiRTgCmDv39FqpFUemcI7vPR66Ep+SsH9/RERF45mIoj+znk3W3mKlpQ0t19C5RkIqDIGGAT6fr+hCpeJXQo8fdO8+HMwIu5XKYrJYTObX4cujn09o3qvNrPFJgSNlYbIIWS4KKKLRaBiaXRxrSNL1NIgnMxiPo6ampvz9W54/JIgdydG0tr5b4iYPQ8OQSFlZWRhQFBnSMBgaOkJ0djrJpPulZ0SlP31g2enkxKvYO+KGcELIBnBRaBgMBgkBaEUUl8tVhPaySDgc7qYb7xlPMjSHizk5OcGdnJwQSCQSxlVQ4KK4XIAKQCmw2VAcjVJEw5AIBFxeTEVFRUyUhsPhUBrqBqWgwFZgswEKhVLgQm2hFdjRilBXIuCbIBCIzbgsDMZlx8bGsgEXhUIFBASg0dHs2FhFWVlRPeSWhPinPNR9AArif9S0DOILZBkqAAAAAElFTkSuQmCC;" vertex="1" parent="1">
          <mxGeometry x="360" y="80" width="48" height="48" as="geometry" />
        </mxCell>
        <mxCell id="go8BSAw1Lf1Zyd6wWskr-19" style="edgeStyle=orthogonalEdgeStyle;rounded=0;orthogonalLoop=1;jettySize=auto;html=1;entryX=0.5;entryY=0;entryDx=0;entryDy=0;" edge="1" parent="1" source="go8BSAw1Lf1Zyd6wWskr-17" target="go8BSAw1Lf1Zyd6wWskr-7">
          <mxGeometry relative="1" as="geometry" />
        </mxCell>
        <mxCell id="go8BSAw1Lf1Zyd6wWskr-17" value="" style="shape=image;verticalLabelPosition=bottom;labelBackgroundColor=default;verticalAlign=top;aspect=fixed;imageAspect=0;image=data:image/png,iVBORw0KGgoAAAANSUhEUgAAADAAAAAwCAMAAABg3Am1AAADAFBMVEUAAAACAgICBAEHBwcFBAMAAgASDwwHBgURDQkXFBEXEhAfAwUgGRUOCwkqIRobFhIVEAsuJh8tJBwjHBcLOlUCFjsJCAccAQIHLUoJNVIMU2koHhYHKUkXdosjCAoMDBADEi8RQ14eWXELCgoLRWNjQj9cPDoNWHI2LjQYHB4JMEwQCgU9NTwPYXcfaHwfeo4tlaoUEgwEJUkEG0NHLQgWR1oLPlQIXHSMfpEdXnQXfpBh1edhW2oBCiUiISYWTmYWSWQFIUUUQFhpTk5YQkZ6anoTaIJ/b4IwjJ9LvdEmh51LuckkGhEZEggBEDgnERA3ICJGQUswKCprYXJCKSobUmm2gnQKS2RzZnd0VFGjeHEfcoVhR0gqfZE/la9nzNgmkaZBtslDO0NySAWufGzDinhrXWxRTVsVXnaKaGQmbX1sRz2IXFEKaXsefZKp9Pq0//+G9v1UzNwtnbBw4fBRVmALMVA7JSZNPUMsansINUuMcncmYnYBCBoyeZgrdIimcVuei6GUZFBzTUk8kKMicI4QbYVftcYpg5YWgpUdi6BAo71RxeAxmK7C//9Esck5oLg6rMGc7fN1gI5nQw1HMTJKRlMvP0e6i4FbTE4MRliwjIWphHs1Ul1iVGSOYlU7bYhMm6+HdomgaldVo7ZJsMDW//9YxdWF/f82pbed/f6D4elVwddxzNl36PMAIE8xKREyW3MIHzBJMxs2HBUPKDQlLDF1boBJhZh7eYkaV2mDVkZ/YV+PhpxDjK/t//7ayuu4pr1qVFmZbF/p1fkLYIJbY3GK1eBv2ec6qrwgaouL7PMcXYdAQUhrc4Ffa3ttZnImNDlRNTI0SlYxRlF3W146WWCeg5BgqMHVudSunrzCud2ZlKY2fI04gqhEbHx50tyFydV3wdKM7/pOstFjvdRHSkojUWsPFCh8TghqbH1mTipaOgaSnriClaDFm5R6b3qcd2t9dImplrCmqcf65v9QladgzukqcqN67P5xZ0m9rql/k6KVu8uA2f/F9PeTgpIDAAAH4ElEQVR42oWUZVhi2xeHN3VK8CjCERAURMACRBTF7rx2d9fYOY4x5tiOMd3d3d3dnXc6btfM7fvPB4y53+7vwznrw3r3evezznMACQAAyCQymUzTVaR/CtADANDIZBoN0P4ZAWAKIJHJgGZz0GsSoU1n+hDaVDPQcSo6g0S+MW9evQ0g6QTJZPLkUTQLMm36bP2TRCVB9TetbcTWcR4LY25AYBKYULCon3cRBVMTJgH41vdFXta5Kz1iomO/iAXkT6GJ6+cdWWIIAwCTJyeQSDAVvfVNbKP/So96a1Pz3BsWtOl+QBQdut24YEE8/eDNekgPkKhUmOrlsdDa/6xHXJGZqUHsQq9PACk3OTngrqS0dMnNf//wBZj0ganWHjH2KWfj4mKiDEyjYuw/DfAKTF4iOVZ2LCXum3l/OU1cAIYJqr3HwoCyB4HJueYG5lHWuVNONCg5uLC0s7PzeGHh7W/nfzaxWphCUO3jitLPNf8cbG9uYL4/1ppOppH1K7j9tCOlvb29JLkw7tv539lNKMEEQY55Fpie+ui8q7W5gYF5VPTMaDpmhGF2uadPN3/Ib090DQz0/y7PaXITMIWAY590pKemntYDBnomemZ8/Mwzv54p+TF/8ZOOjuNOTnkRug+JBKgUggKbPO0IKCl5+tE+ymAq5uYGAZ9/fnx5YvuT8+fP7IvKc6JS9YvUA9YnjgSkdJ34aB9lamA6jZz4JbhsXWfq+V9PL7Hb/3UETJ2YoFc6dGhlqeSnI7kL9keZG5hOxP6XZ12rysoenXlyNoKa5wTDMFU/ASYIAvMoKgyQFro2LgiQBjSnSOOj98enH/k+MKWrq7nj52Bj4JTHoMCwTkqnRIjtYjwKF0Q3xsXES6X+/1q2bPHixT8uc3VN6fJvfuR6wp5A8sxggkLRSekBAr5zzyt65sxYa6lE8mB5fmJBQUFB6tpkiX+wq+vaRgyguxEKQfwNwNe/2Bsbf/euxF8iKdEBiYkFq1IeSANXrl0baG9BEh4wE1OmAJigwC//e1KUcK9RKk33l5R8SM1PzE8sOFcqOeu6MvjjoRsWrWrH3RF6JxIAMEyheL05WRzUd+X5inRpevqqc/mL29etW7euszQgeW1w8EIbklC960AEoVOnkgCFQmHYrEiSzQkPHcl4KJH6l61K7Vz1YfmyZctLiu5fvFh0kAI82bv4OIOBMHQjCAqFYYQ/L5YNXwkf6Vsi7So7duxc80/Pfli9+vGbS69fLjpAIrWy1btsjBBITBAUgDAYiN2izCBZmrIiLPvliouBpcdvzf7PqVOvR3dWbZz759Ac29ZWIXvXXpUYQhgIAhgMBMEPnwwKCqoQKMMchl+Nr1+tHByvrKy8XFm18X91dYNX+a2eQvXeCAYEIQgD6NZ25/GLoKCg7LAQh+FXVVu3bhgYc69xr67auHmz+9iVd39c53t6sveqEIghJgjdHexWn5TJ5RW1DhWCsG2VW7deDhvZ5L55c9Wpqs01tUO/v/jjOteXz7YwgsQUggBiBmHTsnRpEq/CodZBIMip2VTze+i2bXXV1XNPbayqGXF3z7x+9TrXl20RAYnFDATozGw0sxRJsh5BRb8gZyh0aMh9blXWlfAdl15f2pkzOnZVM2cOS81uRSAIgowAAkGI3cPHAhfehQsX3Abq6sJDt1+aW1UVXrsle4v7zprRbJnV7NlWvuyvPjMyghAIIBDCUB1eU97DC7og6Hd4Wx2eXRs6Pl65LWd08HLdNfdQB5mPltfgK9znBCEIhABEhcAH16SVlxeHZCj7N1RX12Vnj+XkhF++tn0kZ9OmLdmZliwWR+3oiUHTgN2KFo2MlxYSIujp3Xbt7YaBsZztO6vH34/UDpSXh2RqWSzfBj+hGIEQSIUABIPsbJwVSVaKvu6QHkHYgIPDcFbWjvGtle/HBsPSMjIzW1givkgktEBVegDFMMjufreLjCdPyxD0uCn7B7Zc2+nQt/5NZt/g0Pqj2udarlVSg5C5D9f9qzCAYRhm9HC2zIXnIneRC8K39PdvePune4VA0DO8veY3S97SBg6nIdJwviGO4yiGAQjDjNA9SS4yhdzFxUWZFVpbProjK2tYqezetD3rsJbXxHdUOwrNTHA6jqGoCqgwDEHvcHk8QZpMLk97FRrqVu7m5jb6rrd7TW+v4qiGw/f1dRTidDodVaGYCmAqDMJsDmhkSmWxViHvzcraoHRzc3gX2jujre3oUq0tx5avdhRiOgDVKaEYiqIozrIqlntbthXzFBmZIRV9g+93/KZt0/q1zeI0ObPUQhJmYkLH6TiKAhTFcRz3Wu3D41lZzpjBS7JKSgtbo0x73mKpcG45PMvW2cdP/ZXTbhMTOp2O4zjAcd3r/mzLJD2g8E5ShIWsD5En+CXMsHT2duY6+zQIv84z0wN0ugkw0VeL9vgkeIsSWrSWPle12u413QpRwqwZGo6fc4OIxfZ0YproY2ZmCCaq2BUibx8Ri8XiWmWkaZb6+fmIZrUd5fBt/Th+vpGeFmb6GBoaGgJDfZj3vvxSxNXFOyPDuclWlMDSeDdwOHxfviM70tNwt9lEG5MJjI2ZTCbTcNEeHxG/gcvlcBVaVpPGMkHD5fA5fDabz46MNJnP1PUymcbGxsBYH+aiPSIrX0duA5ujYTU1eVt6a1i2HD47kq2OjPScv0/fq8//AQPbb3nOSCkGAAAAAElFTkSuQmCC;" vertex="1" parent="1">
          <mxGeometry x="442" y="80" width="48" height="48" as="geometry" />
        </mxCell>
        <mxCell id="go8BSAw1Lf1Zyd6wWskr-21" value="&lt;font style=&quot;font-size: 18px;&quot;&gt;&lt;b&gt;序盤アイテム&lt;/b&gt;&lt;/font&gt;" style="text;html=1;align=center;verticalAlign=middle;whiteSpace=wrap;rounded=0;fillColor=#d5e8d4;strokeColor=#82b366;" vertex="1" parent="1">
          <mxGeometry x="59" y="30" width="110" height="30" as="geometry" />
        </mxCell>
        <mxCell id="go8BSAw1Lf1Zyd6wWskr-22" value="" style="shape=image;verticalLabelPosition=bottom;labelBackgroundColor=default;verticalAlign=top;aspect=fixed;imageAspect=0;image=data:image/png,iVBORw0KGgoAAAANSUhEUgAAADAAAAAwCAMAAABg3Am1AAADAFBMVEUIBI0HAXYHB4oAAEcEAF0EAVoHB4cAADIFAGEIAYECAVQHAGwHAXMIAYUHA4oHAGkHBH4IBIcAAUIAAD4AAUsDAVcGAGYHAX4AAC0FAGQHAG4GBG0IAogHBHsCAE4HAHsIAJgBAFEHBJIAACQAACgAADkHAXAHBHQHBIMHB4IAABYAAB4HBHgEA2gIAJMICJEHBo0ICI0AADYIAJ0NGaYJVcsOmfUJAKAIAKMRJbsKArkDA18IMY0LAK8UP95cef4JD5ELQswNPMUHjvEPCrMHBLILFrwGCHsLSsURIrAIAKgJT7cJKr0KEKgOZOAIhfYPevIRLMkQD8UNPvARcfkRTtALh8kTK6ELXtYROKwJcMMJe+sOe9YIq/kLEps+VeoPB8AKCKZHYvgHCZoJErNTcf8RWPorv/UMMNsHffiVrf1qhvsKXPMRUe2tvf8OH54RM78aMa4NHJcKZrcKWqgKQrAPgu8IN8UJQZcJtfwTsfAOR/kpZ/cWYO0cM9gEBWQMDYwSJpEJTqALfMQvKs8gNr0HivQjGcQJaMcKIoUN4v8MY/8K2PoLatoVUdwmgfgTxvxMXe0qQ+AObOs4UvRecvZGUNoTFtIIGscfQusOGowJDWwiPs4SR90LHXoHoPgQTf8LzP5AQ9YIsPsHk/cJhOlHi/87efsNwvZDXPw7SvBlfvVCZu4kJMIjT+4WJtaKv/0pd/NPg/8ep/eFmP4JZe56s/8PI6IIEoMNClkKNp4nnecKceYIb9U1ONIyQ8cKXMUIpPotUN0KYfsxSdM45/8f3PsIduUVBO8HuvtGufYtL7wczvwtW/gZkOkTSexfov9Yj/ZMZv5qmPglNsp3of+J3v6v7P+Mov+gtf8/p/nq9//V+P/6//8RWdwUWeMIneIPMnwQGWIMSpcgFKcN6/8RG/ohg95a2/ti5v8pWuNsj/9KefYOBdBIlv8fieBBbfd4kf+ZxP5gceTC+f+X5f0QHb0QKG5yxfcIJ31OyPc7bOcxhv8l0/22xf9fuvm5Dp+SAAAIP0lEQVR42j2WZVgb6RaAv0wmk5mJzcQnHkKsJISQoMHdfZGW4u4stKVQoFSpK3V3d5ety9bdu753fbdr1+2ZcPee3+97ZJ4zz/nAGDr8/PwMBl9fX7lczg4UMZl6FmpXms02m5mrEMASvUbMZAqZQqHIyAajvMFg8JXL2Wx2oEgk1uOwlMbVViuhZnA5UqmHJcFxvZgpCpSDUZzOzg40Go0ioTc9jRNWBCFJTGbjcigUhj0SXCxi+9ICnVwuZxuFQiFTrNGzKLvJpiYICwk5AYCwZOXaDUOdM9d4WGIR2wC8PDuQbkaM4zguge1KpZmwWmg+gO+MaZ959XL5hcudykGWWMg2AC9vFNHNaFieQRS1m8w2uhkEIh1lYUvLd++Z8QU5dWhQOSjxVvDyQm83uMeuVCrNasKCQBBJxqQuXV6+ZcbsSCBQFq21KymJhp7Bl80OFIqZTKYGRwX0tyEQBIIgqGxmVdXuPR/MmJ2gM51es0ZpVlAsjYgtB2yjUSTW6/U4CxUoGGrCaoUgCLgv7P0u+tHuPTMqwv1NrLUnky02kxTWCI1sYBQKxTiLBaMUx8QgLAid3321+WlzdG1V+QezfwiXeU4PrSF5Mq4A1jCFIiBkMvUelJJyFAwthiAQAmWua276rra2tnbJltsrb1aYT392xgq8Ai5mCgFTrJdIpQIOlyGzQBCEQGG/NjVFP6qNjo4uvz375s3wtZ99OmQBPBlDAEtwjRiI9bhHqVRwGVoL5HSSZUuPtf1cVV41En1k35P9DX+6mbnhLz2nAoAK4wpQWIIzgRhn2c1mhlaL8R2OaveSF021y5cvGdn7+Pur69bX9a0sm/PptGTAV2EMAYXCtCDxKJMJDPPyYSMvj1UdOLC8auTQ4xXf9i+M6gtrj/h8mtorcKTUoIQJNCzKnGxF+MDhqB7Y2/bz3dbW/invDv2y5EKnOzMpP6yop3uaFgAVpuWaOHaPGGhYdpsV4Qc4HJUDzW3H7rYuGzfx8MNDe1fc/qIyc1V+RsnnXd1aAHiYjLCZ7R490MN2tRVyOh0+uc3/flF1v3/7gqx/PBxZsmV/UoKuoW/ShO6x3TIAVDyLRc2VSsRAD3PUCOR0BuRGt718tLr1xsDKgZ37VmzZn1DpX923aX161/QuDAAVSVoILoqLAY4qCARy8lPfNbWNrI5a1rDy4NJv6RUKUWFJmza1BnUVTkcA4PNVJGFCJRqAUwo14nSWlb9oa96Tn5Wb9yTv4MG8isiksNSyP2+qawkaW1gYAwCtECYpSw8klEkNOZEnzW3HlucvXJW3oqaioiI80pWwKi8hs2/eleLhwsJ24OMDAvgykxTWA5aUS0BQzL6ml9Gro1ZV/Lo/MjwyMk3nr8urSAxtmHel//z0whLg4+PjAzB6nQAs4BKQZeaRX55OaX34uGlFeEVkaIjO39+/MjxUV1M378qC6YUpXp6PMWgBFTAIxHr56aEjdf3Pfnsz8ENeWohX0GVW++ga5s3LGjs9iOYBaWFwUAlAOQyL9dS+Eyd21k159ub10pV5oaOCOzYurDKppSBreGxxGS3Q20GxgN1ksya///2JBwUth39/+3r1wfDQEJdO5+8/KTGxpiappTHrYlex24feJi1XQMHAblZbk4t2nPix4Pii529fH2hIDHXpXDp/d4crNNQ/NT67OL37YrsPUPEwLUOAwoAyqa3moh0PdhQU3Hv+9s3hhki6gE6XkqkLcfkPf9gY1NOTftKHz/MKUg9AFXSFIw/+WdD46rff6/8TFRnicul07hRXSKiuundyY1BExIR2oOLxMIJhssOA4tgsSPvOHxflNL56tWxW/U+JoS5XaPVwRlpami597vjs9Ig5Je+PCjYTxQJShY1E3n+3Y1FO49Gc1pb4owvTKjOCSj8JioxMc30yd2v2hL/NKYkBfB5Pph4VTFoSmXpg56Kc7OD6lvyWibdKLwYFpcSejwtPy5g/d3L2hA1zOqc6gOoPgcOVkQBZ927RuOxtk4/ez28JPpc0KTY2NqU0N3L7l/O3jjuzYagIcQYA0kLYlKgECGiBn3r3cE72to2Lg/P7GnMTMiZNiouLWxC7a+7mSwvoEfgOWlCbpDA+WiFg6uopOdnxweP/lZNfsCohIyOspjIzrnf+5q3x6RERJc4AAPgkYRagEjE9A8YPsGbUFUycte3SrsXHjyclJiTWpHxVf33+rvHxwz0RJamAT/9w9AQaJr1LmAo4Y6L6c7LjN26903s8qabjq/pr167P39V7b+y0iKKOGK9AmDmwnikCsJSrxVQASr2/LGdW8PgP7xz9qff6l3OvffPN1/VnS7t7IjrcfD6fpCegWBqhEUhQDleL8fhQx8fnxtHG4s2bFy++8/Wz5389W9o17UxHmDMA4pMWtdkO40xRINDDlIKhlWGkI+7jZbQxefLW8b31f79162zpcPqEuFwn5CQtaptZiUo0wkA2EOOw1GvwY2I/yjo3cdvGSxuD6bhH81G5TgSyEjabWUmx9Ez6Agk1XkOG8VSOjoUfZd3YHh8fv337uBvnL6bERoU5EQTx8lIYFwsD5b5AxNRIWBTHayDt6xa+F1SctaC4OCgldn3UgBuCEKtVbTMpBz24mGlk+xpA4P8NGWbBnCfj3vPG+qioXLcDQiyEzawQULBEwxQa2XKDH2AHCv9naLVarUybfGqos3NmWKo7BiJJi8xm4khRFk4/M9hyX4OfH6Cv9Kih4HK5JpNSqeQouAybWq3VMhiKP3AjW+5L82OAwfvg0eAsVCrgCAQUhVJSqUDA4XAUHAF9pfQaLy73NdD8mP8CBmRcQnzKPTIAAAAASUVORK5CYII=;" vertex="1" parent="1">
          <mxGeometry x="182" y="210" width="24" height="24" as="geometry" />
        </mxCell>
        <mxCell id="go8BSAw1Lf1Zyd6wWskr-23" value="" style="shape=image;verticalLabelPosition=bottom;labelBackgroundColor=default;verticalAlign=top;aspect=fixed;imageAspect=0;image=data:image/png,iVBORw0KGgoAAAANSUhEUgAAADAAAAAwCAMAAABg3Am1AAADAFBMVEUAAAAYFBAPDQoUEQ4aFRATEAwWEw8YFRAVEA0XEg8YFREBAQAMCgcSDgsKCQcYEw8cFxIVEg8SDwsOCwgRDAoPCwkNDAkJBwcHBgUDAgEfGhZgX18aFBAjHhshHBgSEAowLCl0dHQcGBMnJB9mZmY9JBMcFRFeQi1wVUApJiJYPCk3Mi9cXFtTOSUmIh5PNB5TNyE4HxBaPylbWloyHRAlIR0gGBFROzGenp1XQzpTPTNJQkB2W0Z5eXmSkZCmpaUvFwYdGBUaFhEYEQ5RUVBlSzR3dndTVVNGLBosHhNWV1WGhoZMLxt9fHt6YEssKSVtUjw+MilBKRozIBVeVEwGBANNTEtTQDZMNilJLRuNjY1ROiuBgYFALiGFhIREPDZ2cGtAPDp8enpjY2LDwsFNMyElHhwYDwx1WEFiSDJJMB80MC1tTzyFaFM+KiBHLhpvb29DQkBLMyRXS0FpaGk3KB05IxWal5Y1HAhXVVBsbGtcUEpfTkQ3LyouJSJWUk5xcXCTeGFAODRyaGB3c3BlYV2cm5tcV1NYWFitrKx7d3QqGhBramtLOS9gTD1iRTFNPjdpTjcrIhp0WUNcRTA7OTdQNidkSDdcQjRXQCw0KyYvKiVPQzhnSzpRTUsqFANENy5HRECVlZRyW03Ozs6Kh4TLzMtqY2C3t7UiIBp6XkgyMS5DMChEKBKKiomBZU5cSDxbT0eHhIFtZ2VGNCoUFA9MSkl/gH6amZpaTUZ8Z106NDFZQDBEJxOGgn5kWFDl5ONpUkCGcWKNdF3Jycmysq+Uk5LS0tK8urppZmJMNiVELyF+fX6IbFZrTTlmUUZZSD8gFA+BfnmMcFlLOSh/Yk5lTTuZf2h+ZE46LSdZRkBHPjdmXlhRRD00Ixh1bWPHx8VTR0G0tbSqqaY1LSJJSEhaOiZbRzJEMiF/fn9ROS1uWERVS0V9cWmPd26agGiclo9xbWjV19SVfGRHNSRsVkKjoaAhEAWCa2BjXFt8ZUyCdHKYf2d7bGHT2NSQgXPIZJRvAAAH9UlEQVR42mWVZVxU2xrG19o9xQRbYIJhhhkGhiGHboZOaZBuFAQkJETpxhZFxW7FxO7uYx3F9pinu71972+Gc5TrWZ/2h+e/1nre9e73AeCDxWIjHNwYAGCEiXQicwc3tx07zKU6HeQz+LiRqelf9CYWAooWAhYlEkndFGqFm8KtpKREqgvCeBgT+QvAMkFxlCMEYJJU6qZWK+Kmb+jt1ZQ4uEktdTqMSbA/AFg0hVPBKQCweOaKuObcteKmrgNR1Q5qtblOJNJhkG/0gZ6BMhj6TYzMZT4uB5qawuTKkOpU9apVDjqRuSgIMk3+T8+BBAERAMzU1Xbz5PKqmfIwcUjqZy4ymSxOKnIokTJ1nIkAwoQQcljATBx9JDZMLpeHFSijosJDwpfJNBoHXkmJlCc1nqA3CSIhyRcCsDP6hp9fbGzsjdg2sYtLVEhIqqxjwyqRvlZuEwAjkiQxiRkApjOzCr6Kjs7KycioEovFdlEh4Rqf/XnDS1pKJApkol4iwdgAAFlO9J7oI1kZ/hkN/kqlsrAvPDzVZ/+Pz1qGHURx7Hd6jCQxHsICgCXekxOb478xp8qvxzNrXtNMu/Aou6fdec2Pmx3U0/8EzCAmIYNQFgBgZ1aBX8bGrHmFYr+jRz1vyKvswl3ErZrhlg7NjhOaP4AUBklCCSEEANA+YRn+X80sVIr7/DY2eDYMtNnNsivs9WkefnrC4fD0cdNCCkIogWYAAOOSAv8wZaG47zPNkoT9nj0Be9rEs8Tzrtl1++TKNK0KwwkshGBAqNK/OlvVEqa0Cz+8TP3x23VvZ3t6BvTLu9eKm9qUsQc0ca1rqUl6vTGfYkCmvmBsns48JDV/p/nUqUk1jYGupwMCtm+Mqi6Uy/23bIhrzZPRepWRAEe50PDF0+l0smZp8NvIL+MfWa1bt75/e9HLqrVNfgG/+7T0xvpwBPrGoS1QPlPfI2Yqdx5PJXKPzLYvjR8JtQ4MDLy7dfOVfhe/S5eOrd/2UwdFCTgghUYs8GD9LyCMW7VE+vjg2BdLHa1OLdbuXrgwMDD70n82X+y5WvRi9bcneBSDwi2AMYLgJvr9hWjHwLXeztE7Y/WujWVr0k85+a6pD6y9uPXilas/Jq9SoQTXANA0IoiLU+845KBoLrh8bVbv3w86W1ktP3nqlK1N+YOIwBcvixr+2ylgqDAIDQBCc2hZ1zaXPjtxX9SbN6e7qxMq072fXdu276SvrdPyTNcnXonnnwZbBmEk5PJRSg+YgcP+bUqXDcs0A0VXf788O/vrPL/CmQfmbLKNKVuZ6brO+UEdz5KHkSSXQHGAcNiAJRzoP9rTE9sya/uVi69f1TwJOBugbH21aSix5vrYisTGxLmWegBCPcBhs1gsI/XG16/7Xz3PD/j55/2VmbMvnz27ecurTd5ntg0kD63RJn5s6c6DJAkhSgETIQuwoSD/zfbkpPq6ru3d2WUr5tzdurXo9Jl/d7Y1vHyWtlJrne3uzmOSehM4EOp7G2JB3WeSniclPT5oFTG0YkVnf5H/mfPfDWQVnf1p9Uqt9h8JmN4DZATjgAVSCJI89OmYs2tkUn19vbOVve2KBd+9mHP8+39uydh8JSdhqXbw/LAKI0kSEigFgJAPISldMMN17lxXZ+dG5wgne+s1C25v+tv3x7suXw3IS1tsc2G048SOQyQJcZTSDyMuJBJKGwPnulpFFNsvLF9obb1w+fJzx88fT+7qmv3JN+3tk3P7XFJ3BhGoHqCDGRASq79wKrMOXbM4Pt5m0NfXd1r5cpvJ5dr4c+d+O/fbLxd+7VDKj9htkE7loxwQHExAGLTgQanW1ra0NDTUZnCajc0038kj1rs/v2Xj6xt/4YdHrrlNVZ6e4nw+HzUFFJ+AUPVlWYztSnttaOjiwRHfQZv4aSPln9+6X1Fxf3Dvv+45Nq4/4r9/rQJCwhgACiW4JBlZHFOWeT3G0cleu7T0VrnNyN69FTdv3rzw8OEv7Set0n/tzOcZ4ZDLYekBPgOSqrqyusi56enpMc5lTtbWtsXWi+MHJ1fca29/eD9phn2MM85BIeTqx4QBgJiqbiz7+UdDU4YSIxy1obb19vZOjukx1hUVPyytd3Sqd8cFEDINM8YCpxhciHGXpM1PzE7zTttV51Fz0iOyptjR0dHKdWRve9kMp0guxSEgaZhzgCOg+FwIIS/hYOWu0TteUyr3eafti/xoqHhGxO7dvo/uFTs9hwyaYEKYMh4KHIpvuJTPt/PnJyeneVfe3ud9u3KKh0dNxAxHm8leiRE8jKZUzD/DB6E5OMpncOGsu3m1taNTvHadqfWYk7bIOy3zur126QKeuzsmEASRf1wIAAShLVA0mEGIclcP5+bNXpSQXDvfY9FqLy+P65mhK5fwVDwckQSRhkGqXzSCWFjgFEowKFSw7GhOa8Jo7aL56z95cszr68xvxlTuKgYSrMKY75LEZBKN0BwOTvEJgsvLT62GIZ492zS5u7zuPPHe9KlKBWlcgpGGyT4OmEyiaZrmCAxOBKYpgDkvTJx/uvPYseTRRSKeBBFIJJB8n88mxmzj8UMEOJ8wBD3iplBEb754qSF6GaaiTAgMkviELDRis9kGBkEE4/liivLRnQV7otsOW0LCRJ8d7xwbAMMyIGxD5YQ4AbmoSDZdRhAEIoCQ+96xATA1NTUgbONxY8YEn89gBFMUxeVyEILLYLx3DMD/AGHaU2+aYWijAAAAAElFTkSuQmCC;" vertex="1" parent="1">
          <mxGeometry x="490" y="200" width="30" height="30" as="geometry" />
        </mxCell>
        <mxCell id="go8BSAw1Lf1Zyd6wWskr-28" style="edgeStyle=orthogonalEdgeStyle;rounded=0;orthogonalLoop=1;jettySize=auto;html=1;entryX=0;entryY=0.5;entryDx=0;entryDy=0;" edge="1" parent="1" source="go8BSAw1Lf1Zyd6wWskr-24" target="go8BSAw1Lf1Zyd6wWskr-27">
          <mxGeometry relative="1" as="geometry" />
        </mxCell>
        <mxCell id="go8BSAw1Lf1Zyd6wWskr-24" value="" style="shape=image;verticalLabelPosition=bottom;labelBackgroundColor=default;verticalAlign=top;aspect=fixed;imageAspect=0;image=data:image/png,iVBORw0KGgoAAAANSUhEUgAAADAAAAAwCAMAAABg3Am1AAADAFBMVEUbFgcaFAchGwgjHQgnHgcpIAkeGAgyKAslHgguJQpNPRL///9DNQ8sIwo7Lw4jGwg1KgxqVYs/MRBIORD6+P/BuuSmoMU6KU1eShVsVRlyXZSWjLaysdHi4vv7/P84LBBiTxhUQxRZRxaIbCF3YCDz8f93Z5d7bZxyWhvFxuXCv+RZQkpaRnGFcapgS3yQfrZ9cp51YpWQhbPZ1PaSibUXEgKNcCOkgidsXotKM2iriizNpjjc3/TTrUWFeaZwWJVbNk6LgapkUYTe2fiqm863r99BL1K6tt1mTI2dfSaCdaKJeq94apeHfafTzvLx9f+qpsxkTSnp6vyYjb7q5v6gksXx7f5vRk74unL/9bQ3EAM3LSmCaCFPOWRHOEFeQ39VP3GYkbl/YiGSfGfh5vi9t+d9ZZ+AbaGdmryblLzQqj3p7/6JdqpnU1317OCVZ1zMez7gk0/+7ai/bDTAczv/+8QoBwIrJRyUdyS7uthROXZ7aJ+4kyyfl8RTQjrJyuhzYlhcSIH69P/1+v/Fwe60q9mvp9She4Tln1zHhEdSQmC0jy6tq87NyO6+mTCAdp3IoTS/vt3S1+xzZZOdhcM/K12AcYvLqVHTslTZuF/GpKXjtX/CnGy9pIj90Yf9xXn1rmeNhK1KOlhQPW0zIFLDnC9kVXbR0OhuWC3FyOKDakBkOTmObndqSm2nkq/q3/rEq8BSMTHfv2utoNOCUEbZhUL/+ueGRB///+OkYjvzyYj/5JckHAZ1an6ggzOzl0dlMR1yWVCOcjzJzuXOrldzPiqIXFluXjPTsrO/suG4vdWBXnri1+KujUKuhYvNxfTu37djQFzVpGXizZPSk1P64qxAMThWNldRJxtML1G/qbGffqFHJy/Htc3iyM3u5fHr3d6jiGWRdJS1mK3RnVynkJHbwceec2HrzYDw26D46bxsKgtvXHaZgUmrlmP48PLzzaiZVCy/h2PewrmqnKX48Mjg1cf02LjRt4rKwaXx15foqWaofTFcPinXsmOxYy98veDpAAAIcUlEQVR42l2WdVAjWxbGO9JJd6eT6STEAwESCO6De3B3d3d3BguuA4M7jDPumnF3d3d57ra7byswM1tvv6r73/nVOVX33vN9AH5JEEjFaCjKoIkwMplMhmEqFQRBkEggATgcAADKs6RP9VQyjYkgCIoyGDSaaJGCqSBIXEbCASQA9/+AAiQzEK66OperztPR4XERBNHkSVJ0uExMAZFhIumfgEKBh2CUy9NJEXvbrujrt+u39bY9fevDn+//cyUFxVAmjUgC/tEBgmEqQ5MXV2W1Yp2dg4PD2PvrBfvK7/x1u7PzXzwEQRggiUTCfQEUeAxByShXx9Kqe51dztj4rV/2HThQcjiqqKystFPM1URoZJhMxX8aS6EgQCImTaShI/buXmfncHrX+5I7h6PLyw8f6iguKi17/e2mc+fOqWsyYcVSBwKBAJFFIqZ6nNWKfoex8V1RxcVzM4fLPx6aK/57/1df7Z+cfP369c1NmihI+gKAGKohserLGb9ecH2yrLSoePZQ1O2yMzEVFRUxX5WWFu/dW8RLQb4AEBHEmFzxitHx67/Nff/LoaKyor2l+2MqYnYWpk5NHews3Tt3O9iqigktAcsIyktm8o7d+vDnob+KO0qi73TuPx5TsfPNrx+jo6Nv/nBzb1FHSvc6MeMzoGyABv+xb2Y2arb840x0yUzUwYp//3HgQHRJyeGSyYMHD+6JvJLTJ6YpvgBUNPjF9IvOjrnZ6OiZqKjZ2bnOH6enp3+/dSe6/ENhkpPNiRy7PjFK+AKQuZL7MTExj/dMlZTPdBR1REV1bHa+ccM5cs+7qemtdMOaTQ52KyyRzyMRiZi6d3BMRcXwsPO73ydvl5UWlxXecM0LN6Wbmr58aUDPa1ICVZqf3gceAjF1W7srGxM8bIxs7t1wdtaPjHwQ7+oiFJqYmFmwLehSfqNDTp83D1Ms3jUeIpI1qvrHd4021mS62rgOrjEwqfNfb2AtuFjt6CgQBLF9pEdGc9ZZpaAEEg6HUwIwqmM7tmvsZJOFzxrHnnkjabJQ6GI9mLxwysJRkCUUJvt969BvG8eF8crPhCcQqSKNqpxdY9/w2Y5GgupqfwOTrIsbLs5Ls+zT2D4WbGF127ZRu25LHZSKJwEAiUCkYkxJ3/jp1Nogf9dkXd2FlUYr2afs7YP82Wm51S4udT0sz4ejK7zj1BkgHgeQ8EQqhup0O4ymGrubuVrobli14EdfmbUqMHfAgp3WvCrb0SKI1eI5fdRSByGDwCIgQnm2OadH6lgC+rzuqTT7ARNrJRG4KivbvjliQOAf2pbe8vNJCReFlwEkPAjTEJ6V3ZSfu26dtX+17qpcez2XQZOsU7mBaUHZC4EqIQN1FuG7W9+kchEaCJAIIJmhIbHqfyFtCQjyWynUqw5pVm0QaJskL+Q2h1QLhKrNaiEB7m6C9p/VNVAyAEBUjMmV2B5L9ek1Fzr69eiyGwKb0xp6TPwsPFWbAzdkJ+tGqKmEmLPa24M1EBFAgmAaoh7X/U2qYYDMM9Q0W7eOLVNrVl0Qugy6BMlyA+17zIJkEVoRqjtepZ5j0gA8iDE0eN5XGrcY9qqy2vjzA+x5YRpFLU13IFvbh92QqxLWkG3WZq4a9vbtjjdKAKahGpJjjV1HDHtDWjxNpD1Cfwu9XAolpGEgSCoV6IU0q6iyQs12X5uYOP8QwQACmcZUP5pqY3AkT08rgCWwThaaZSY3aFHUtDboCf39XNxDKGoR5u6hFtveXWUzYICIoYjkWFeNwRFfllyW3mpqwk6W+rDN5RRKoLmenpm2Y5s9haKieq3VbcuWERgEqDSm5tFGG7qRtS9LHqbH8qe7JPtoO7baq1Aoaqq9rDqpNLxXi0LRkrW8KgzPVwBkBqJzck2TId3at1VLKyC9zXRw3nFQ28xTVYVCoWgF6LX6ahu3yeRqKtt/mkhfSQIwVGNTflPtEN81zy1MHtaSbkb389E2NRF4yuQU5Sy9rPCMzNALsrCC355vH1kOiJia+YlOQ7szjPLCzeVaMlZrJt1P21TbJ9RTpqVGoVC+ezqx5VKGYejuqadyeeNygIboJ3rlXXDPNDAMbYlQiTBn7damm/L5tb516bIIFYrad8+2X7ta6JuZv+dJ2PZ6JWDQ5LQtwN3QQNvYXVWu8mziavslOp/PrzV2SzePUNknl2s9P+/m5jaSb8x6gscBtPqtkWcnLr99ZOTq6/bkp4KCyzteCZzoTk78TDO3C+YFB9T2FVwYqjWtNTQ2HhrBAQBNP3Jr4dMNbpe2GmkXtp+//Mx+x9X2l3wvOp2faRy+4/tfCy5v23JCn7OWE0/31V8OAAx9I6dHD59vOxtpFHk2/JrMPCDAfeiRsZOXl5dTRt7k+XRWnv5J26qNCWs58daVOAAQGXglre7ybz+7WX9zrfFIfn19/tdSQ+OhDC8vL3rhj3nhtXdpDE2xt2Uwx4NeicMBsU1dVAgfm78+fudO0/UiDMMwESNYPynDKTFyzw+XMkwTRCIyCCOW4vrhxQ6xBpVKB9dsTPJ4bKQPU6kwjNG4Ys5w4tYzZ/bT+V0iTGnYIFO8scsajwOAygSQSIQgrOrE8OMHq0GlvcCwpnfCWpvEGuczrk2xVKqygEBMkaxfvxwAACIIQkrX0jmawOHE310MEXCcpYcS2Lw5cbUyP0AQAY/nSb5OUAIkBYGAB/B4xDaOw/GITyAQIIhpWb92uCbR+fi9pEoiSIQICjwJp3FC/5PxLm5xEiy2qudwOPGVeAKkLvGwqUlyPu6cFEskQoplyg0JgLGfvR0HKJcyScMq2IPDWV0JKKCUjTZJ93Yed14TS1QOQ1qKGsv/lzdwShEtLYM9PO6SAAUUt3FN/P37D+KX6vGfEtCS/gu2qrDRuSbFawAAAABJRU5ErkJggg==;" vertex="1" parent="1">
          <mxGeometry x="60" y="300" width="48" height="48" as="geometry" />
        </mxCell>
        <mxCell id="go8BSAw1Lf1Zyd6wWskr-27" value="" style="shape=image;verticalLabelPosition=bottom;labelBackgroundColor=default;verticalAlign=top;aspect=fixed;imageAspect=0;image=data:image/png,iVBORw0KGgoAAAANSUhEUgAAADAAAAAwCAMAAABg3Am1AAADAFBMVEUAAAAUAAENAAAhAgAaAAAtBgAcNTM6Uko7DgAzCQAVKioqQj4nBAAwSUM7VU1Ral0xS0YiOzhRGAJvi3h2kHwBCQlOZ1zj8MtbdGYABAUsRkFyjXsZLSsnPzlDW1EOIiFUbWFLZFlaHAJqg3E+WE40TkhQHAhfeWry/dsXLy4jPj0LHx9IYVZBEgAfODWFn4kRJSNHFACpwKUZMS8FGRp6lIBrhnY1TEV9mIPo9c2juqF9m4VEXlVkfm5ed2iKo422yq5mIgSURAO0xqm/1rceMi+CnIhbcGKtvJ9uKAJzinesxat6MAWaTAmpUQng7M4FFBRjJgVTIQ18loKPqpO+0LPZ6MSitJl1KACKOABNFALNbw+3XwwEDw8pNC5JDgCMpo9pPSFaJhHw99HO3b6BMgMzDgKQPACANwJqLQEtPzkwRUA1KiB0MwI0IRmEPgxLJhd5kn9ld2WVq5SGoou7vZnG2bmaZzZaIQDDYgq1WwkYHx1JGwVuiHc/TEFfTTp8SCRNRTLw+NiCmYPs+s6YsZeXlXnW48HrxmujSQLZehQWFheoWA5sZExaRjRYaVp1g3Dk89M5RjuEUiVeLBJ5OhVDVUm2dTRmVj9UXU6HXzPdv22wkVbd6sTF277Pp16Vpo+hrJEnGxYTCAiSiW5uMRWrtp66bRrH3bxEOCqIg2fGeB2riFWUWB6xgUaZoIS9k1F9VTZlX0f/5ntXUkWSeU+cQADgghmKRgoxEwnL07wjDwo0OjEbDAqKfGA+QjVUPi+DknxaNSFvblfZm2q+nFebtpyMnofXu2zLx5OweULy2XuEclLl1p/JfyHL4sHgsVyglGnL2LKDjHC+VwVpSSDdiiGVUQ6/xqq6wqqcah2fpIlxX0KjhGCPWyx+gGe8q3ffp1ecbzq0ZDLi04HEhkjSZCXDzahsfWy5h0ikekiKSBpJMCCzqoKwo33j5K7EzLPclDrPjlzdyHY5Myju67ry4pGssYtiZlfLu4+FbVTOsnC+oWrNnFTVfTeGbUVv2IinAAAIsUlEQVR42lWWZVSb2RaGD7Ev7kbc0wjxhBAIHtzdCxSKuxWHAoUq0BZaKKVC3d3d3Tsdn6mMu+u9c1do111r3r/nefbZ//YLPNyBeXh4IBAI+JsgO9Boo9ELjUEikXh89YUjR36fONL7c+VZGMwDeHjAYDCYm4fj3/B4pJdxQVlZohGNQWIw1SPvpIaEpJr23zn6cEslDHjMbN58+vRZOByJxuBPLtqy4iQcjvRKLH22/VmiFwbZ0T0u6jMFBoYsWrX31oa7d7eAzV37m7a9/fZ7i84lYU5/NDoaf2pLd4eiLPbeD/dqqB1/Ng0GsJW09MBNB1tefLiq5+AHQMC8uK0ptejUOxF3vh43xcfHj/bHf//NnjX33rq3rOpQyPrBQVMUPTnFsau7MLGgZ+tcwNRqtUymiM0Orx9WFsXHx/uw4uNHWWl3b27YvvfzznRTRFFqQLK9wZHy+YqkoLFCwCar1RSUiocVQqSowbS0eB8Wi8VaP5i2nvXX7i+lUVJ2Q3Nq+vWGhrBk2vBORSEg6CgolYqH1bi0ys/f+yzNjfv4sFhpRSEbL6+FnFL/5NTU5sCNUQI/JdvvfDVA6VAqHg8rTCD4+088fLw/gtXfzyoKyaeHa8VSqTefzaWnNxelmpQQJBML5DiAQqHMKqwhwSAK750c2vBi6uPPNl3sux5xXRyeXhQaJXeRkvXpzSGOBhFEJArIswKKp2nv2jhwqHDf4aEHU3c+2t/08c31jxwhzY/Sox4ewZL0dcqGCAedSSRW8PmzggE7PnExdNHqLw4/uPVBetMfn+z7jrU+bXA6ZP9f66Z25kFEipqkD1CKiQQ+H5jNKBVPEL726MbvD+775Mvfbr4aWnPrl3k+Pj7rH/207saNqZ5qwHARCHJllEgM4dTArFIZbOHhR/7ZtW1Ty8OIm7cP//Cjz8J58/p9vnv1040NX7QUnATA0yVmav2VTCbZDMxYYXkqifT7panHjk2/vTp8+PmVeXMWLpzX/+vtof+siYv9SnEaeHp68rQkJpvNJo0DlUE4kRauJa3omXr48Y3bQ/+9snCOW/j19vOXq9b29sQYZwCDwcjVEEkiqVhMAgahYWVzPSRmXpocurHu+adX5szyd4e+PPh7/fCZgkQvT5CbkGtJ0EAirZoDAaFQqEofxvn5dRc8WPfg0yvz5rjzy4aWPzdGm0YOri486QkSLBasJcHStXylWu0WKA0iPpEIFWxY9+mPs7xPxMOjm5qnA7+5emCroprBsFiEZoNGQ9m9++nPwCDUELaxOTiivPfqJy/fHkwrKgqkSSMe3Z9u+vvq1UnJpa7cXI3GgEJhVd7vLomrcgsrI5wyHSQ/v+flt9GpjQEDjQ6WT9pnfx84sK+HSl2htViEGqyOYqZ4v5vdVgqElVUnvh0RVOC8K1r2RJsC9dOjPv39rD++WNMyRs1SKM4rXRahwUxRY71X5mTnZILK0pLgPbsIch2/4pzJFH0tOjCUNRq6aPL9QztrqYqkpHKn2KJRoXB8PnFna2tbJgguLlm871yenKPDcUOiU65FOxyhffWPB6IHulZLFIpaiszKt2D5HIIf52lrTlwJKMkIXrbmg0oymcKPCsxPCTGZTHX20Puhm+5MJmZldXThKkSdOqyaIxOcWfYkbnEJKM4I3r29pfYMmcwXpYSZ8hsD7H3RoemPj+75cO5cY6/TrwIK72RCMgFuVWvc4mOlICNj8e7ty1ZXV5AJ3vQAOpdL63Q4Pjo6deAFde7cWn8b21sOiUVMAe58dtviY5kxICgjOGdZ3FeKM2Sy3M7lcrlS+7XrBXtvfejmw21KCIfzlkEciuvd40+OZcZEAklGSXBs7LKeSjKBSKfRaFybvfHyWM2YImvu1/U2tljrjVK5XFhs71vHnxwrzggCkozMzODYZy07KwhyOo3G5drsdQU1Y4VJWRekNqfTKRKoVViV2bXmrSU5JTGREkCNLC6tCY5dtbycQKij07hcmm/91prVhUndNJvTRlcytWQ1haJ6evz4kpzMjCAJyAqKrCo9cWJs18oKDt1Ko9PrfNcWby2s7bZyU67RaWymlohT6/K2L1mSnVMcKaECo2RBYtWzmrItExUcZzKNnqynF8QkJV2oo+c3h+Z3Kkl+RA4O1ZudnZ3dVhwkyQJoqmJBWU1V4q7wcoJIz7U26ke2BilqRxrtoTsCw2z+TIGcQ6Csys5ubYsrllCzANrLqFhQVbbg3Eg5WRxAt6b4Lo+UUJen0KJ3TEeHSdlMPzKHzN/b2poTtzhGkmUEGLT73CQq3rtYLoeSrdYU37VB1MI+ff6O6WmT1D9cLCBwvDl729pyYoNjqEYvgMTMR3eUJdW+Y1PL5TRfe6e02/1BlCk01OFPFIj9IA6HLJiMi40LLomheqEBHomc37Ha+P4pkhqSK33tTuWKpOW+dltAX5hVypTJZBCZQ5Adig0uySyNpKLRAI7HY7w6Lp3aVk6RQyRfX65o7WVfK03U6AgMDPAXkUhiIoEgmzhRU1wcE0lFYwACDsfPR19oGtdRyJCf3VffybZa+5TW+/d3hOidTK1MRpTLmfXvV5VFRibOCggEfP7Jk5dxOgoHEiT7huVLpclh7ACT3unH1/F4ZhRFjSPWSwuCEhdIjBgMcB9o5Hx8dRdFh4OI3LCw/AEa1yrWCvLacxmeAHgyEjRYHXl4hURCNXphkMDdAfBIPGJzOZ/gJ5fqw/IHUtgyXi74fzwZDI2OXzlbDfD4WQGOhyM8zuYR/OUkvT5lIGzcE/yLz+VRKtFoNAaDhMOBuzXA4QiEBwy2VOCU2fMb6IKEf+EJQlde9Zvi4RZmewbideUYttY10sQGTwbD0x1Gbq7FYEa5Ns9HozFIPN49eFbweMPDZoZt/lAeT2VW8bBYLM/sQrmw7WfhSCQG454OR8wKsNcN6HXy8mZgMzNLly5tb29vX7p0xv2MgOPd28zu4fE/cDLGfHu/uZIAAAAASUVORK5CYII=;" vertex="1" parent="1">
          <mxGeometry x="156" y="300" width="48" height="48" as="geometry" />
        </mxCell>
        <mxCell id="go8BSAw1Lf1Zyd6wWskr-30" value="タンクさん達と推奨&lt;span style=&quot;background-color: transparent; color: light-dark(rgb(0, 0, 0), rgb(255, 255, 255));&quot;&gt;アイテム&lt;/span&gt;" style="swimlane;whiteSpace=wrap;html=1;" vertex="1" parent="1">
          <mxGeometry x="370" y="430" width="200" height="200" as="geometry" />
        </mxCell>
        <mxCell id="go8BSAw1Lf1Zyd6wWskr-31" value="AP" style="swimlane;whiteSpace=wrap;html=1;movable=0;resizable=0;rotatable=0;deletable=0;editable=0;locked=1;connectable=0;" vertex="1" parent="1">
          <mxGeometry x="-700" y="390" width="660" height="360" as="geometry" />
        </mxCell>
        <mxCell id="go8BSAw1Lf1Zyd6wWskr-33" value="" style="shape=image;verticalLabelPosition=bottom;labelBackgroundColor=default;verticalAlign=top;aspect=fixed;imageAspect=0;image=data:image/png,iVBORw0KGgoAAAANSUhEUgAAADwAAAA8CAMAAAANIilAAAADAFBMVEUyIBmBIAHagh4KCAuRBg+JIwAZChF4HAAPDxvKaSgYFiazWQRhMw7XaRNhCRKhPwjQcR3rgxVYLgnCiqfHcQ+vfD7CZBDVexvMWw+kSAnBVQ79mhPtihW9f41LKwyZBxCta3avTgWRLgAoGxejNwL9jRKSGwW6TgngDgzpYgztfRj6rxDQaCO7hqVFJgfLaRVfOhTbiBihZ3ChXmb9tg3qmBOLKQHZdBX7hQzCZiW4gZy8hkCOXnV8TlbhcROjcTWGBg2+XAypeZ7QYhhuNhCuZy9zChL6vBHzoBj6Zgu3YAPlijp1PQ02JSj/lSCcLgWoTwWQTyNrKAn6kw6QakapFxHTTwzskBUtDRS9awyrX0H+1Zl0QxW3e4zXhJH/oBOOWWjCkEiQYTnEDQyFWkmCUjqOQxCBORr/5bKuimLafCz7fAjffBSxVyHMeB3MRwoxFg7Vkkq/XR/oxpfOgorsbRZwRD5EChPfWhL6pw2PIR7MOwi4DQldGiDLdzmYNAG8jK6vc4NpPhXddCuzRQyrQQXAbCPRCQrRFRKnVE1NHQ24YCrFLgn6wxP/3RP3q1j716qWJwLwWQu1d4NCFwfzcgyOSk03HSi8NguXdFWBQzK3YGGKMCfcsIDDhZmASBSjflnokTj+chGPVFnFgYngaRSrUCPhv5L/fxz91BP7yxJmODPpeBHchC7xlkZaIwasboOkJwalCRKZbZLOhUi8ejzwoFe5k2RiP0h9FRiXRikcJjPsjILuvonzno2gWx14W2qyKAjpmk3shDPduonxzqSAUmNKMDWzc232s5tZKTHNmmT6wH/WoWTgjSHHch62YBL+pBzReYDIbzzJcGd6LBf83rr85dD9yonsTRWmTzefOUPDbHLEYiv9iR6zbErgfHnlfUzhQQKyPQLZUwjFfIB7QEprTETvr3JJPEf6wZyrNQXBGhF3d5jsJxezl8v5uXTxj1UWSkncjWLiORWuRk0xaG//9vXMqa//8tDmyc6/eVnnuyW+oH37znL9xztsi53fAAAMx0lEQVR42k3Wd1wTWQLA8aFlCelZTEISegkhSICEpoAggdAJHSnSi/RepC29996ko1SlShFpCoiCFVTsrr2v7m3fu/u84Hr3S+YzM398572XTAoEB+WbLky2I62RSGtrJB6P5HCQHGuOFBLvUKVdDKlJgYeUGjK73d7ez8nJKcCpo6mpqePYWUhPDw7HwuGPJtvxeDzHGonEq6sj8adP4/FqUmoOAgLfFUer4dXAubW1tbWnk5Ofn1PTsY6ODoDheoDDb05a46WkkBwkEi91+jt+p4vV+HsHNTUHsA9qz+Zw7J38/JqO8evYB8HhcKBjHgEshUQiHQSUlJSUBAS+E+BTAQEBAQf+8XaQNR7pecip49ixs8c6Dh3y84NUVeFwvQcZl+09kWBdHG0RJSUlERERgAAV4QeuJSAQjJeyzj97+di+Q3tBqqqqqnC9iYV2T3WAtcGwSlV2VV+9iHZV1ddjEQEBBymO/b69/ocnJtvbPbOl1PByVUqjVUp2b9/aASIgICJnB9LW/joBBzwSuc/X9+Ceh8CSJyYXsrM91aX4dnR09MeoH98q2Mlpa2trZyooKCi8VZCT09YWAU8HNTVPoPkcMi0pORiz4Kmu7omXyrRzXmpcWmqMcomK+lEhU05OLhOTm5uXl5sLTrS1wXYaqsUfAvrgwX2QqemEr2m7unp2tlTw29GlqNLSUpdnyc+e0XIVFDAYjCyZTKORSeQ8wBUUFOTkTkdHF9tPAnwQMvX1zW/3zFZXV0diRpeeuZSWPk2m0+l0Ei03T0JW1lhV1YRMQqFIeQqZmZjcvEw5ueLo6FrkvoMHfX2hyzH5C56e2dnq6rKNS1H01NSf79ItEuoSeklkmqwxgRkaGopi5qzkxObmYXLJtLzMTLno6NraQzExMTHQRKTpQrunZ7Z6kEtjI53+9OlTC4uuurq6BBMSyZiAxYZaWa3khFqt5JBpNBoJaIxDdG3tvvn5V5sQ8WrJgr2np3o2KWrpmW713afVYfyGDFEoJiE0NNSqc6TTaqRzWNVE1cTEmEzDSEicrq2111v+97+hzqt6EQAv9KY21ulWV9+10NXV1Q3T1R3S0dFhhloNW1mNLI8sj1jlYHOwTCbBWFaCF1RbuxAhSDGHbENLIvqCONaG9FIXR12L6rthioqKumDDqeCIAG91do5MjVgNY3NysEwCwZjH4zkU65XohWMhW9f8iD4Jjn2YS2kvJcyiulrRm0JRVLR1VKTicILEYcHhra2tzpHO4WEsNhKLJTAJCB4i6HR+SURsLPTQNtS9ry+YGZaaSk3R7bKodmSkpDhSKBRHKk5QQ1CQKKixpaHRuSU4HHn1amTkkSPiBASCFxzxoKTkAfTQdsW0r68Pl5AaZQ6whSObwaBQvCmOruHhgoKCRKLgloaGBjgS38NHLBGIvogHJQ9QkKLtqZt9fbGO9NRnjBTFMAsLRy6b7e19nWLriiOGhwsSI4l7VlBQXDySKH5EXPyIpWWEu97Nm72Qre2pDPcIrKNLajKbYXvKwkKXy2aneF/3tnWl6oSHh+uIRwp+w1f/wdceweEAPzyV4e7u6hiVashmUE51Wahw2WwG5bq3rSJVB8TEEvmUSMSK50de/YZVMxIgCsCmDFeXVA0um6Lb1ZWQwuUyKN7XHRWpOigdHSyTiSWGCxKJRCKWmY8FI4tbWl67CVfNyYFsT53KcNcod3VJdeWyvXW7uuiuZewUb8p1KhVnSECB24yJJero6GCvYgkELPPaEXFxS8S1CatQFRWAJ93/Kg8nRWmVsb0Vu7rohowUircjhaoy1EsmkUgmJrGxTBQKFUtgEmKZhGuEI0csLRExn65ceQU9PKXy6GB5P4rkojXAvW7bZUE3cXXFOeKo1N7eXrIsOYJEJkcYx8aWBBqTyBGxxggCk2Bpibh6xWN+E3qoG/ror3IGwP1l1xXr6Mk5OTqGOBUTHRMSidRH293d7fbx0dfX1/cp2t2l0SQiCAQEAmE5X3lhE1J8+GiyvMwcZQKwNy4hIfnJExTKcCh218SFRN7t1h8fHz+81/j4OKtv1t7YEoFAIGJ22i5DFRPufw2kUFAmyVr9A+ZDyT+t/DSVgzIcMikqKmLJnDl8+MD+H0D79+9dYLUZYQxwfiXAf/r2e+/hcj7+VPHqpydPcuAtMjVeB/bz5ffA7t9/4PDhcf3VFzyAjWU35zehimUuw1HDHIXqpZb3mw8lT9258unVuXOPb9yIP3Hi+3/a/z2wZ+qDmw2aMWQETxYRk7+5CVX8Rwtbkp+CQvXiysvNVZKnrkx9efLk3OPH8fEnvmoggdUMdqjX95nFyBrzJPJezWdchioqnriU6KWEowzDB8rNVRI+3bnz6Qv8wYNbN+J7evh6P58e8NLcTn/ho++DUcAYy2LsYisv+0IVI3d/jtUzD0cZGnLLGSoqVzw87rz5KdfOLrfl1vOeE6ADJw4cOODF0kanbxj4dGMwGDKtZOJm2+WzUMXKB+XSWC1XQ0NDRnnZCvWOh4fHpcf/Oq6kNCOye6tH8gSQB7xq3LVrYTAhm+l6/i/BxO+/75ztgCpGflYuLNXQCh8yNC8fWFm54+Fx6VzLcTQ6CW02I7K7LikpKelVk7W7Xew2NycqtAZwLjnj9u+3zzZBU1N3PxSmRZnjVAyp/f3mVnfmv7i3pm+8XpOHJaHRZq01fOy+nd7w/pfPc2KJgUEYjAQZu3Mb4OWphA+F/u9cqbghHLef3XnFY9O99e/bt//4YU7ULX27no+zWC823n/85fNcg0FiMwYjQYPv7PDxstWHD/5pKFeqShijv8zqlYdHm/vJX3+9/dvnz6KJLNYZL0nJmjP6q+MfP77/5fUawBISNMLFnZ2/naCYmOVk5cK0VCoVV8cYGDBf9vCobHv0x6+//vH+l88vZWSyvCS9sjQ19T9+/GH8dcN0YqB9kISErHFc5U6bEzQ5mXFTWdn/HRWHCzMv62cvz1eGhMz/2fPbH7+9X+yuee4FsIyMvqb+6vTG9OBgYPYevlh5wQkyNTU1LS0sTDPRwqnolg2UmU95hISEVJ5/3CIjc//+854eSUnJmqwsGU1NfX2fRPVsqdogngTv2vzFiyebIFPTfZORUcppS1pUXB23bCCFWAF0yJvz/Ps7Pr6nR9KrpiYrK+vMGX2DQQhWLMHj8a7FxcXFdUCmvhm5jUv+BWkoLVyCI7eMuzVc8ckjJKTy0vlzR48ejY+Pv/RbjxegZ2RY9RswGEeCx5PNvxh38uQxyDfC2dn5XVpBQakWdUiFy+WmRGZ0VlT+g4/GX/p95+iJrDMyMjIsnxduMLegvDyebAbAf0N24H+Xs3+af5q4q0qCFoPNxpVM3AnZufgVPz966U1PjYyMjCbLx6ABBiv+cVRBlhdzMe7khTZIQEBESUk6zfntW9oWLqHOnMHVyvjyprLyzfnH92+Aad9vuc/SBJYFrNt2lZmCrGwbwBeg5uDW1lbtmargIPtIrSE67jqX7frn5fk3l87damm5f+PG8+cyLE1Q96A8DAZLmkGbySLydk/GxV24AAUGBgQEvky0D/bzC9Kg0g2ZWmzvDPcv58+fu3WrpejevX8VFdXX+7B8EhtgMBjMDW2GTqchMML32uJOAhwYEGBg4Mdpbmpe0BqqNkFqMDQcgltu3brf0tJSdK+1tbWe5ZNoIyQkBCzaLMlmljY7e/xeW9wFKNAvICDAIMDPgRPoFxypVU3nREdSCG7FzS+6WSwWq6i+vrt7GhL6x6LRomsBg+mt9rO7bSehQD8npwCDJj8HB04zJ1hD5W5UsVuQooRbdIPNRmJ9d3e3wR4VgsGSzNBodJLoy5dzYg3prbNObZDUYGLiy8QA++1gkIRKQnLjjFljWF6SW3R0Q8Pa2toeFYJFp5uhN9BoUZvXNmJiYmJu6dvNECQPQfLyEHLbzm501Nn/Zxw9dWxsrLFuycxN6FswWFL6THr6xgbaTXRNTExMVFRUTKwhHeInLy9fnJbm719QoHy37pmztLT0kouzcBJ/nUng+8is9c/ZwcHBwQZRUTFRMLDY3Nzc3DccPVZQUKCsXKBcbdEoLC0s7NwoPWZkJiw8Ji0tLW00u3n25evXa0gbGxtRoT0tNicGfdMzwCorFxRW052lpYWFpaWlx4SNQMLHH/k6TU8baK6vr69rGkzbiH4NSBu+Lvbn60L/d8mpAPOTNkKbGQkruQcOTgfGr4MPtY/muoHN/2O+jnb29y9ULiz0H3OOct7DRkZGZgAbNfslIgPOr/usrhosLi4uGhyfcQNzBy+2jY2NDSQvr1SY5l9Y+C5tTHrsGwbvrJHw4OJiQGDT+fXVVQODxdVFff17zjNJYklJ/wVfwTZWDzpwPQAAAABJRU5ErkJggg==;movable=0;resizable=0;rotatable=0;deletable=0;editable=0;locked=1;connectable=0;" vertex="1" parent="go8BSAw1Lf1Zyd6wWskr-31">
          <mxGeometry x="150" y="80" width="60" height="60" as="geometry" />
        </mxCell>
        <mxCell id="go8BSAw1Lf1Zyd6wWskr-34" value="" style="shape=image;verticalLabelPosition=bottom;labelBackgroundColor=default;verticalAlign=top;aspect=fixed;imageAspect=0;image=data:image/png,iVBORw0KGgoAAAANSUhEUgAAADwAAAA8CAMAAAANIilAAAADAFBMVEUBm4wqBYMzBI4CXWQBbGsCkoYDl4kBiXoeEF0FFzAGDy4DHTcDVmAAgnkWCFMCPFAAjIMBd3UAc23/zuoBRFHsiLo9CJn9veIWEUITA14VAmrmhLQgDG1gNU8DTl35os1TLz1nPVUYFlEEJDdpM0T6rNEeBHZJKEOIPFoCfXR1RGT2jMP5ms8AZWQEByIBN0ldL0v8udr7stgJtIH+w+KIMU8EMUDcgbAJo478rN4GjnkBLEMKrJBzNVAdITv0lcH8pNb/yOUBSlYhY4bukL70n8YOBz7Nc6EYHx8nBnkobYyrRnQYGBte7K5D4qRkRVUesKJPMkzyqdV4PFbreqsKvIDce6TAfeoNoHisVHudPGW+eOnCkOwU1IosdZQZNmsgfowJy4USQ2u6T4KuXIrRa5UtF2UEZW8CKjwKIUuKRW4Fw34bS3Ur2pkjypLWi7ricaPUU4hvWmkAqnqfR2lw97tdJjtRO09e0o7JXpcuP4buf7ckUISwa5qfdJ8fpJ8PcH/tmckY8sPioc4zu6yE/sOd/scVW3g1I0AdmZvXd64vSmIRzLCOT3ax+dy1eJ6T78bCWYHIhO0lC2c2MEqdVok30Y/Geq4I1bJdUV+Ed5g+zqRFj5EHuZx2i5l0naTF++G84+oMLlifT34pIiA+HVU7V3KSZI0Ww4gJwqXa/NwEmHKtrsBMFKdq5ptnNLyJOdl49KgPJVQPhowwNikSZ3e/ZZx9wOQ2OVRzWn8ZkJVwaYlWs7XUlsLq/ve6haqHpa2XXXZwd31c0a1s5bu4Z4vM7uW53dappej/2vRa3Zxv0+FGkLXgZKam8qxIbp8N5sA4KzVd3baV5OED+8GK56B9LtKby+9GfaK8cuhzk8VurdQ1xLHrsNo8Rkuci6W0vMuwkqzE0NOO2vJ2JkE6p5PtxN2inLi4mbrk3eO3/f5WJ618TdJwJMZXx9T16+lZcn/FsMqlh9af7OmKua+fNVSHUtqQW+BNTFZNXZC5hOiRy8Sw5oukvPAxYmwN6Jue1X2QAAANK0lEQVR42k3UdVCbWxoG8BMnRoQoIUYSohAnAYIGirsUKAWKFCkOLVCkcIFCcVpaHCrQUnd3d29v3bd6XXr3ytp86e7MPvP9+5vnnfec84G5aWnz5s6dN2/evEdp6+5+/7R1mRmlt8zO3/GPG8uh9G5Zvrytbfnu4iv3a/T6yrfJyZXJyVu3bt3qKfcEK/+HHz16dKn36tPWFWaUxZI4f80/btxoa2trW7u8bfHu3buL5+9Yo9dXJldW6isrK7d6yomeljVg7sq0uRB+9Gjen5fu3m1ttaDNZr1+wYKa+/d3717cZrM75i9YU7IoUa/X26gcSd2auOZcP1i5ciVk/0y79M+DB6/ebY2ZWAEsev2iRWvu79gRuXhx2+LIyB3zFyxYsGhRYmJiYuXWZCKSmnz2XP8vFy5AeN7ctEsPHjw4+OTJk7vLYiZijlj0+sRFi2pqrkA6ckcUZG1Yn0yVuyI9z/ZeuHDh9bZLEE7755s3Dw4+efzw5s1jmTFmiwWtXwRV19RciVwcGRk1H8qC+SWJek8q1Nrf33tx6vHPP/8M0i49eHP14MGDj/9YunRp/bUjmTFki8W8aHZ2wewXHDW/uLh4fnHUGn0yhip/e/bcneI7F8fzwn5O+xO8eXP16vdPrt1cCtmisEOD3TGozROJs7MlszVXrkT2RxUXQ19USWWyJ+bt2VZzYklJ/7Gm/daHaWng6tXvj127Wb906dKMovqsrlhNayvKMjxbUjJWUnP/fn9/FJTIKAtAeZrPnvXEbNWvGfurvWm/NexxGvj+2MN0q7V+aUZGRkb9oViucPzw0WXdJSUlY8VXbtzo7Y+MjIyKfAqA2Tx25y1FnpysT347npXVZLU+vATSw8LCrNb6ooyMjKyiQQ1Xcbin52hrd8nY2J2oG1t6ly9ePPY05ojZYrlzDk2UE5NnMbwVYVnrs8Ks6Y9Benp6mNXaXpRV1LVxo5TrHd+zafXqTU/HxsbOnevdsra399yy8SMxm2Na74w3UTBydDFNNB62fk9BUVj6NZAOVYdZrdaN3tUbpd7xhYWbNq3OmTw2Pnaud8uWtWt7x8/8uGxzzHhr5kZr0/6uIzF43MP0AmfWnvb0ayAzM3Pv3szMsLCNI9wRTXxh4YYNDQ0H+l5MTZ1de2LL2hO/TvZtOvb2xx/Hjx7e+McfGzO7fHw2PixwdnbOSL8GjqxYsWLFkUxre1e0MJorq6pKyc45OdQ5dGrq2IUTW06smzp1cvTY1IuTjaNHjx69efNfgx0+z9MLCgr2ONdfA8tiYpatONJkzeqqVog1qeEbsmtrS0tLSz9se3XxxImP2z4cLz3+U8vxk32NjaOjo4cPDXZ0HLIW7NmzZ33GTbAMspn7izK6qoXemtTw7NraTtNxevPxlx9enjix7ae4lpa4lpbjpUMnGxsbR0eqBzs6BtvXQzajCLQu27s3s6k9a/1gNNdbHJ5Se/16YF1LMz/up2ctP3w8HhcXF/fsWUtzaelQX2PjJkV1bEfHYBFp/fr1WUVZ4OmKzMym/e2kgo5owRJjeHZtWV2zsiUozsPj2bOPr+M8dDod811cc0vp0FBfw6bDwlip9FBRFolEyiqqB2h5EzKPQCvA+wgFS2ThtdeVfipVc5yHTstkvnunZTKZBgdDXFAzx9QZ3NCwWsGVSrsIPB6viEdoB3IK0pXAUxfgfWKlS1LDr9epPDxUqjidlmkwMJkGg8Hh8mVDUHMgx2QyDdnwYFfsIQQBgWhvB0gk0pVAU+fjfQRL/ibLvq7089B6qPw8mAZ/fwd/BweHy5cdPPiBdA490BTckFOoEcRyNc/3I/Ly9u8Hrq5IV0QAyYaNxuzy6yoPJlPJ92BC0BamB1+lpPvyOabgAykyjYYbW/0vBCKPQqEAVyQV6UogedmajdnhqbUq5g8Svp/2C/Y3aD38VL5KpUSZwOmEsDc39vd2AgJJ2UsESLmcioQw/jaEU2XGYI+PP3j46QyQ9vdn6vz4KqUqzq+uLrCzNlwm1giEvwfwEFQ5CgUoRDnlC/ZZ8jdjeGrq6VSOYYuDh8Q2t79BK+GrfFUSCb8u0Dd3INyokWqiu2g0BIVIRgE5kUhBImheeCy+eokxNdU4OZX609qLWp3W4O/vb9AG8fkqvkQS56dSQdhbcFs4QlKTCEgIEzFEua0Zh3vONYbLjKNtfTkXb7zW6bQGg4Gp8+Wr+DqJxMNX6asMzk71Fkiju7zy3QNcKWQUwHiSiVQeyQuLcwsRpJZnp/b88ul8391+rU6r1Wp1En4QX6LTPlMmlCXUlVXJvKWxI14ikRcJgSRCGEWmBtDcsTi3CMHn8vJs2Yt1606/eu3Hl2gNEgmf78d8d+F1XW5K1UBZrcxbIBUO4vH4fDXPVU4GGDIZQyXQRDg3N5bAmF1eW5Uy9OHF5+BAepA/05cv0X7c0nuxL/yz0Vg1UGX0jhVWi7BYfL46AEHFAAyGSKQgSHg3Nzd7qbG8PHcg+3xqlbEqKddXEsQJfLd2bf+vKZ+Nss+ygVqZt7cwehCPxeLd1TQEkggwnhgikqDGurnNcVziXV5eXjaQEhx8violOCgoKffktpqaM/Gy06d+laXkbhCLhf8rJtEIrnLgiUIRXQPUuC84vLz8elJncK4pqVSnlXAGBgaMslN/rft0t6LnfG68WCC97YPFYkXuJBqP4EoFGBQKQ+V54dzc7B2XiGXh5WUJZXVKpVLi8MNlZtJAVfjAyZfb3vfIgpNSxOLbq+xxOCw+n0QLICAgjMFgKIR8nJsb21EqFiuqyhLodCXdV+dw+TLTNzelLDf4fJVRFuxrkokFPqFsHA4vUtN4CIQrkmpbGNWGHSFcUXG+TFlXR2+W+Dv464KSchNyTUk5KUl8VbBYfJvlwsZhRe60AIhSqcDTE0OkIrxwbnMcHe3EYnH06aSEujq6r4RpYEp8k8oSAgPpzSo/P2WhWBNiw/mkAAISSZHLiQCNRhEpNsxmO854c6sr+hISEui+fC1TGxRoKuME0X39/PyUwWJvQQTLkY3Fe9F4CCqFSMaQAQBojNzVHetmz2Y7rhJH/35mlMOpowfytVqdLyepjB5ED2o2NRTGi72nI+zZ9liROoBne1MoNEADNJmIVGPd2Gy2o6M0euTMaKkJwjqdhM5JSqLHqUzne4RccbwgImKOPQsqJuQRySg0GkAYjUGSsDgIuyyMHpmcfHWSzgkMkkiC6BwOxxRnOq04E+0dL5iOwEGYREDkUTFkNABmYEGj0WQKCYtzZLOdXFZxRyanXr0KpAcG8YN86Rw6J8l0uuJwBRfqjZgzxx6LpxGQSCoGhQYAgGEzGUWm0PA4tqOjk4tLbPTk5NT7lubAZshy6A2bTlecUojjBSEhEbg5c+bgvHjQqsk2C4a70WQ5EuH+XzwTPXLm13XHW0ycwEAOhzNUUVExdVQYL5gOCYHsHKyaR0BSiCibBbeGJzBUVwoJy3Z0dAl1WSUQHH356eKrxpfbSktL+86cqjg4KYwX7NsHFbNYOBGJh6CSvwwNwObhbkBFuKqxbEeXUFioy0x1xYvX615e/PRp3VDji1/++vHJYYVmet8+m2XhvAIQeXIUsGEzqN/cPUFEBLhj7R1dYDCYy4xCsamh78ODdRcuvj/1y93J6AqFcHp63z4fFovFwuJJhDzKl2K02Qxg1u7NGBt2CYXwKqHwdMPqhsb3296/OHxqNLpayJ2OmN7nw3J2ZrGwBTzo34VCAQAdM4DD9m62IGhqLBuyMJiTJj6nISclJSdndaFQweUKY6cjIqZ9nJ2d7e1D8CQEtGnobpExGAhnADOVpsazbRbuMhPfEHzgwPmUKlm8UKEQxnZERISwnCHMCskPyINOCY1GkW2zw+GhBAwmgIS3h8HgcBgMNsNd3dnJ4XTm5mzo6VFwO5ztIOlsBxWrEZS9ZIh6ktHAMgEYDHgGQu5KEtnD4YztcBhslabngImupNM7D2xQcKV2q+xscbb3CRHx8mwvAuXpCSa6b90D2xmMhTQCkiZiwRnbd37DgIVKFRsOBHeaTME5PUKpnZOTkw1Dxet5eUgimUxGW4Zv3bt37x74ejsD5q5GEERYGJyx87dvGLAZjaJwQ05OzuoNCs3/WR9RAYmAaKIQweZbX0G5dw/s+no7PD+fhnAPCYXDt3/77XbYqg4BN15RWFio0Cx0cnGCuL09tC01j4CggGGb/Orf/14wC3bt+o4hynfn0ULs4HDGzr/vhMNdVi2ckWq43NiFLqGhTk52bHu2vZ2Pu5pGI+zt/urWrVvDwxbP+qXP94Fdu3Z95yzKpwWInOFwxjff/n0nAw6HwUMXzswsDIWFOjk5sm1zu6tJNOrEcHf3ZnNT0UIYnAG/fRvs+vrr7+zyRe4B+T4wOGP7fzWcYTs2qNjJtm4fdxIBNTGBQgbk24WGwmBwxqHnI1+wuyif5o6HQYe187ffdjLgDAYD4ja8EIqPOg+Y5Tx3LMt2EeEMxu9ntv0HUqCrTRI1fxIAAAAASUVORK5CYII=;movable=0;resizable=0;rotatable=0;deletable=0;editable=0;locked=1;connectable=0;" vertex="1" parent="go8BSAw1Lf1Zyd6wWskr-31">
          <mxGeometry x="160" y="90" width="60" height="60" as="geometry" />
        </mxCell>
        <mxCell id="go8BSAw1Lf1Zyd6wWskr-35" value="" style="shape=image;verticalLabelPosition=bottom;labelBackgroundColor=default;verticalAlign=top;aspect=fixed;imageAspect=0;image=data:image/png,iVBORw0KGgoAAAANSUhEUgAAADwAAAA8CAMAAAANIilAAAADAFBMVEUHITQHCyASFSQeIDcOKDEKGi0hODsIEi8mXLkRQpclM0QsYb9uZ5Df+YoHGjnY+XljYXkMIisNHU0wZsMZHyc9UEwaTagWMDXL72UnIEbp/qAHE0EPJ1pWU2YZRlGMip4cKEEUPIZVV3LNx+I0QDM2asOBfJYUPkwdUqukm7xnW4q/518lWqIMFFADLXMyMEwsKkfM6HGd4iguQEg5cc1IRGlGSFcXSaQMTs2XlKoXFjgENIonQDg0Nk1PTWQ7NF8nUlGIg5pOXjofV7Pl/pItSDrv/65AQFjU7nk3PFNQZ0Vrb3tdaGXz7f/N9WwwUTnC4korNyeduSiVjrZsmORaU4FSS3spRYo/KnMIGl4jKxpcdThWbDCJyxE2XEk8OnF6eIdTXF1bfKX7+P7q4P0gMWPa2PIMSJ8HHHMyUotLLoeW2B6x3kby/sE3XzkwIWR3b49zjySoyUW3scuuq8Wfn60MO3p+ousaZWkFD3DXy/VKdL1HcZ58MqWPryBbiq6nxyyOq0TC3nsGQqS06EZrfzIZHEU+SjNGVTtJZSN0baFIQX06Z5S01C/Hv+zCu9xSftN6d6Gvy2mMo1yOhrY+ZaxBV14MVJiw7jpFV5cuKVcdV2EnKzKposGKeq0TWtC3r9/4/te31FpwlJyEtcQpP2Z0gYRtXZ7Q9i5meosGOpj1/8t0nheJO7KFpieBgqq27RdibI0PZfqJwRVzsgikksZ7mj5aSZRijk+hsl1/c7eupM8WendMlA1WelhPZMEGQr2lbMkjbeSqxO13iEA9Vinb74/E7lU7c21Cf58landshMtTqQnt6PK3x45deh5xn7dZh/JpPMdQL6CwW/AgYY96j8FQXIszd+NijW2GnH2x4xqcr9TD1aGAS9uUVOpbNrGdmMtOdgYZZtjk7aoxgnyqxMRIiiGXu0DL1s2dTsh5lWF6kUUBO6QVS3M4bVDX5ptTh498fchqwxWlvGbW+2YKKI0aImSPyLZdlrpCrqKfrpePVLF6Z8tUc3ptuG5ixGGeAAAM3ElEQVR42kXXd1STadoG8DcdQwIhBAghISGBQBJIKBIIhN577713pMMAUqX3IkiVjhRBqoiC2MXurr3srI5dxzLq9Nn9zhN2Pq9z8ufvve7czzlvnkDGxgcvrycnHz58+PCp2EfaNjZSUtLS0hq7d+++fGZse7t0oJnFajk+8KDs4UN9/SsbTzdu79q1Sw0kLw/64aDx1sn15OS9QF99tH///v0nT54sunz5cv7Yb6XbpfN0Ol3E4Tx4eOiIvv7n5SufG40UFRN2SQKdPn3woPHBn44G7t27d++p2CEJLroz1Nx8585vv5VOubi6urq4sB+MHDpyJCVM//OV51oASzi0vfv0DweNjf86mizRhY+KLj8Zai6Md3M7c2fsRukCISrK1dWVMNUBsH7KlY01rW/Nc/eL7gHdKuk+fKplqLm5MD7eLSYm5urrXx9MRNGEQmHUwtRbydwpV16+1NbSSkhIAB4qKVndvgdGP3k0ee+fp44PNReCBeWwYgCv8Mwq72i7yzQkTL06cuSIftiVjY1GbW0tRUUjIyMjKMu7ZO7TPVD+0+TgykB2S8sAm2loaEjIvRoT4xb/MbXJ+1h+fucC8+3DIwcOhG1svCyWYKChkSxv75L7uwHmrHA4uWxzga7AwsJCaB7Jiolxu+roWVb25VH+mZyJ8oeHDqVc2RiN/oYrKkayyrzvy2vcWfER0QkCBEJZV2Dm5CRUiHLJvRrjdhVPTi1rv3nzzOs/mgDeHLijra2lpQU8pKdXwUvNWnrgw/GxAhShrKys269eU1Nr7ewayXKLjX329cLIY9+b+fF6h46ErS34RGtr29jY2GhpaUE8x4pr1661/8Gh4xyUgVQGvtcMYGdnl2y32PhnX3ntr/Nv+j4+9PDVxMJ88TdMJlcMrq8MNbf4mCnrKlebmOjoEIlU6i9xZgrWoFsUH896LJvaHn8mf8zz1dpUW7T2N3yBrPfHJC7DaqCF429iYqKioqJCpI6Pj8fFxTlZW1u7utJbWDmP3bOAbn/8YCp6v5SUjZSUlI2NlDRUweNViHA4HK7+eCEbgcFgoLxxyy7X/7h2jcfFKVhbu0bSs7MHro2UvDiT75v/qLhxv7S0tJSUlJS0vAZU+Pr16xe59TgcF+dTSMegIIamR+i7udWOt5td43EG1taRBKvcXNG1rI4z+aelNG58w9LSUGx8YWEz6/ggd7J+fX2o8/37PufMLEc9x2cVX1adValOtbU0GpsdKfpS8sdNY1Pqf6ak5b/hGLf4wuah4yuD3Pr69cEnpe/7QjLLR84PxwxTKsqdDeLiFGg0GptuRe8ob93KE9tN7JeXl5eWltRDbm6xLSuDGVw/gcCiwY87z9S0O3fuembH4+Hh4YpMawMqVUijMa3YVlbl9xvnSq5fj9bQ0NCQl5eXkmAWzt/f0MIEQSIhkEisgaampqpl3fXrmcc+UipW68REotDcnMBmW1kdO+Y99/Tp2v+wpDm2JcNQVxkOg5OQSkpKaLSmpoSH14VeL68YyaxTkiE6mJsTIiMjRbkP3lY9fVr8DcfGsggmMBgchkKHXA9xDg/v67NUVVVVtbT0SA8NWZ2t84JkGEIajZARSaBNWNHpZ117esArTl5eHuAMYOEkdGaJd8nZkA8FBX19fao7D0gPrRMzGAwzGo2Gi/Tz9/fj4tjzCxKsIS8PsVgsDgIGg8Hl0OdmvcuyylfXLl68dKmgT1UVzG8nFhsYiA26omg0pqGhOY3LzcDVz/+NRS0t2UwYDI6SQ5/LLGvyJJ9vP7a2efEi4ECj0QbWZ6PGaUIz3f7+fjMhE5eB8ynaLdGQiygnm86QYI+qpiZPsn2a/flrHWubmx8KwLfX1FRV6HDsUEAzEKTg4OBgLyGBkDFf3FhcVFQEMek52Tk0gJU8QrybLnylzMzMUCgfv7ytCvkQHg6WZ+ncbtuugKhWMdnh5n4+rBd3igGeYufksBEolBxSHB4yV+Z5Pm0mjZI2M5P2+NjZkFDncEtLS8vNC19H0NU6OhLuFcXknlphsW4UQa4TkfQcERNgtGVoibe3d/vHNHv7tJnhmeFn1zqqQgAPL88qd2aoY6sxcBOvmigm9/DhN6cenYGiXOguooFIIUoOqaSaXlLW1FSWhadQbO2H02bS7J99BPXW4bU16miDs+UhwSR4sLqzC/fPN2/eRP8OdUVNTLgM0F2wcnJItAfYt6ce/qu7Ox5YStpw2rP2jrMh4epeWGyVHu9dfz9J3dmF8OebN7d++h1SiJpwcaHnspkQhFQS13k3NV3Ay+Lx7mRHPIUyMzNsb0/Bnz8WWmuAxdasOurVefV71RK46z/9dWp9BxMiRVZsB0gOibabK2vylLW1t8U76unp4e3t7e0ptnj8+XfWdlisuOYVL3MHn1w8+Vf075CCgqsrgeDCpmdgIQjpFepd5skj4/G2jo7A4ykUCR6pAtXYcyVzXsFeQiZ3/+Li4u7nkIJdVxSTaU6zohMQEBLpda7K29OTR5aVxdviKef1HPG2eFu8o+Ox0BosFqteN1sTHGzuN7lwenFx8QdIwcBAwdzcwYEgopujIDmkkvhc1SsJt6dQ7G0dAZd1J/NWrQ2wDKx6nXo/KeLo5ObLSwcXFyEFBTuxUOjgYGaVQ3dCga2hxR5ns8jusniKPcXWFq+nhwd4pKrGTJfR7+VFQjT4TW4uv/xwGmAFdbGBk4NAYJUtYuxotLj23YisrC3FFi8ri3fk6bm779uXFaouYDDUsSREw+Tk/c8bL0+3QuGg2sDJwUlXkJFjBaEgCIKUlMR2zh16sn+Hx3Pfty/V21qdwWBUwxF+nZP3P6/du1cKpYd7eIjRWAdDgcAscmABBbpBu1141ReyrLs7WdZd1p2XeuGAfkpmDZZB1EUg6jsn3/735s3SE9BmerqHnRiJNXQyc6BZcZgYGdCNRKLF6c6r7WQy2R18UlMP6KcsVdVgEQ4ZhJU23KN83+0TJ6AX94FGQthxrJO5MCN7RyORoDw9pJznTr7A4/H2pegf0E8pCVXvRxhy2zo58fnblwB+Mfoh3UOMhJSwTk4ONPaAIUZmhyuh7TzS19rJvNTU1H379PVTUsLmatEMXT8ud55VXFBQcAkaGxv7FJ7uoYSUQ2LNzIQ0gs//awkPLffcwUthKWFhs9ZohgWXy50fLSi43QM9f37iREFB33tNpJyckkBg5iRkm8tIuJwcUkkJ7ZH+Lstz34EDB1KWw8KWlmZDGQjD+nrc/FSpry904vnzE5dud3d35yFRKDldgcDJAedXjZGRtMsZoNF2HiGvANZfWl5aWl6eVUf0+rVl4KJ9832hT59GR7u7u7t35fHl5OAohK5AYEYYjNBRUZGRgcwzzMDsoXMp+vopYcvLy7OZs9cR1RE4dlu9r68vNPqpePt2d7diQl4eVQ6FgSF0dXXN/Dong4hxzAw22wmFVEKr12YuhYWFzT6tO6deo15tYuHXhsMBHB1d3NjYnZCQoJbHR5JkMDAMuEsZDq74cDgizgAOg5LwqtnMOjtsby+VqKOjYoHrbJu/3NoKJTVGR28Xg2usWh6VRELBYTAT5V6BBbczm3U1nsXRxYDbAgNrwCAmJiYmfvedjo5KBMfHx2f+ciuUlJTUGF2sZZRQOW3Kh0gkEgwGwyj39loYDsa7gd/fagwGIyND1NEJ+g5ER0XHcJ7z5IlPW30r1JOkltTYqK1oVFk5zacCDYdJynst/H0K3WI7DTEYjIqKzt/4Fz+f5ubjTzpxd4uKoKSFJLWApCQjo8rKSj6VSiQhEKAcZqK8Z0/g0ZX4oXVdGGzHB/0S4dfGyS6MLTze5mfY09MDxd1NUlMLCAjYBTCfzwcaAZfMvidwT+DRwZV6CycHByGTsDDPycnOzsnJPt7JbWiIaIiIgIhxSQHg78b0dOU039SUzyfCEQgSHOxtD0jg0fpOHx+RSJQLIrJi4/z8/f0bkgMDAwMhFWJcQECeWkCA6bQp33Ta1JRPhP8vYPI9e3otLJyEXSBMpj9w/nf9IwIDk5P/+W/IxIRIjYvjqyWpmZqaTk//+OOPplQ4DA4nAa4TFBT0S2/cuIFCeHhXF/Pu3eK7EQ09/r0S+o9/QZKDkKmm5lF/Nq1UNNra2tr6kQ8HHA7XSUwMCiJSTRO6b1+cmhodvVH6W1JERINFYPI/gf0XhEKhUDIyRGoANSiRrygvbWxsbLzFh8NNiNXVP/8MNHU6web2xanRGzdulJa+j2iICJTQ77//HmBIRoZIJIKzDFJrbW1tPW28ZcrQDQgwU/uZD7RppeLtSxdHx8bGbpSONxwFEwN765YEQ5AMwCpBu3Zp+7be9L1nvJU3rhgQEKDGT0xUkeFPG2lfujj666+/jkWP9/QkS+ytW7du/R9QeQtwMdl56gAAAABJRU5ErkJggg==;movable=0;resizable=0;rotatable=0;deletable=0;editable=0;locked=1;connectable=0;" vertex="1" parent="go8BSAw1Lf1Zyd6wWskr-31">
          <mxGeometry x="170" y="100" width="60" height="60" as="geometry" />
        </mxCell>
        <mxCell id="go8BSAw1Lf1Zyd6wWskr-37" value="" style="shape=image;verticalLabelPosition=bottom;labelBackgroundColor=default;verticalAlign=top;aspect=fixed;imageAspect=0;image=data:image/jpeg,/9j/4AAQSkZJRgABAQAAAQABAAD/2wCEAAUFBQUFBQUGBgUICAcICAsKCQkKCxEMDQwNDBEaEBMQEBMQGhcbFhUWGxcpIBwcICkvJyUnLzkzMzlHREddXX0BBQUFBQUFBQYGBQgIBwgICwoJCQoLEQwNDA0MERoQExAQExAaFxsWFRYbFykgHBwgKS8nJScvOTMzOUdER11dff/AABEIADwAPAMBIgACEQEDIgH/xACHAAADAQEBAAAAAAAAAAAAAAAFBgcEAwgQAAIBAwMCBAQGAwAAAAAAAAECAwQFEQASIQYxEyJRYQcUQZEjMmJxgdEVFkIBAAMAAwEBAAAAAAAAAAAAAAQFBgECAwcAEQACAQMEAQMEAgMAAAAAAAABAgMABBEFEiExQSJRcQYTI5FCYRQygf/aAAwDAQACEQMRAD8AeOpLx/kLZSt4xWSXYCMYZsjByfTXGx2aGOFGYgmRuF0CFDWVUiNKDkYKIPyoNMVBHWUTCYoWREOi9Isp7GxjgllLylixJOe+hXb6pSCCyYx5RnbC7TXn2wbRnujL/VZ9Rl3St6QfQngUESVGaclsFDmJTjdjJA1tFuo6NRtXtqYdaXeXZQLT1DRsCHYqcEELxodZPiI1QyW65P8AjN5Yp/o59G99MGVx2xGO6wANwBPyBRISEDqtbVo5ATjmuhhcuQoyKoNzWMPHNGRuXOGI5GffUtuk1JV1DxSJtnySMcbyPT3021F4ilTY0uBkj3UjU56j2S70kOH4aOZD9iNFow2DFCOrKwKtkGqLS/vo0TK+F459vmlQt39Ix8VYaFEkoJAw68OprJaLxFYayanqlLUFQHMTJ5Whl7hkP0z2Zex1SYq6RkVhEZ1IyssWNrD3BPB1Bpao3OnqYpcfNRcSY7Pjs499YqPqe6UcAhiqSACcgtjnU9qlvl1lhGc8MnWDVAsRcLnCk4z5BoeSLYxUnB9qbLF+MqoxgdUPhn5G325r1baYo5YIs58wAJ0t9adUpYKykt9KBvKCSoOQCAeFUZ1roLskMXB5RkH8MdSe8zC7dT3GtnMKJ4gRZJuRhR/yg5bTaXMbKa8cROaJMLyJtUEkjwKH3YNOILaWaBQbh40PJEfDH/tYrneZLoXYsW8wKnbt0DaxVtf47wRlzHhnVeWww7gDVKgjo5IQi3RzgDtThRn2GhNLfv8AXqudJ4cwSkq+F2OV7ZXXPMc0y/5EpCEdgYwfHRNB2Ol3kc6GQAR8596NutX03S57a2nfYZlO1264PRNbLpdlGciEk+5dif3mkf1F9LnWEjeC4aKeJCq7vUhB8GgFuvjF44amUtKH2I7NzKq9t36vQ613aSnnXNK5yOdh4wT9PbSTVtHUz10iR7wF8i9s5OnmnsEUFFSV1ddt1T8pIKjapUI48yhzyGA9dawtMAXUZUN7E1Z2NpFdosU2FdxlSv8AFvFVGm6fcW4/KqF1GN6nsf3UZFugt4VZsMqgE/Ap5a/UQlAdbjdPAivsAy1xDjlMHGGB8mp3U+JT10U0ZKmQYzrl8j86TPEyKGPmUns310erY4qmD5mMgqCCrL2PPOlmGnuEwd6WmlkjLnlELAHQs0gd2YcVXkMCpBwTxQQjabLoQMnkHwaZh45bUTRtuQ+tT/R8fIqZEzDo98/urbS1ALxB6jK1ARjxjkamtNcYhcpqircBd/OT6cYGjQnlEdI3ieC5zEZCu8BkPfH7NpaEsFi6gmlr7aK2It+cZDRsDyU/nkaxYXIuYLYSvyFwxPuKkr7RAmpRpEpETknHtW6oYl+2ByDjFW/2FuJMhsN2DjNSet2N195xb3BjfeW9gW8g1TaWkul2M4tNumxDEJWepzTrtYkAgEFmzjWWSC4zQV1BdqaLxqfzFo3Dhd3I9xpqovimtTAYaKmrqmeQYVZV2Kp9zp26V6ToYklut8nWaoqCZZI+y50ZOybNo2lyeNpyMUv3+sDOAN5Y+FCDcST4rNpdxXkKSwsSjZwSMdUnfT9eula3uLqGO3bh9g9TCqK2to7WGKKFMKgwKgVg6enFestbAVpy2ArjHiA6b7l0bYaWipaiguLVEU6syqrt5NpKkFc4I029a20dQ3F6qCunoaOKIII02quEGM8DI0sxVVPSwfJxIqQQRCOJSctj+z6a5wo2cOfSa3MasOaxGDE4YKMiiVQeaw+3mpjWxxWm1V1IG4LoI8/qPOqv0P1x8OrH09S0bzzCcMXnaWkJLSN3IxnjU2vdoq62ut7VZ8GmleVto/PiNc8j6ar/AMPPh9abvYHr6yEIJ6uUwL6RLhB9yDoW7jQZJyFzTSxvWSxurYtgOyhCf4g/7GuLyq7EjrofApUZVQM3xRcDl4wwrzZDdquK0G3vuykqSQu3cY7g/wAaYKa60lTEktUgMqgKecFwBgH99E6OnidVDoGBOCCMjXWe1UB8ZPlk27fT20RBYfZLFCvZOCKaiW4hRDtIK9E0u1YXN2yT21wEbAEiMMgkdMPjyKoYJXxtJyPY818yqzlSi4wfFGKC/WKjMTQ0jFvV37fbT3S9YUjQqpmyo15sulHDS00jw7kYD6HTT01a6V6anqJd8rEjh2yv2Gt9zmTZtQceBioGOz1l3/PfxBAeo4+f2adKAoAzkgdmmVzBGqOwGCKmLqeRchTirWbpUdQZpLbStLkjLdkXHqTom1ip7HD40jpPU7eXUeVT6J/euNhlMEBSNVVQOABgDXXqGoljtVdKG84iYgn212kYxYHnFGz3CRjlsZoFZjO5VTxSGN2muBvOap4EVcYFSvqOsaJ/Ebn8ORQq8lNxXnGrdZ/iP0HBa6GCG6rSxwwpGsM6sjqFH1GNecL5AhmjTLYaBpG55ZgcZOl+FHZAfHlX2DaT3xnfYVZcZ6NYa3aXCL5pwlu0aKgQgAYpWzEFsHoUzhkkMa/kb91//9k=;movable=0;resizable=0;rotatable=0;deletable=0;editable=0;locked=1;connectable=0;" vertex="1" parent="go8BSAw1Lf1Zyd6wWskr-31">
          <mxGeometry x="390" y="80" width="60" height="60" as="geometry" />
        </mxCell>
        <mxCell id="go8BSAw1Lf1Zyd6wWskr-38" value="" style="shape=image;verticalLabelPosition=bottom;labelBackgroundColor=default;verticalAlign=top;aspect=fixed;imageAspect=0;image=data:image/jpeg,/9j/4AAQSkZJRgABAQAAAQABAAD/2wCEAAUFBQUFBQUGBgUICAcICAsKCQkKCxEMDQwNDBEaEBMQEBMQGhcbFhUWGxcpIBwcICkvJyUnLzkzMzlHREddXX0BBQUFBQUFBQYGBQgIBwgICwoJCQoLEQwNDA0MERoQExAQExAaFxsWFRYbFykgHBwgKS8nJScvOTMzOUdER11dff/AABEIADwAPAMBIgACEQEDEQH/xACJAAACAgMBAQAAAAAAAAAAAAAGBwQFAQMIAAIQAAICAQMCBAYCAgMBAAAAAAECAwQFAAYREjETISJBBxRCUWGBFVIjMiRicZEBAAICAwEAAAAAAAAAAAAAAAIFBAYAAwcBEQACAQQCAgECBwEAAAAAAAABAgMABBEhBRIxQRMGcSIjMkJRYYGR/9oADAMBAAIRAxEAPwBD2LNaqSJZlBH09zq72jVsbhv8RVytCI8zzP7gfSNfeC2bh7kAvx2Hyyc+oI4iRW+0i/76IpK2fqS05HsxHGxOA+PgR6idHuAyBvP8nVwvry7uopY43AX0q6Y0nh4yKMBjlm/ms/FHeyTiti6EJFekqRQjsjEqCWGg7bGPy+dZ+uiUij4MkoPAVT9+e2ntjcB8OMzEUqQzpcdPJLEvEyk+8fPKvompTxbar18XlaUCY2ThIrsUfShJ8uLC/Sx/trlc31Dc8Qbi342xkt5vLCUAMf7ANapoF6Onxt5z2Ykn/KQV/DWMZa8mVoyeqCUeYcDt+x7jTInyFDLUjhBGii3GHRv6TKvUrDQdayM123cq0gjwCUhpXPEKlTx6eOeoj8ai3kp0L0F6nkVeaND/AIGJVEcjgsjDn/42nC/UFpzEnGHlYzHfQEmN0GtgbOPFRLJB36MxQMCetUElCeN3RwFdSQyn2I1FaBwSCRqyr52jlrrqLEaTN9JICkj7HtqfJVRXYSRlW9wfLXVbO+juU/EQHA3UO6tZbVyMEof0kUucNNl9tTfyVBmUN/jIdC0UnP0N99dGXZ89tPBVs1uHGwmM+GZflWKMniKD08OTyw0v0tHde+bFqbpixGJmMNKv2j5iPC8DtySOptFG6czFu3M4fbFm0xhjZnt8dleUdKqfyBqr8pdW9jb/AC40kfd8bPjIH3q1F/hRizEgHVMvH47Y3xE28uSwtuNLUbBJXjXpZG9vHh1ExFu2b1zaed/ySonShm9ZdP6sfrUjzVtcybhq5v4P77Jxc7J0JG6c+aTROAWRx7qdPHcu4sfurAbW33hmKS1JBVyEXPLwt/R/wPY6q17FDz3HuhAMjRl4JCNq2MgUb4li7AeRSesfNZGzPHXLw0ElaGNIx65iD/qg0xMB8Lsjeg+eyU9elU9oyvjzfsnyGrDEVcTtbbc+6M04jrxcQVU7yTSH1FYh7s57nStsbw3p8Q5rXS0tfD01VjUqkrFGGPC+I3dzqVbx2nEWyFlUPgd3PnJoFSOCMsdYGzRzcwWErSmKtJ4ijlfEIVQxH2A9tTIcbWSJAs05HHl0yFR+hq+it4WfGYmqlKISNCnL8eYfjg60CEhI2iiszRuoZWhTlQD7eY7jVlgEOjIvcMMjeKg3sl1lVgZVHnsRS13BU3Dt2jLFRhj5LHmZCG6er3B9mP50n8dkbmFy0dmUSLLHIGkD8hieefVzp4tuDhbDGUFXXnq7j8htCGYr0s3TETxrHNDz4UoHLIO/H5T8e3tpTcFZ4GOnGMMtMSFKkEZB806Nwja/xr2vQFPKV6u4qUYESTsEL/dPP2OkJt7I5LZGR3Bt3LxNBBfgaCxG/ZZY/VFKNC8EHyNbJIZ1ctAw6l56QVZSOOeDoelnmnIMszyEDgF2LcD96R2sLW7FUf8ALHgEbBr2NSuu2Vp25z+e+L26aeH25UdsPi0Faqe0SJ9diQnsX04N1ZLZHwv2RPtXGXYJsnNGPmTH6i8n3YjXL+0LmQNt6SZOxBU8GeaSKORkEpjQlVIX3J16HamQt5HosSsIX4ZJQPEkmDdgi92Y6y442flHAkyYg4IC+/e6GRPkYqzYXFEu2dzF686TPw8T8qf+reY0ya27ak8QcZF6zE+uNZmRer7gAajYD4eUazinBUSxkpFDTvI4dKkfuGbsX/tx5DVjeO1aE/ytfHG2IlCvYMrIJH9yqr2X7atVmYZI/glDEx/uU6+1AVjmyu+q+xSqtKitwjBSw7ex1pieSNzGeQR5p+tV6OwmQc8j7Hz1bSqAIz7rL0j/AMI0t6GIjdbPdU2YrdOPlnhRi0xCsoHkqg8sR+DxoF0z7JK/LoOwj5/ZOhCWlXlnzJ6enwIutAvkOfLWq4QKA/o+qNWrG2WdM1S6B5s3R+27abOZe5tzLYyOJVPrFleewVj6gdRMLWr18bi5IYVRgYZPId25B5OjXdMMMuUvK8Kn/i0ogfcLKQW4/J03sU+AKCewOyPvQPs6o8l+WnxNf+DaCnjcjx4k3qYEr3UsSSFA+jTJo1cXg6sNKjXiaJVDGVlDNKxHm7H7nXKGKuWakmexUcpNKdwxhPZZIz6ZE/qwA40a47cmVrU4okn5VOQOeSeAeNTTCiMQigDz/wBo0x10ABX/2Q==;movable=0;resizable=0;rotatable=0;deletable=0;editable=0;locked=1;connectable=0;" vertex="1" parent="go8BSAw1Lf1Zyd6wWskr-31">
          <mxGeometry x="400" y="90" width="60" height="60" as="geometry" />
        </mxCell>
        <mxCell id="go8BSAw1Lf1Zyd6wWskr-39" value="" style="shape=image;verticalLabelPosition=bottom;labelBackgroundColor=default;verticalAlign=top;aspect=fixed;imageAspect=0;image=data:image/jpeg,/9j/4AAQSkZJRgABAQAAAQABAAD/2wCEAAUFBQUFBQUGBgUICAcICAsKCQkKCxEMDQwNDBEaEBMQEBMQGhcbFhUWGxcpIBwcICkvJyUnLzkzMzlHREddXX0BBQUFBQUFBQYGBQgIBwgICwoJCQoLEQwNDA0MERoQExAQExAaFxsWFRYbFykgHBwgKS8nJScvOTMzOUdER11dff/AABEIADwAPAMBIgACEQEDIgH/xACFAAADAQADAQAAAAAAAAAAAAAFBgcEAQIDCBAAAgIBAwMCBAUFAQAAAAAAAQIDBAUAERIGIUETIgcUMWEVIzJRcUJiY3KRgQEAAgMBAQAAAAAAAAAAAAAAAwQAAQIFBhEAAgIBBAIBBAMBAAAAAAAAAQIAEQMEEiExQVETBSJhgSMyQqH/2gAMAwEAAhEDEQA/AI9DyX7jRKH3kaGxnRaqy81304IuZmamYZp0GdgQpPfWixZxWL5i1diV9t/SB5Pv9wu+2lHqjqpq1gY6rCRXjThYDHb1idjuCvcDSvPaw8leGxW9SOViRJXbc8T+6sexB0QIzUAJJpUJIsUL5hUUAXDBGboR7kzuOtNCxm9ONO7AIxO50SCxzcZFIZGG6keQdT/G1JMkG9CvNIi95GQBUT/Z27DVGTK9J0MZRriR/mYuQlEBNgHfxyPEaG2D4SWb+x7s2Z29JrPpv0s5cmkGd8rA1vAAHpTXY9zzmbLlz5cmXM5bI7FmY9kxv4go+56gMiISNpMKUaqANLLssUSmR2PYBV1Is5lXv5S1YXsrN2H2GmPqPqSTIx/JY6F4Kew58jyeQjyxGkVoZCfodZUEmz+oBQWaoxxKChRNfuNEe+isMMyxiUqeG+3LxvoRj0lt2IIEXkzuqgfcnTVPdhsXXwcDA+gB6Z+nORf1KPvqyYrJLqEK0kSc5SjlyiO+5aWFCq7bAsBtudc4bEY4PdvZicmvUVSK0Z2eZ37LHv8A0DtuTrd1ZayELx7MWaLjVDN3aPgu+yjWvEdNS2KEEEg/NNpZZw3u2O25DjyQNP4838a48XDkfc3qMaZFdLPNHqMZMgQUIvirHp0ZWG52ax5EmHKqOzOu7aLAPkxZy2bt3IVPDhSQ7RQxD04E/hfJ/uPfWeenlK2GXJyIyIzDimwHsP8AUf537avp6CjkaO1fZWp5BZIpC6qixS7exl47BVI7Aal2cvYqh07FRDmbKyzGrZXjuiRVm25hvoS+w20s6qqsQ1kd+eZZTIQGINHomZ2x59Rk1SO7gBwQRXVSsS1kDEWCIpVMP1FkIYrEFCR4nHJH3ABH23OtJwPUsftONs/+DcaovQvJ8TZgjYMtaQEDyFlG+moyAHYqQdB3Gc4sAaJk3L7jmu01D5cfKig34vozl1EfpWH0ky+VYArj6bSLv5mlPpxL/wBOlenicyJ4rHy4JRw/qyJzXl9QxB7HTdjq2Yk6ZmhxqBPmcjEZ7LkJHFHAhILMfu2u0l8UVVI8hNdsqNvmZSeCH/Ch7L/se+qB5PuEQWYbsQadEyF/UDW6hxEgtXi1vKSHlBV7NICe/qSgdlHkLpj6Imv1LEEeS4E2JSXI77Fjvu2gtWMFnlPcsd2Pkn9ydNFGhNcisvXsLBLDFzSRhuoII7EaNgJ+UfkUZdheILpiw68yozp0TIMqvQXbZY+KMZeu+tcZl+kIunIuceWF9IrNTgfYsTEnv9CDqK9UYt8Tia/OVI7EjAekO5IPjR61Hb6Yv2cnlo3s2mblOxXY+o4DKFJ7e4EaTUiy3W2c3kVmLDd1TusUQ8Lorv8AGpx4jy/JI/McxKKFHiay6rYAqcDyfcROqXjHj/qPPuCss3M9+m8zew1yvahQmCaMI4PldVBet+n+CmwDHIRuVRgw0MynScmOpRxPIi2LAC1K23KSQn6BV8KPLHtrLV+GtOGBFvz87J7udzsCfA21tNMDweZ3MOvwo53LeNl2upHYimRPpjOShzoPQAI/VxMLffAks+IVXCdUy1K1I4y98vBy4xCBwN2O5Yjbudaa/Q/Uc+zfg1lE3/XKnpL/ANfbVx6WvZKCx03Wlydm1DkKzmRbLCYxlAdjGzDl48k6YegZXzJzV7IH5ixWyT1YWfuERFB9o+gJ0FsQxhiT1X/Yv91VRqQKx6BjR7fjoy34oDqpLsR8KL0sQnv2YaNVRu8m/PtozlbfR/TmK44fHrPkZCUinsAz+miHi9h4/wBPYnYDRr4kZXJS5Wti47jwQNLEm8YHL3Dcn3A6hz5G3jMNmzVk4mS3YqsT3PpQKQo3/liT9zq8eHcoNAkgkAmhwLi3xt5NSBN2THiQfc579VDACifxDaLAmo1eoL3/ABIpUA1yxqTfqZBevess8jmacgvM4aSRydi5A1VoLWL+H2F/BqcRm6kyUcElhETlNxl7xVk/bce6Q6i/TiLN1ViRN+aDd9wfuGEQLhT/AGnbvq5/DZVzz53q7IqJsvbv2FaU/RFGx2jHjUx42xtlGSiy5DddceBBavBg09/E1qvk9mL4FbZvb/XMY1agajKn+VahI3HE34zFT41J8tnJxPmLS7yuTyWFD39NNIGc+IePxmRlqio0xQDkw27HTb1jk7VapkZ0ILQozKD9Nxr5ad5JGMjuWdyXYnyWO508GK0B2ZRNgCQAkdgShyah6An/2Q==;movable=0;resizable=0;rotatable=0;deletable=0;editable=0;locked=1;connectable=0;" vertex="1" parent="go8BSAw1Lf1Zyd6wWskr-31">
          <mxGeometry x="410" y="100" width="60" height="60" as="geometry" />
        </mxCell>
        <mxCell id="go8BSAw1Lf1Zyd6wWskr-32" value="AD" style="swimlane;whiteSpace=wrap;html=1;movable=1;resizable=1;rotatable=1;deletable=1;editable=1;locked=0;connectable=1;" vertex="1" parent="1">
          <mxGeometry x="-700" y="80" width="660" height="310" as="geometry" />
        </mxCell>
        <mxCell id="go8BSAw1Lf1Zyd6wWskr-36" value="" style="shape=image;verticalLabelPosition=bottom;labelBackgroundColor=default;verticalAlign=top;aspect=fixed;imageAspect=0;image=data:image/jpeg,/9j/4AAQSkZJRgABAQAAAQABAAD/2wCEAAUFBQUFBQUGBgUICAcICAsKCQkKCxEMDQwNDBEaEBMQEBMQGhcbFhUWGxcpIBwcICkvJyUnLzkzMzlHREddXX0BBQUFBQUFBQYGBQgIBwgICwoJCQoLEQwNDA0MERoQExAQExAaFxsWFRYbFykgHBwgKS8nJScvOTMzOUdER11dff/AABEIADwAPAMBIgACEQEDIgH/xACSAAACAwEBAQAAAAAAAAAAAAADBgQFBwgAAhAAAgIBAwIFAwIFBQAAAAAAAQIDBBEABRIhQQYTMVFxFDJhIlIVI3KBkSQzYqHBAQACAwEBAQAAAAAAAAAAAAAEBQMGBwEAAhEAAgEDAwIEBAUFAQAAAAAAAQIDAAQREiExBWEGEyJRMkFxkRQzUoGhIyRigrHB/9oADAMBAAIRAxEAPwDJN0uK6pEucP1b4HoNG2/bhYgjaMgOH4yA+3uNVDzxljjB6ADUmPcxVikVDhnULn2Pvpw7AELkaVUAUh6FZi1sosj1N6m+rVq/QvC8fW7KyvLeYK0VyI7uJjyoOdS/VTxWe24PlJnnAyO9WvoniCbo1j1iCIHXdRqsbfobgt9jTRBN9Zeaby1MVUcOQ9ZG7A/ga9aEcrzCUjLkEH5GlirudqvCsUEaqo9WI5ZJ/wAa+Wu3JnAP81z0UDiP8BdRk8HSecnatAhtLfxJ4smuo4QLOwwhkx+bKn/QKqvjm1/C9emcfBOiuP2GmhrLxld9K6fDZWEEUaqMs7ZZmc8tSLqPWL3q8qS3k7SuoIX04wPYYo1K3LtG7QWIJSrK4IYa3DxJKu9eDLlmHrNTEW5wAdvLbMijWBy7P4ilzKuzWWUdciMnWu+CJ7H0H8Ls1LXmzRWYWJjKpEkydeRfpkEZA0tuFPmQvGMurjAFRQSGKRWFMb+JLm0lHyKZpSus7iNvtTmzVpQsJB3244Br72ixFY3KsI5isjyRWY5AepWQjiB7Mvp8a6R2inttwX1mpwA17TQqccmYcFfk7Nkljy1z3R8MS7dc85Z1hEHkeQko5qeK4KhgfQY6HT5J4vt7VbujhD/qZFnwAWxlFTv/AE6lmeMySLPtIDwRWF3sbCce8bFSO61bbWGCVH1wrlX0jbJIwDkk/Om3UvBkMV7cv+Jk0OS0fHLbkE4ob8FPA8ipIuNWdz2rkUx9FkadY4UQCST7up68Vx6tqGs81hzFRg4j97dX+SfQakbnTnWStGJAYvsjUDAU/wDpPvolRnppyMtdFUlTFI3F2Knqc6LuGliT0xkb6S3ejoWJU4ByWOAdtqMSBnxq37cAUNbyI2dvUTTZMqM5UD2PNSoNkaQA2rLuf2qemrH+D1FXCVh/fqdWG37xs83lxmV0lYhQjRk5J9iuRq7dY/r69HOHlJ6+wBGlAMs0yRliCzYya8lsg5/iiRCmPhrscsJ2yc+2K+7tmhtpnTZwBpPsSwGf2zSjS2fdNwuJV2zKE+splMaAD+46nWo7Ym+eCH2izu7yz0bs5r2Fk5c4JAMhkYk8lZdU2VVMxxRKuf0gniqn5+52+NM1ncLd7wru23zkz+XALcBOQUeqwcsM6ZJFGhEkLyKYssxYbNjkCoCqCRIvNhjduA7gE/Qc02stUMqRgqTJsOxpDc2/SrFCswRfmWI1Sue3tU/RpvPW6ADaYHilgZhhsMSuk/anSa5WlG67VYlSWSMRyQWE/TmOUZRiOzfkdG0hyb5FCRFMnN41CFuhzx6d9Um8TyVPEVOQPxSLbUjsfiLBfB+MjGk76p9yjhtLn+YpJA6YPI9NSdTEWLd32Ysyk9hVmkjF4TC223HJDGs5u3MVzMhG6tg1psoCX7z8KuSx7CsvvT511PIdi7Z+9UN13gtAOQ6o4dW7MvqCPnRYInm3Z5o4oWmWUSKky8kcHoVcamebUtzpYQq8cJMuV6hO5VvwT6aovr7Md59ygTosmSD1BB9/nU8pYWDky7mYMg99I5/mvWE6TRRTKMfqX2I5FWDyxJ2NUroIuYrvQ8TKhyXDDb0jYjvVjvOoLbTRhW/qFshfdafRtQnEZbb60AV2cLXUhizfuc5JA9tE3Ku9eSrYTJaIDk+M4+dNnh/cKO9Uklh+4dHTpyVvY6FNds0pLDUFbzyX4zxr5g4MMMpBBHXVbluZWl1ZOtTseKdJAoION6O0BkwyhgQVYHgg8g0PaTQ3MSyxnnkexpiEyODg8VApXi4eePbXlYjAZAOCnvgnTPs8Vu0u6mYKoeqY3UHoIywLjPwNJFHcbkFqHaYqhSZsu4YY8pT1JK+57DTpZuChtV1M4mtq0S47Lj9R1DdX90wWPCrkgbDcgUqm6UZ5fOWYnChQXXLADuKbWdolrbtgZJYM5PLYrqPgrGmD7kbgUVOwS3A+ZJpNqUp/E+1eMbaFmtLGHwv3EZLkAf0rgaUdvsV6dZYorKsmSwLjB669t29XtomtPVkZBLg9OzJnicdx1II7g6HLa2uzI8021ypK5y4gn4ISe4VlbGnUrxXUMAkI1IuCGzv32oOWV7uwvSn5pH/ucVntwl8ZT/aN/ruKtsdxJC7FTyc/uK689tIxdrYqx5CPhfsQaXzuUMNZoa1bgjsSygnqTqXt1mvIoVTxbup1BtRJ9dJGBhWkX0/5eum3xMVi2+ikUSRJBKqxKgwFAB/7Pc6kmmml1CRhiI6AqjA2NV1bu1hQrEpJ71V+qtcTTGV1GkABcHgU1lRVncDgGvXEaKijHxg6s1GpST7LZN6geJH+9D6o6d8fGtBrQbd4g5W6VuejcKYmWGQoWH54+vzpJp4Zo8jOcg/BGhU5JIJY5InZHT7WU4I0uuohlSDhscil3Sesz2lzEHbKMQpJ+fZq1GCWC5GTn/IA4NYdIPWF+Wpf+1qqkpgqSCK0/bNlp7JHZsuxZyh5zSdgOvfSBuO+yXrk0yL+jgY4lPZff5OjX913HcIhFZtu8f7OgBx741RKoVug0LFbjUXc6mq1Axp8ICqOTSu5vfNf0fCBgUC08rphnJFRiheT01Ih2q7YTnDVdkzjIGrXba8U7u0q8giFgvY41o/01eBUT6eN8KOroGPwPYabpAqorvvq4AqSvgkA8iuEkD6mg9bH51//2Q==;movable=1;resizable=1;rotatable=1;deletable=1;editable=1;locked=0;connectable=1;" vertex="1" parent="go8BSAw1Lf1Zyd6wWskr-32">
          <mxGeometry x="300" y="78" width="60" height="60" as="geometry" />
        </mxCell>
        <mxCell id="go8BSAw1Lf1Zyd6wWskr-42" value="" style="shape=image;verticalLabelPosition=bottom;labelBackgroundColor=default;verticalAlign=top;aspect=fixed;imageAspect=0;image=data:image/jpeg,/9j/4AAQSkZJRgABAQAAAQABAAD/2wCEAAUFBQUFBQUGBgUICAcICAsKCQkKCxEMDQwNDBEaEBMQEBMQGhcbFhUWGxcpIBwcICkvJyUnLzkzMzlHREddXX0BBQUFBQUFBQYGBQgIBwgICwoJCQoLEQwNDA0MERoQExAQExAaFxsWFRYbFykgHBwgKS8nJScvOTMzOUdER11dff/AABEIADwAPAMBEQACEQEDEQH/xACOAAADAQEBAQAAAAAAAAAAAAAFBgcECAIAEAACAQMDAwIEBgEFAAAAAAABAgMEBREAEiEGEzFBURUiYXEUIzJCgaGRB2JjscEBAAIDAQEBAAAAAAAAAAAAAAQFAwYHAgABEQACAQMDAgQGAwADAAAAAAABAgMABBESITEFQRNRYXEGFCIygZEjYsEzodH/2gAMAwEAAhEDEQA/AHSz2drhVxQZ4YksR6KoyTrNoYWnlWNeTn8ADJNaDPKIYnkPbj1J2FDK2jCu2zABPA1DUtCmhYa9Xq+QSRsCNfa9VE6evjFVpqx/k8JIf2H2P+3QdxZpK3iBfq7+tBzw8vGN+6+dar/ZKasdknjXe3idR8/PjcBw2hkmkt9i2pB59qlttEsWpCRgfad128s1HbnZp6GQ5w8e4qsicqSPT6HTSKZZBlTUkkTKQGXBIzQ0UzEeNS6qi0iug+hKYfiquV/KRGP7GTg6Is5lt5PEONykZz2EhwaB6u5WCJRyX1e+mlW7UhinnViFKEjHuRxoRlKMynsSP1TVXDqrjhgDSzKh3Y18AJOAMmvtLdxvlLQStAEaaZThlQjCn2J1YrH4bvbsBmZYlPGQSx/FCy3KRZHJHNZ6bqlk5NJtx/yaYy/CDxjIvB+UrhLpZDsB+6plr6op7rS29KfuyVdOxWTMZWPYOVyzeSPYaqHU+i39kZZZFQREchtRJ9hRFow8SeNom8KUbMNtLcGvMsQqBUbk4kc7k/v+tJ4nBdAp0kYpvcppjwcMoTY0GFviA/SdN6T1WuntkddWIG2uynenoxU+dC9RXNldYYq66Tt3w1A9SXVDE+MgNz3GaEdT0rLWTSbDtkG8f9HXUMzTwxSN9xUaj/YbGp7Bw1uq5yU+mpN1RWzWtqekpWIrHj3zMp+aLd4XBBAONaL8OfD0U0MVxNEWlY5VTwB2oG+6jJbv9DBV7HHNI9HFAZAs7iOU8juHO77e+tNs+mRpgOAjetVubqZbJByKEXKWLeyGMDk4A8HHqv8A6NSXVrbkFXhB52xz6r/5UsF4cghzXq3XBYgonmYw+m18MPtwdV2fpmlHeOVFU/aWGsH0I2qxW/Um0hWc48qeYetaejhCxz1Eu4bUE8glbcfRQFBJ1UpfhLp7v81dzQxopywgi8Itj1JNFi/jxp1O2exOaY7bS3KtpEnqat6eRyT2UONg9j9dI7nq1jDKyWnS7V4l2DSrrY1KpcgZ29KpPTddD8SGXAzG4U/cZwdVG8YC0uc5+z/RUd+he3IAz9SmjVa/xQgRhWnRCdo5yvnH10J025OpjwpbUgPfSBmooovkwSxIiYgZPY8ZqBdY2S9UV0nnpal5juE05nTITu88n+gdaz0fq9xaiErKG1qpww5OM196jYx39lC+FUbqCp2wu3FIF1u9VcIaalq6YQkn5HAGQW4BBGtEturR38YDJpOQD6E1nVz02SwkZgxKkZ9wOaQHu1Y4limAPbk2M2MqSOBnHg6XHq2WkgnKgo2NRBIOPbijEjYKroCQRx3FYZayrUswgXB8kE51DNJJ/wAgiQqe4J3qZZG4OaYOlZ6ye6wfhu2JHO0szLuHuEMgIBOq91xIpbGSWSNmVNyFZiAf7AH7aY2E0vzCKpAJ88f9Z7115aK3oq0UMMF5rcVjfmMvMjKreAxAPOqTbW8bx65IiSSftwABTmdeoSPm2QmMDGT3NLFrqHp5oJMZeNhvX3GkDoJEdDwwIpwwypHGRTgJ1t88z00hZG+aPjkA8jSJPE1Kso0tG2PyO9FhTewxeKmDw+9I1/uVVLcLjCKdpprlRoEjUhMtGRggtx+3WkdMcT2EEoOPC7+woOYC3SOBRkIzYGezVG6R6u/SfDpaREWnVnWRHJO0H7D+Dq0wXRi078jH+iqzInzLsjLspz/lfQdL06RuJSxqY2ZtwPAYnPjRDgSMzE7kk/mhUhWFVGOBSp1DB2KhngBQ/TjJGpo5miSbS5U7EYqCdcujAe9Fek7fTVJq6isrHpJIYRUKWA2tH4JGknUeq3MTwG3RZNbGNvMN5UbYWK3DsruyMAGU9iKx3HqyY1T7GaYAAb2wuccakW3hYBmtEQnkIzAfoVZFvJ7dREl48irwzIua6EhDCpZwfprN6IpnjqZxGCkpAA8Z41zoQnJQZrk4zxS9cqWO41IkqXJIiEaMDhkO/fuU++mVpfyWioqcCQsw7EEYwajZAwcY5XFBJ7TWvcJJaSjLGZVSRYY+VKjbuXH7G/rVptLq3mQhZRnAO53FL3BXGU09iaVprDPYJJ1e5QIZcGR3BqJv8KQP8nTaB2YEqvPJNKrgojYDZoNcLfZq9MCqqS+MbyiAZ98A6OWHXjLr+DQjvtgA5oPPZbmbatvpK6mlp1beqyDtyL7qrHIwdQP0qLxzcRr/ACEYO+x9x51PbXbw6FfBjBzxuPap5WWi6wzuktvqFb6IWBHuCuQddeG67FTn2owzxuciQfuum+nb0bvUFVoO3CSNk7SBVYfZ8HWby9PaMLh8t3HlVvuYbSIv4d4GAGQCp1N7Yplv0N36aPxBqVpaF1HdQH9BHiRGGQVPrrqCyEjCCbMMp3jcjKt6Uo8dWOqNg6jZlHKmgp6ms8oV+1OW8smFUjUj9JuIWxKQPIjg06s+nC9UtFdw7cjfUPcVhuv+ozU8DU1FSRQxHjbuYMfclh5OmVvB4YAQFR3xXrnoLKuVuo2k/upH68qkdX1LSTSyiptFKFkTlyjSEvnJYknTKO3LggSOxPkdxVPvbaazb+eHC8a8ZUn3r2l7tW6nCUdMSXw+N64XwMbidGQCeCVWYyFMaSGJP5oJjHIuFKZ9KM0dRZp+9GxrlnQ+UKKuPQr7/wAjRdrNdy3Uqh4/AVdjvqzUToiINm1ZotBTOU/KvEOzJx3Mxt/IGRp4gcqMkZoQkZqdSV1W1UcztkeD66pOhBHnSKfQlpJghc4p86b6svtPPFRtWGejkZUlppx3IpFYhSGU6CdFA1BcEHtTOWFVZBqYnGzH7h+aw9VJHaerp7bSRhaOTDrEckR55whPIGnPSJnmQJJhlLEYIpTdSyRSBkdlbAOQcGlypy03ZLHaec+To26s4I01ouk+Q4ph0zrXULicW00odSCdTD6tqwGnjLYYFgTg50tG242NWJwCpjYBkYbqwyDQ+Onho7pG0S5Cxd1Ub5lDZx4Op5ZHe30ljucEiqVf2kNpegRKQpXXgnIBzVitVNQ1tphq2t8MUu8BjFuUOPqM6G6LLKvUpoDIWTwifq52ND3gHgI/B1Ueg6dtk0Ydo3BPoHOrlgUsLmv/2Q==;movable=1;resizable=1;rotatable=1;deletable=1;editable=1;locked=0;connectable=1;" vertex="1" parent="go8BSAw1Lf1Zyd6wWskr-32">
          <mxGeometry x="500" y="78" width="60" height="60" as="geometry" />
        </mxCell>
        <mxCell id="go8BSAw1Lf1Zyd6wWskr-43" value="" style="shape=image;verticalLabelPosition=bottom;labelBackgroundColor=default;verticalAlign=top;aspect=fixed;imageAspect=0;image=data:image/jpeg,/9j/4AAQSkZJRgABAQAAAQABAAD/2wCEAAUFBQUFBQUGBgUICAcICAsKCQkKCxEMDQwNDBEaEBMQEBMQGhcbFhUWGxcpIBwcICkvJyUnLzkzMzlHREddXX0BBQUFBQUFBQYGBQgIBwgICwoJCQoLEQwNDA0MERoQExAQExAaFxsWFRYbFykgHBwgKS8nJScvOTMzOUdER11dff/AABEIADwAPAMBIgACEQEDEQH/xACFAAACAwEBAAAAAAAAAAAAAAAGBwQFCAMBEAACAQMDAgUCBQQDAAAAAAABAgMEBREABhIhQQcTIjFRFGEVFlJxkTJCQ6EjgeEBAQADAQEBAAAAAAAAAAAAAAQCAwUGAAcRAAIBBAIBBAIDAAAAAAAAAAECAwAEESEFEjEGEyJxMkEjUZH/2gAMAwEAAhEDEQA/AEBwJTOu0VFLVcfLQsfgalxQZ5KRpheHdqSvvCQOOhbjrQ8VjAZIFAk1hrYqVqqSEpAhCtI3QcvfA+TqpinoFLL50jED3CdNPLxrl+lr6Cw0dLElHTwBlHEcmL9eWfk6Q4ozJEDHyznqO4I7HVsSd1DY809bdFGG2a9hqYKiR1Qt79MjGdTGgnhphVMmISxVWP8Aew9wv7dzrrTWKXDMVGHGR9jq/utxlNlp4aqFJJqeExQKAAH8v+kYGPbOT86Lf+9DFmBckkD6zUorWFpPkxC4zih+mlpamamgwyvKwVQe5PxrtX0sFNUyRQVSVCD/ACL0B0M2UTi41MkyyGdoWVWIOQzdD/rRVBX7boEMNwoaqsqM5Z4JQiJ24d8kdzoNtHIGdpLiQkax21upzgN1SK3QaznFE0kputTPPyo46enX1SwRqqksccTw921N2vumey323GkpYxAKyEyyOD6o+YDY1wmioY4hYQQPpCfqJY0B8yb/ACFTkADI4j7DVVVQG5q/0XNpqaM5gJVXdR3jxjkR+n31jy8rLbulogOUz7jNs78AUeeUCViiBW1mnj44Win/ABmhukCiQzwqMeZ7Ae2F0paK1vWMnlQ44p6yBkBR3/60xdpX+Lcluvlbd3VUFVSlYJOjxOkRTv8A26I6aK3q0k1njBldSJIh/TJn7djrrYJP41xvVJO6FJNk1FLB6KuJ3UFm+MEaX9/tapb6GS4RAp9VFxJ6DEmQR/A0Wi/XBalLekTrMgaKRX6MAv8A5q28Rp7Rbds0EckaVkUBpGqyjHCySr6eo+AdH5LuLSVcMzOuF6+c1B9oQBulVuC2beFPDBbYytYxDM3mOypFjopX9Z1Htew566kSeYlGcnCnIIGq2svFXFKIoFSOBxzSSNQCy/f7jTo268U1qpy0jlh0LDv3zr53y95yXC2VvB7snbtlnZi7nNEuJpokRQxH7znJoStVClJZnqamIF6gluRPVVGk5uGeZ1M0CEUv1LQo/tlwORA/YHTm3RuWzVFiV6CvjkJhZAvHEgIYYDDt00t95UiQbD8PamFejz3USt280tE2k+nILi5nvby7idJDKco4Iwfo1K1jZpJHk858Gpeyt53NHhpam5sYmXygXAfiQcjOex016eHdfOOos26LPHVHlzppQo6HqpyvqB1lKnaSEfUpngHw4HbuNMe03lcU3nsRHx9DZPBz8fAP2Ou8tILQMHEEaSgfkFAyKW0ag9lUA02tjWu+3TdEyXqojkr6818IdHDdZadlVh+zaEPEKt/Lm2Y9g26VqiKOtM9dUMOrzRABh/J0w/DmokO9tszSnHGWYIT2BiY6ELxaFv8AWVl8SdKqmSoqYq2CM5mp4JfTHM6/pcnkW0m6xkgkfioFeTbChbYtvp7/AGy4W2tllhrI4HkosqCsnAZ/fI1cQ3W4WHzbbPzSSCQgq3bPXQnb6urtNfBOMCut04Vx2LRnH8ONbPpvD3au+6Siv9VGyyVVPF1Q45KF6E6weT4+HlIEWTHeNvJ/Yqu4gDkVj3cGzZ6NHqKR+ScSyrg9V1emy1l+8ErjVrwzZ7pHUonvIUKeTP0+Fyh03KeFK+iiaXI58iQvRc+2caXm2sUO8I6CMcqR6/6d4X6o0VX/AMUqEfDKdc16U5mfkHntJ/k6ocP9VXbTM3wbePBrO1tqRTTNzTnCy8ZVxn0/OPtootFI0d8WFVK0LRSTyAHmkkSIX9OfnGNVVwooLdfb7RwZMVLWTwR8up4I5UZ0U7IrpxVXK2PxkphQVzRhxkxMYW6oddmjeB/RyKfjVFnhvdp3uZgWq5KtNUSLEyHMYCEHgR9josvdto9pXGxXjbFa5QBgyNmSOUOMvFIW6srA4ZTpD2ypnpHSop5Gimjw6OhKsGHUEEa1lsy10u+bTQPd8+Z9SeckOI2kLhcl/lj86DN7iTwyPcOyIrnoQDnwKoKdJEJYkbrPF9linvt3uEMRhjraiR1i/QCS6jWzPBK6RXDw8tIkdudLLPTN17Rv01kTfcEVLuK4wQoEiSvkRFHsAG07PBGaX8n1IDnH4nP/ALVNNgYSBW2Ayhv9q19oK//Z;" vertex="1" parent="go8BSAw1Lf1Zyd6wWskr-32">
          <mxGeometry x="20" y="78" width="60" height="60" as="geometry" />
        </mxCell>
        <mxCell id="go8BSAw1Lf1Zyd6wWskr-44" value="" style="shape=image;verticalLabelPosition=bottom;labelBackgroundColor=default;verticalAlign=top;aspect=fixed;imageAspect=0;image=data:image/jpeg,/9j/4AAQSkZJRgABAQAAAQABAAD/2wCEAAUFBQUFBQUGBgUICAcICAsKCQkKCxEMDQwNDBEaEBMQEBMQGhcbFhUWGxcpIBwcICkvJyUnLzkzMzlHREddXX0BBQUFBQUFBQYGBQgIBwgICwoJCQoLEQwNDA0MERoQExAQExAaFxsWFRYbFykgHBwgKS8nJScvOTMzOUdER11dff/AABEIADwAPAMBIgACEQEDIgH/xACQAAEAAgMBAQAAAAAAAAAAAAAGBQcDBAgAAhAAAgIBAwMCBQMDBQAAAAAAAQIDBBEABRIGITFBURMiMmFxFGKBBxWxIyRCkaEBAAIDAAMBAAAAAAAAAAAAAAUHAwQGAAIIAREAAgEDAwIFAgYDAQAAAAAAAQIDAAQRBRIhBjETIkFRYRQyI0JxgZGhBzWx0f/aAAwDAQACEQMRAD8ApVK96pIpjYrg+CD6ex1OQ3rXPlOmT5Le/wB8jTavt6EKHIlTweXY6hLsFaKw8UERKD6u/jRyG4R5vDCeIPmuJpWka7AHgkXewzwc1lda6Tv9LRphE0lt3Z15C/rS/FzeW777eaSBwdwKEjmvQnQV51De6SZ9YEUtvKv4JI/FZfcjsVNScditbpssZySMgffWpDtxu3qsqnHN0/7U6iqYNSw8ZPysOSfcaS1pDTrq6vlopBIn8HRKGSGDfHC/LN5Qfc15/urd4XWQfbXT69re1ltyCcBx+zDinHrvRqR3V0sCH6WdC8BHPhv32n49qT2oadc290qzRFVkBTPocVOb1tyWKbq3dXUt2/8ADo1tVIS1XGcsAQfyvbTCTdKdmESRMOJz8vqM6LbfaWml+RvCucflsaGsZ2tHjKsCrqQP6xQCwupLW7ikThhx/wCg0cvJcy7sYBOR+/NB7iykhnwykN6iiMoMhtkHcj/lGL1fnbro3ozEj8DU7S22a7HJIFJCvw7eBgDsNRMUjX7vJfwNO6VP/bRiLdYqyDIAKsS/u/Yep1aluBDsWThgi5HzReynMNrcspwcAfyaqBZWAKAYPfJqV4jBDsI5bk1VDe84XHpgmq/j3q9DGFaMj9w1uU7UE6yM78XcYcHtn7jOk1WDa9xrcgqq/t41A2K1etYEEgXDntkZDajiEaOwRl3/ACMGmlN0Il4njadfQzIRwpOGB9jTT6Znig021sLtTbXMEKwvG/G4JwGU9iDXliK96i0S4DWt5KAD6GvQXQPUWodRWdyNSihKwske7byWYdiK9JSW8KkdaYLMHIR/IU+gOk1npXdq+1pcsQmNAzKcfTnRKWVNriWzXf8A05H4mIeA6+CCfGdWZHc6j6lqJA0mHjCguvyt9uY8HQ2e3vDcLJERvD7mU9iB2INbDVpoC1tDEwOzknuO1UdS0jSNet57NxGJ3QEOgwcjkGotYjtrO5t0jwpmVigHuveqMExt33IcGgBqiKuV7Lxj559yO576OyzWLJniVuKK+Hb3Ome57XuFNHM1Z5IwjHEWPmKfUuCcg6w9N7BNvcE950WGnWybEr+EdvmwF8ltFYHdCq7jk9yRRJOkNDuNM8O6sI2k8IbpMDfn4b4pcWH+O5DqN0A48G3coskgptwazalPx1bOOy9mJq7Fe2SQRAee4lLMsQHv3JNEqzrQnHx0JUDPYdzpIJOoLoWatYgqxEYWN/mb8nWO5+nubixgX4NUEJCGGSVXtlj7+urR2mXY6NGGF6007eS+FQfwCCca6TQveP5ELMBzSB1ro/U01QWMB8Z3G8P9qgH1NQtp3ROjk2eqSz3d4vMrwEhFJ/IKeGsXN/YWTz22lzXt46kKI08o9txPoPQUpLXosmN2vpF+od2eT8/J/SuYtk3Ld1nNdBLKp8HBIX8kaZOm5zmP4sXceGJ8arf++X9rKxRsCnnHj/Grr6firHZv7puFv55UHw4nI7ZAbXPEhQnyhnXHlwc+b2IqDWLS0ZDJ4aRsOCo43fIoVofUx6alufDIeKTBMRHdl7EGtnPpsF5PLvUhgo5paa7F4UjwxIrMH28DuaNX1hWmY5ZMv5H7Tn6u2rp6a6moR1oZFkJkESCaNl8MB4J1T25VkaYvYhZIZFIIA4kBh20h29HXb7W31LwlE6py5RZbCqy98N+7zrpcOQ6SpkjbzW/0jX73qXULq8ngSOG2gVIlDHgu4yee5NbAoHA7Up+ib2zt717e7lcJKNm5TnDjsefQUz78x6SiNdalYxhvsDyEFv0GKZb51HUsWZq0kQXlKXgeP5g6nuQQPVdb3UdyhS6N2nbaVlFmmsothEGGfKGRi/vgkaB0+mtzjuVbViCWWjy4zTQhTw+79gVXUL121/btxqUTIySGP4q4bvFG5yqgjXEuPG2J283lAqwU2gCrmnX9npk1xeX8ipGkLFC/cHIGEHcmgK6rbNC8wnjkQKSHiYOpx6fB+DWc0yNtZvrq8vcv4MhSGM/aqnkce4q3+keiRbiMliVHtccxQE905dlaUDuoPoNQModZHU+VJB/jST+jEqbdQn5nNi7diXJ8kIMk6gd05/r7ZjyEaaQj8FjozYxvDcXcbc4CHNVYX1nXdTuNRvdQu0smlYxQeIwBjzwpA4pg5HpwKpXUahEUDARDwKsr9q59hXKW9xcJITjyp1ObT1AWs7DBcPGnC8KTd/qRD/g+usW+Ir1YHPkSAaMWMLgD0GgDB0uJ3VsAqorq8Ox3OO9Y7UtIhLXsqDdM4cpn8pYVv77iLf61kZ2JcHPOK6K6hsVd0t11rHC8CXT750w6d2mjA9pUBK2I0Bx5Qg65t6du2nuVEeZmVUZVz6AjVz1LtiGwY0k7JxxqS7jD2sYiJQBc4pWw2bW29lUgjjNULq8mlmXx3aQgYUsc4pnXsMf0l4wQAkIT84NLO5hR5QSPWmVe8+2Vt126F5eJmjQlx5U9z/A0D623mPqfcdvlEa86cYrySD/mck4/jURvm7X623o8dhg9maX4jevt2199GUK15YVnUsA88hGcZKLkA6ksbYROJHOWyAKLW97LDZXXgtgyrtb29v5rVdHyXn1Di5GC8W4D4B4JoTo9tDIG3JnZggVqtH/2lyfUW6f21Wz0RGdvpyblKeIjjZKy+ryH2+w9TqCk3L5jnBOs17dLSRRRoVVTHgALjA9hos7sG1q0i2F3PLPjP7Vq5Rvwo9Tz8CpCOa+gAA18r//Z;" vertex="1" parent="go8BSAw1Lf1Zyd6wWskr-32">
          <mxGeometry x="20" y="160" width="60" height="60" as="geometry" />
        </mxCell>
        <mxCell id="go8BSAw1Lf1Zyd6wWskr-45" value="" style="shape=image;verticalLabelPosition=bottom;labelBackgroundColor=default;verticalAlign=top;aspect=fixed;imageAspect=0;image=data:image/jpeg,/9j/4AAQSkZJRgABAQAAAQABAAD/2wCEAAUFBQUFBQUGBgUICAcICAsKCQkKCxEMDQwNDBEaEBMQEBMQGhcbFhUWGxcpIBwcICkvJyUnLzkzMzlHREddXX0BBQUFBQUFBQYGBQgIBwgICwoJCQoLEQwNDA0MERoQExAQExAaFxsWFRYbFykgHBwgKS8nJScvOTMzOUdER11dff/AABEIADwAPAMBIgACEQEDEgH/xACIAAACAwEBAQAAAAAAAAAAAAAFBwMECAYAAhAAAgEDAwMDAgQHAAAAAAAAAQIDAAQRBRIhBhMxIkFRB2FCcYGRFSMkMlJywQEAAgIDAQAAAAAAAAAAAAAAAwUEBgABBwIRAAICAQIEBgIDAAAAAAAAAAECAxEABBIFEyExFCJBQlFhI4FikbH/2gAMAwEAAhEDEQA/AOGs3RIZQRgmudv+rNN0xzDse4mDjcsbABfsSai6k1CTT9GleJ9ssriJGHtu8kfoKUA5Kj3JFMMjKLOEjHTGA/1C1Uu/atLZF9lYM9H7H6nFFl7+jAtj0GKTAyP8gaUOcEg+cmrMEU1wwSGJnJPgCsJCiyaGa5Y+cMqNIwVRZOOqy+omspcIU/h3c25AZT/0imNo/wBWILiNINXt1t3IP9TDkxfqvlay3PBd2hAlhZR8kV5L11IKORWB43AIoj5GCMYANHrhpI3iYq60c1/cTrclZllDK43KQcgg+CKEXPUFlpsgt5WbftDHAzjNI3SvqDq2mQwQSRQ3ECFsIRsYAnOFIq/qGuPcXtxMV/vbOPj7VvdkJVLGskBAGJyr1vasdJtphnbHcgMP9waVykKyMRkAg4rRep6Wmp6Tf2bEDfHlWx4ccqf3FKGy6bnjffeLhgcLECCSfk4oMs8cCFnI+h6nNJ2GM+D6B9dqKr8cdM5/wfvA9ppxlzLKCFJJC0ydD0gpYTTwwZmHHPgfAodY6bPf6pbadbLvmdwoUe7fFaMTpBuk9EeJo5bi9vWUyOvqSIIeEJb86Q6ieWcFj2HWvQYx4fpeWFYr52F5PcquqCb/AH7R8eXM5ahZXrojPayzdxmAIGB6ePTXF3+nS20u1kMb4zg+4Na7NpZC35s03sMk/elF1xp8HagZEHdEh/bGSKFHqzEy7TWLtTA04a0NjoG+8ssGnMqSr3sdMSkBZLm1WQYHdXP70fuPVNISTnNfM1mTFG+AQCcGpQu/1PCWJ9w2KeabVLqAR2YZz5lZGZWFEY841pDAY5a6H1xvvdSNHPBIpViBuAOBgcnn2oFc3SyAR20CQAgZfln/ADLGjGowx2xkhkk3kEZxyM/auQvJ8dwoMJEpYjzyBSB90lXuJ/kby36bwEQeLQwCLdtc0DQDj7yTPLFsLooDMdx/q+uR6Lqx0jqSz1GEHbBcj0j3QcGtY9UW951ZpFnJpl7L2ChYxQSFO6XH4yM5A+KxfBIcllHrAyvGeRTI6S+oWt9PW3YjKyx5O0SZ4otkI13sJC5WXESauGd1/GJGzFInn8OwO3klv3eMKDQZul12XYAllBYDeWCjx4yaWPVl+kk9siPykjFj7c8Yo/qWuaprkslxcThS3nb5A+BXAaumbmDssP5Ybf7+agkJzKs7fvH+mmjKtNH5VYgjBwRXAgiIBBWvXsbOCljLRhwcDLDb8+9HLO3iMPKg8nFVYId8MfGFDNijtnZymAMFABJIycV55jWdt39Yz0OmhlkAmjSRClhWFjJ2jjAZHroVNDB+o6jI4kORubbucefyWg8su63ljHulevPxfYCqyorZZuabxwcx1UGsqEs/V1v2kD9jEfEZXRJSpo2BkFvGzpOvIBA5wSDg5xxVqLEKc+xPtgYwBU49IXFUZpH3EbuMc/rTIaKPk8tjuF38dc14yPS64ysdw2bdq1d5XlPmvOhHUFskO1VkZ8AeMDNCpLuFkyJCWcjdnyMk5IohJpdqLDRbnB33b3XcHAGIdoXGB9+aMJpdgnZkW3UNSx9GniI4fc3r3GXrRcUhKyKpYEKaJHzldia+H6qbaA910FUM9pKQzQqzKVRDgZGAaLSXMMTuglQ7Tg+ocH4qeVCLGyiWRlE7ZYjBwc4yM5FJkZ7lxklj3n5Pk81JfgcFWszhr6tnT+H8c4ZqJBpVmVWSPc7swVQQaCgnuc4wCdlel5//2Q==;" vertex="1" parent="go8BSAw1Lf1Zyd6wWskr-32">
          <mxGeometry x="300" y="160" width="60" height="60" as="geometry" />
        </mxCell>
        <mxCell id="go8BSAw1Lf1Zyd6wWskr-40" value="" style="shape=image;verticalLabelPosition=bottom;labelBackgroundColor=default;verticalAlign=top;aspect=fixed;imageAspect=0;image=data:image/jpeg,/9j/4AAQSkZJRgABAQAAAQABAAD/2wCEAAUFBQUFBQUGBgUICAcICAsKCQkKCxEMDQwNDBEaEBMQEBMQGhcbFhUWGxcpIBwcICkvJyUnLzkzMzlHREddXX0BBQUFBQUFBQYGBQgIBwgICwoJCQoLEQwNDA0MERoQExAQExAaFxsWFRYbFykgHBwgKS8nJScvOTMzOUdER11dff/AABEIADwAPAMBEQACEQEDEQH/xACUAAACAwADAQAAAAAAAAAAAAAGBwMEBQACCAEQAAICAQIEBAQFAQkAAAAAAAECAwQFABEGEiExEyJBURVCYXEHFCMygRZEUlNigpGhssEBAAMBAQEBAQAAAAAAAAAAAAQFBgMCAQAHEQACAQMDAwIEBwEBAAAAAAABAgMABBEFEiETMUEiUQYjYXEUMkJSgZHBYiT/2gAMAwEAAhEDEQA/ADPGWq/E+XpZK3EoxEEg8NW/tDRt+5j/AIan/c6jrG0W0KvLxIe//INUV1cFkaKIkjyfc0Wx1v6tz75Cw/6CkrUgPbkX53++t5pfxE7eoDJ9I+lYxn8LAFA5/UaO7IpYtIYy4aeRlRAT1JPQbDS28EMTxpu3yOwH91zCZp9zAYjQEmtdqoQ7sem4XTNbMxNh+2Qv90J19w4HPesq/jGKOU7gE6xltJo2JXmto7hcgNQeLE9Z56sqLJG4IkhkAKSKe4IOpu/F5o8gu7FtqOfmRd13d8j2zTeGOC+QxTD1Ael/OKSPGXCsWNdsji0f8g588fVjXc+h/wAh9Dqx+F/iaHW0a3nwl0njtvFINT02WxYOvMZ8+1OT8IcpFHwiYZn80V2df4Ozao51CPgeRmgoiXXJPmgHGY5PhWMity+FUigjVa8T782w+dx3JPoNR93PsLnuafRLuPoH8mmjjZfBp2Lh5KdOCMszgAMQB9e2kvVlcSy79ioO47k+AK7dBujiAMkjnAHgUD40ZfiXKwZlXEVCpOJIkdvPJ4Xm7dyToOEFZlfcpkDbzluTt5p25trW1eAhjJIm0kDgbuKdFjICeAtG26sodD/zqwnmknTjscMpqSSIRvg+CQamqZGHIVBPC4flZkkUd1dehH31uJurEHH5hwy1w8Zjfa3Y8g0IZqSOVXAjVZF3KuBsQdLZXhuo5reaMbWBGaOh6kLJIjHIOcUDQ5WN2cMFDdVdHUMrDsVYHuDr85ubO90m/WSNykituikXswqwjW21G2xgMpGHQ9wakotisekqVqEkCySGRo4ZisYYgAlQwbbt21UJ8balsUS2cbsONwYilB+FYQTsuWVT4IolqcKLXmks3rMQRd1ijT9scY7KB7+51R31uGTDyLHEOWPdmNIoZmH5VLMePoKyuJ7sFytSxgl8ClJZ/Xb18OMbn+WJ1M3s6rEFUbIwcIvk/U/WnmlW8nXlm29SRI8j2ya+X85juSOhhp/CWMJGkbR+Vo067LvsfMerEaWzXokXZF6UAVM8ZGOT/ZppZaZLu6t6gJbLEg4O5uOfsO1WEvzYho61iVWqzEGvKCeUM3Xk3Pr7e41U/D9/DeIbR3AmTlc/qFT+p25Ba4iRgBxIpxkY4zxQ/j87a4b4oycjxscVbZHlO+4R2G3Pt6ex1vNO2n6gUk/I/j6GtorKPUtKR4j/AOiIkEe9MbIflL0JmjcFWH7x6ffW1zEhPUQ8HyKURM6EqRyD2pUZnFTxTmdNwjd3XqNYNHBcx9O4iWRPr/lGw3EkL74ZCjVgMbqEIZpEI9idj9dew6JpKofkbuf1HJreTVdRZsiXHHgYrWk4muyxbRrK7EfPuAN/p30Vc22ZCrODig4HUqGC4rmHstc54bI/VhsLNzkAjc9dmB1J65aMJUVG7jIH3GKo9MJMLy+CChwcUxoqMFiqksscMhJRkZSQ426jbf31L9GS06gaM5bzXz3LCUBHcAZzkZXn7Vi8TV3nip0DA7IOpHca0tp2R94fBHajLDpMLiZmU7zg5HtVCThuJ6v5a5YldVHlLc26+wLL3GmN9rt7crBG6b5oyMS5A48qR5FD26Q2s8slsiiOThowRjP7hnsazat63wvefGvO09AKDBYO45VPyP8Ab0OqPTr7rBYZDhyOKAvrNZ4zdom059a/7RIMjFLuyMI2Ye/Rv/DpqEbPFJtu3GeRXQ22HT4RVk2+bcaLViABsFcFV/ewqK3jYMbAsUMexYFmcncnb66Ed5RcBT71pFtKFs0F8Hzlrt15f3vLzkffSvXI2E0Z/wCBVDpjK1k4HhzRxxJJWkoVqyZVKDmRSh5d9wPTYaVRtk8pvGOaJtYZg8jJHupZiDiz4oqJxCnIXG7xzluRfUbDudHRxacYzmzXdjyveiZo5NuemAhORlcU4JZZ2rxCO03Kg3YPuS/879NANa2/qzCM+MeKXqgEmQijJ9qWZv3MxnDjPG51kSbYH0KKTpjZ2cccscwU717ck0RfFY7N1CgA4ziqLQ5HEkkEmHc+U9R009jnUtgip6SEkAg11+ND5q/X6MRpmnTZQeaXukgNNkY3xcVDBBL4dgQBf1eq7n7dtKkaMOvOG+vavOoQzZGVz4pWVKWRwWcsRX4GieUhl9VYDpup9RrjXIhJDBKvdcq38060SYEzxZ4bDL9xUfEONzE+Xe3jfDlLQI5jlUSbBRynlVgemkdqyhNrL2J5FUq8Qj5pUFsYyRz9xQlGc+l6FRj69eyGHK8Q8If619RpkixOpySa+YXSqSSWjPfc2RTTyOXlrUli5g07KAeXtvrOOz6jdjQeUQlz2FDXAcc1jjeqHBZkSdpfpumjGgaJeB2pfqNwr274PsaaGRxSlZ0dOzuD/OubcZcg0vaXKKQe4BpY/AWsFnUqNmKsD7r007jiO0YoRpeeRTsrVAWBR2df7rHzD7N6/wA6nEUs2VJYftJ5/g1gWwDlQD7iiKxhsZmaIr2YxKEO67jZ4m9x6qdP0ggvLZo9xPhh2ZTQ6XM1pOsqYBH8g0tOI+EYhAiTzyCJX3htRnlZPodTkllLZSE5Dxk4D+PsfY1W2Ordb8nolx6k/wBFAV2lR4diSd7LzySBgssjbnpruxuYLtpFhcEocMBR8s87j5uVUc47UCWeKfFn8OhEbdyRuRNhvGhP/Y6qILcIucc0jursFioPFNj8PMfdqzww1gZ7LyiXJWu6r6lAdC3K8kkYABCr5J9zQEsgMZLHkjgU28jFHGs8shHmfcn0+w0uiRt/A81nE+VRfZcUp8lj7DXJZKok8N/MeQgDftp9HwgycGvSvPApsYGw9ynFJKq82+x2G2p/TnM0alwM5xwKFukETkLnFENhAkTzISskUZKsPp6H3GnFwgSF50JWSOMlWH08H3FCocsqHlWIBFVLTBqExeNWDxMzKw3HmG+lWpXDJp1xIEUkws+CMjJGaKtUzdRDcww4AIODXnH8VqcD8NVpdiGjuxBSPZ91Oob4FnkfWZo2OVeNsj7c1U6jI620zA8jGKEfwyxVO5ddpUO4mghUg9lkJ5ttfsTnYrYHZGP9CpMkkEk85r2LiadSnjII61dIo/DDciDYbnScKHErtyQKycneefOKWvF12x8amgD7RxRxhF9uYbnREaIHwFAGBTCBQLdW8knNB1rKWq8pjjKgAD0301jt42UE5od5XU4Ff//Z;" vertex="1" parent="go8BSAw1Lf1Zyd6wWskr-32">
          <mxGeometry x="500" y="160" width="60" height="60" as="geometry" />
        </mxCell>
        <mxCell id="go8BSAw1Lf1Zyd6wWskr-41" value="" style="shape=image;verticalLabelPosition=bottom;labelBackgroundColor=default;verticalAlign=top;aspect=fixed;imageAspect=0;image=data:image/jpeg,/9j/4AAQSkZJRgABAQAAAQABAAD/2wCEAAUFBQUFBQUGBgUICAcICAsKCQkKCxEMDQwNDBEaEBMQEBMQGhcbFhUWGxcpIBwcICkvJyUnLzkzMzlHREddXX0BBQUFBQUFBQYGBQgIBwgICwoJCQoLEQwNDA0MERoQExAQExAaFxsWFRYbFykgHBwgKS8nJScvOTMzOUdER11dff/AABEIADwAPAMBIgACEQEDIgH/xACOAAACAgMBAAAAAAAAAAAAAAAFBwQGAQIIAxAAAgEDAwMCAwcCBwAAAAAAAQIDBAURAAYSITFRE0EHInEUMkJhYoGSFZEWIzNUcqGxAQACAwEBAAAAAAAAAAAAAAAFBgIDBAEHEQACAQMDAwMDBQEAAAAAAAABAgMABBESITEFQVETIjIUYYFCUnGhsYL/2gAMAwEAAhEDEQA/AAccMlVUXamix6zSB40PQtwzkDPc9dOKhYVMCTrljNgKM9io6/2OkbV093qKmWvhttWFMjSq8cTnoDnKkDVj2BdL7d9zcAY35CSWccQioFHVmx20W6bL6drDq2PpgH7UU6muLm48a2rzW+idbmf2cMa9K6i6NPKQeWJpbvrcTxZCjXkAE+Kb1N61O0ysrEEYOg93hlprdW1FDSSTVEcfNYgTlsd8fnjtpebx+J9XBXT0FgEbujMpm4Aj5e5HLUXZ183neKoF91KXHUo4RIVH6iyjWhr5EJ7MRufH80oRytFqwvIwd6utWSSeJJfahbc002nRIJCMxl2Ire/S7JBgQxNtyFoINw0r+osSyrXO/AJIvUMfHltMHbPwy3Bd+E1Sq0MbHPKoBLn8xGNNm07foJrhDdJY6WpuXHBq0iUcPPDHnydWLcN5gtlE9DTOPXkHGRlPVAfb6nWSSf1cImCT3qA0hQBsMbVdFOUrEkHpAqmy+OwqbER4A57mlNHYbRa55ooA1V6blBPMc88e4RcKB476857vbqeVoieq98ZA1vVTrDFJK78UVSxPgDSqFTVTyVEwX/UkLEeM+37aDXHRhdl9DmJs5LqBk002l/cpGE9dgnOB2otCsEqanuUVs8E70mQT6QKn9Q++9M34c3mOWOOhmn4SK6pHJ+s9F/l21P8AiNuqitaT2+gpkkrJYuNwqoFCsI+3BmHfSloaBI6/0xcofvAEcsZ98au9Htb1bPdY3qlaomYrI5bIBzyjI+o12+ZrPBVcjINSuDrYmuwWskqlgmoLuQR2rMrhn5pgtHXQqqdwc/ikG1vqDDPWVJKUvL5Y0+X1GY5C/npk7Q2fTz0VZcLisLsMD0mJwuO6qB+LWafbkk9TSNJWI8NO5cxFs8GQZIA8HTV2Ttaj4y3GsqAafDKyhujtnOW0Nl6/aRTwgoPSUZcHux80P1yuwiTCg8qowKu6kJLPECHDqAXPO5HH470wLDErpKqp8tTYHcUHuUlOAiiSV2yMjIFLS/262ohrrD9ohEMfJ5kLKiMPZhq2WqrulVR0M1wgVZpIg8hBJbDdEZwfdtH780G4ay27dt0UVPbBP9pq+OMvHB16/VtE4qRHlyZ4gWbnjPb2UfsNbundT+rleQIiIRhFQf2ax9Ptr+7k0SxIUbPvKBePBFB7yNY5ZFVshWIB84pyS1ktLWW6nuWluXAjHhQf0qKV7q1JY4dfG9K7fd4htcFLSO+Hny7oPvGNPH1Ol8L0sSos8EsUhHJgR35HOeuNXu10tPuXfwuFUIZ4fVkio4yeQWOBDhzpzS2yF2y6xMQMZYAn/vTJGRj5Y/FD4STmrg47Go3do0Ns2JQDgE0B9EjiZR/1SY2DtKOrFfX1qqevpKpGc8urHVitF/Fjul0SFVnjgmloKlGXIIU8o3I/TpXWfdN0oaWOqBKzBgiSKRwm44yJk8qOzjv2Or/fK6ls1dt/dNJIqf1XEVWwIKLUKg4lh9Mq2ht7CLqEjxkbUTunA9NQ+nfVkUcthHcJAHLLuDqU4INDpLYtAsjqDGzlVJI5G9QspCGkhb9PxoHuWvohcnrrbEKZahGSpgU/KH7Fl1Bg3vU09pe3I/RFVRw7mR8s2hnxC4evDcLfTmCmqV+aNe0cy9GA8eRqnbTcNf7QJDlBVJI2fCHlpOm6MspVJPcAQQTXoEFuFiwJdepSC3cj71JjbQRygr71VUBHkgk/gUv291MqYDnY1wyOY5dzgAnP3NPqgtdftWjluFe6i4XGBY2piMtSQZyMkfjP4h7arl/vkVstVbVcwJZg8UCj3ZhgfxHXR6vvMdaJ6pzJJl2ZioLtjvgAZJPgaQ96qLjeLn6lRTywRhuEEMiFOC+Oo7+dM/TbEW49o+2a03F5HMqxquycNnmgEwWSQAjbO9SklCDdgB9ziszOMEgg/cUwvhREv+IbdMSP8minGPJwddEkLn7muevhq8dHuekRwp+0008aMB2focj6hSNdElSD+LR6NREMZNR6lJA9ukaRAFfkfJNLhRf20Wut4ifBFDDse9cvw7JviMCXoIm8PWRf+AnRCbYF6qKR6NrnbBTO6u0BrhgOoIDL0OCNavUVEEDyxTMOPXgcMh/Zs6J22tlraYzOqo4H4Mgf2JOseticGmHSTUQNLAnkVdUWAxWkm19y0tjemqXtNXTRBOcjVDu6qh6PhACeI749tTqL4ebmoJfVobttylkKkB42ywDeGeNzqXJNI1JMC5wYnB+hU6zBVzmClb1Dkwxk/wAdSjjj1cf0KtW4dSND4PGcZ/2qZJ5H+VwxrgFVMBk1hNibwkbMm7Le5z/uphj6YQaN020d4RpwO4aGZQMBGq2df7SroX9qnVhiQ6kxV1SrDEh66IRSyIMK+3gqCKqdEk+TA/yKzm17o6j84rWQKhR+j2TfYKylr1o7K88DBo3SZI2H8OA0fnod9yyFlpEQeIqmn4/tzydBLddK1XUCY99XSnudU0QJKk/8dQkupVO8MDfyhH+Gs5t7oqVDKQecmufT3XeJT+RW5TxVuTX/2Q==;movable=0;resizable=0;rotatable=0;deletable=0;editable=0;locked=1;connectable=0;" vertex="1" parent="1">
          <mxGeometry x="-580" y="610" width="60" height="60" as="geometry" />
        </mxCell>
      </root>
    </mxGraphModel>
  </diagram>
</mxfile>
